<?xml version="1.0" encoding="utf-8"?>
<!-- Generator: Adobe Illustrator 26.0.0, SVG Export Plug-In . SVG Version: 6.00 Build 0)  -->
<svg version="1.1" id="Layer_1" xmlns="http://www.w3.org/2000/svg" xmlns:xlink="http://www.w3.org/1999/xlink" x="0px" y="0px"
	 viewBox="0 0 134 206" style="enable-background:new 0 0 134 206;" xml:space="preserve">
<style type="text/css">
	.st0{fill:#FFFFFF;}
	.st1{fill:#3BB34B;}
	.st2{fill:#004E8E;}
</style>
<g>
	<g>
		<path class="st0" d="M126.1,160.6c0-2.8,0-5.7-0.1-8.7c0-0.9-0.1-1.8-0.1-2.8c-0.1-2-0.1-4.1-0.3-6.1c0-0.5-0.1-0.9-0.1-1.4
			c-0.1-1-0.2-2.1-0.2-3.1c-0.1-1.4-0.1-2.8-0.2-4.1l0-0.3l0-0.8c-0.1-2.7-0.2-5.5-0.5-8.2c-0.1-0.9-0.2-1.9-0.3-2.8
			c-0.1-0.5-0.1-1-0.2-1.5c-0.1-0.5-0.1-1.1-0.2-1.6c-0.1-0.9-0.2-1.9-0.3-2.8c-0.2-1.7-0.5-3.3-0.8-4.8c-0.3-1.3-0.6-2.7-0.9-3.9
			l-0.1-0.4c-0.2-0.9-0.4-1.6-0.5-2.2c-0.2-0.7-0.5-1.5-0.7-2.2c-0.5-1.3-1.1-2.6-1.7-3.9l-0.1-0.2c-0.5-1-1.1-2.2-1.8-3.4
			c-0.3-0.5-0.7-1.1-1.2-1.6c0,0,0-0.1-0.1-0.1c-0.2-0.6-0.5-1.2-0.9-1.8c-0.4-0.6-0.9-1.1-1.4-1.6c-0.5-0.4-1-0.8-1.6-1.1
			c-0.5-0.2-1-0.4-1.5-0.5c-0.1,0-0.1,0-0.2,0c0.5-0.4,0.9-0.8,1.4-1.3c0.6-0.4,1.1-0.8,1.6-1.4c0.6-0.7,1.1-1.4,1.5-2.1
			c0.3-0.5,0.6-1.1,1-1.9c0.7-1.4,1.2-2.9,1.6-4.3c0.2-0.8,0.4-1.4,0.6-2.1c0.2-0.9,0.3-1.7,0.4-2.5c0.2-1.3,0.3-2.7,0.4-4l0.1-0.6
			c0.1-1.4,0.3-2.8,0.3-4.2c0-1.2-0.1-2.3-0.2-3.5c0-0.3-0.1-0.6-0.1-0.8c-0.1-1-0.1-1.9-0.2-2.9c0-0.5-0.1-0.9-0.1-1.4
			c-0.1-1.5-0.2-3.1-0.6-4.7c-0.4-1.7-0.9-3-1.5-4.2c-0.7-1.2-1.6-2.4-2.6-3.3c-0.1-0.2-0.3-0.4-0.4-0.6c-0.5-0.7-1.1-1.2-1.7-1.8
			c-0.5-0.4-1.1-0.8-1.6-1.1c-0.8-0.5-1.5-0.8-2.2-1.1c-1.2-0.4-2.4-0.7-3.6-1l-0.3-0.1c-1-0.2-1.9-0.4-2.9-0.6
			c-0.8-0.1-1.6-0.3-2.4-0.5c-0.8-0.2-1.7-0.4-2.6-0.6c-0.7-0.2-1.4-0.4-2.1-0.8c-1.1-0.5-1.9-1-2.6-1.5c-0.1-0.1-0.2-0.2-0.3-0.4
			c-0.3-0.4-0.5-0.8-0.7-1.3c-0.1-0.4-0.3-0.9-0.4-1.5c-0.1-0.4-0.3-1-0.3-1.6c-0.1-0.7-0.1-1.4-0.1-2l0-0.4c0-0.1,0-0.2,0-0.2
			c0-0.4,0-0.8-0.2-1.2c-0.1-0.3-0.3-0.7-0.6-1c-0.3-0.3-0.6-0.4-1-0.6c-0.2-0.1-0.5-0.1-0.8-0.2c-0.1,0-0.1,0-0.2,0l0.3,0l0,0
			c-0.6-0.1-1.3-0.1-2.1-0.2c-0.1,0-0.3,0-0.4,0c-0.4,0-0.9-0.1-1.3-0.1c-0.5,0-0.9,0-1.4,0c-0.1,0-0.2,0-0.3,0c-0.4,0-0.7,0-1.1,0
			c-1,0-2,0-3,0c-1,0-2.1,0-3.1,0.1c-1.1,0-2.1,0-3.2,0.1c-0.5,0-1.1,0-1.6,0c-0.5,0-1.1,0-1.6,0.1c-1.1,0-2.1,0.1-3.2,0.1
			c-1.1,0-2.2,0.1-3.3,0.1c-1.1,0-2.1,0.1-3.2,0.2c-1.1,0.1-2.1,0.1-3.2,0.2c-1.1,0-2.1,0.1-3.2,0.1c-0.5,0-1.1,0-1.6,0.1
			c-0.5,0-1,0-1.5,0c-1.1,0-2.1,0.1-3.2,0.1c-0.5,0-1,0-1.6,0c-0.5,0-1,0-1.5,0.1c-0.4,0-0.8,0-1.2,0.1c-0.1,0-0.2,0-0.3,0
			c-0.2,0-0.3,0-0.5,0l0,0c-0.2,0-0.5,0-0.7,0.1c-0.5,0.1-0.9,0.5-1.2,1c-0.4,0.6-0.5,1.4-0.6,2.1l0,0.2c-0.2,1.2-0.5,2.5-0.9,3.6
			c-0.2,0.5-0.4,0.9-0.7,1.4c-0.2,0.3-0.5,0.5-0.7,0.8c-0.5,0.4-1.1,0.7-1.8,1.1c-0.3,0.1-0.6,0.2-0.9,0.4c-0.7,0.2-1.5,0.4-2.2,0.5
			l-0.3,0.1c-1.3,0.3-2.6,0.6-3.9,1.1c-0.6,0.2-1.2,0.4-1.8,0.6c-0.7,0.2-1.4,0.5-2,0.7c-0.9,0.3-1.6,0.6-2.2,1
			c-0.7,0.4-1.3,0.9-1.8,1.3c-1.1,0.9-2,2.2-2.7,3.5c-0.3,0.6-0.6,1.1-0.9,1.7l0,0.1L14.8,46c-0.3,0.5-0.6,1.1-0.8,1.6
			c-0.6,1.2-1.3,2.7-1.9,4.2c-0.5,1.4-0.9,2.8-1.2,4.1l0,0.1c-0.3,1.3-0.7,2.7-1.1,4.1c-0.1,0.4-0.2,0.7-0.3,1.1
			c-0.3,1-0.6,2.1-0.8,3.1c-0.4,1.6-0.5,3.3-0.6,4.8C8,70.6,7.9,72,7.8,73.6c0,1.3-0.1,2.8,0,4.3c0,0.7,0,1.4,0.1,2.2
			c0,0.7,0.1,1.5,0.2,2.5c0.1,0.8,0.3,1.5,0.5,2.2c0.3,0.8,0.6,1.6,1,2.3c0.5,0.8,0.9,1.4,1.4,1.9c0.5,0.6,1.1,1.1,1.7,1.5
			c0.7,0.5,1.4,1,2.1,1.4c-0.2,0.1-0.3,0.1-0.5,0.2c-0.5,0.2-1.1,0.5-1.5,0.8c-0.4,0.3-0.7,0.7-0.9,1.1c-0.2,0.2-0.3,0.5-0.4,0.8
			c-1.2,1.3-2,2.7-2.8,4.3c-1.4,2.8-2.5,5.8-3.5,9.3c-0.4,1.4-0.7,2.9-1.2,4.8c-0.4,1.5-0.8,3.2-1.1,4.9c-0.4,1.8-0.7,3.6-1,5.4
			c-0.2,1.3-0.4,2.7-0.6,4l-0.1,1c-0.1,0.9-0.2,1.8-0.4,2.6c-0.1,0.7-0.2,1.5-0.3,2.2c-0.2,1.8-0.3,3.5-0.4,4.9
			c-0.1,2.7-0.1,5.4-0.1,8c0,0.7,0,1.3,0,2c0,1.1,0,2.1,0,3.2c0,2.2,0,4.5,0,6.7c0,1.4,0.1,3.2,0.2,5.1c0.1,1.2,0.2,2.3,0.3,3.5
			c0.1,0.5,0.1,0.9,0.2,1.4c0.2,1.6,0.3,3.2,0.4,4.7l0,0.3c0.1,1.3,0.3,2.7,0.4,4l0.1,0.7c0.1,0.9,0.2,1.7,0.3,2.6
			c0.3,2.5,0.5,5,1,7.5c0.3,1.5,0.6,3.1,1,4.6l0.1,0.3c0.1,0.3,0.1,0.6,0.2,0.8c0.1,0.5,0.2,1,0.3,1.6c0.1,0.5,0.2,0.9,0.3,1.3
			c0.1,0.5,0.3,0.9,0.6,1.5c0.1,0.3,0.3,0.6,0.6,1c0.7,0.6,1.4,1.2,2.2,1.8l0.1,0.1c0.8,0.6,1.6,1.1,2.5,1.5
			c1.9,0.9,4.1,1.3,6.1,1.7c2.1,0.4,4.4,0.7,6.7,0.9c1.8,0.2,3.8,0.4,5.9,0.5c1.7,0.1,3.5,0.1,5.1,0.2l1.4,0l1.9,0.1
			c1.5,0,3,0.1,4.5,0.1c4.4,0.1,8.9,0.1,12.7,0.2c1.8,0,3.6,0,5.4,0c2.9,0,5.3,0,7.5-0.1c0.9,0,1.9,0,2.8-0.1c1.1,0,2.3-0.1,3.4-0.1
			c0.7,0,1.3,0,2,0c1.5,0,3.1-0.1,4.6-0.1c3.8-0.1,7.6-0.4,11.4-0.6l1-0.1c1.6-0.1,3.2-0.2,4.7-0.2l1.5-0.1c1.2-0.1,2.5-0.2,3.7-0.3
			c0.5,0,1.1-0.1,1.6-0.1c1.1-0.1,2.3-0.2,3.5-0.5c0.9-0.2,1.7-0.5,2.5-0.8c1.3-0.5,2.2-1.3,3.1-2.2l0,0c0.2-0.2,0.3-0.3,0.5-0.5
			c0,0,0.1-0.1,0.1-0.1c0.3-0.3,0.6-0.6,0.9-1c0-0.1,0.1-0.1,0.1-0.2c0.1-0.1,0.1-0.1,0.2-0.2c0.4-0.3,0.7-0.7,1.1-1
			c0.4-0.4,0.8-0.9,1.1-1.4l0.1-0.2c0.4-0.5,0.8-1.1,1.1-1.7c0.5-0.8,0.8-1.6,1.1-2.3c0.3-0.6,0.5-1.3,0.8-2.1
			c0.5-1.2,0.9-2.5,1.4-3.8c0.4-1.3,0.7-2.5,1-4.1c0.3-1.4,0.6-2.9,0.8-4.6c0.1-0.7,0.2-1.4,0.3-2.1c0.1-0.6,0.2-1.3,0.3-1.9
			c0.1-0.4,0.1-0.8,0.2-1.2c0.2-1,0.3-2,0.5-3c0.2-1.5,0.4-2.9,0.4-4.3c0-1.1,0-2.3,0-3.4L126.1,160.6z M49.2,34.5
			c-0.6,0.5-1.2,0.8-2.1,0.8c-0.3-0.1-0.7-0.3-1.1-0.5c-0.5-0.3-0.7-1.1-0.5-1.6c0.3-1,1.3-1.7,2.3-1.7c0.8,0,1.4,0.3,1.8,1
			C50,33.1,49.8,34,49.2,34.5z M56.2,44.8c-0.4,0.1-0.9,0-1.3-0.1c-0.8-0.2-1.3-0.7-1.6-1.4c-0.5-1.7,0.3-3.4,1.8-4.2
			c1.6-0.9,3.9,0.4,4,2.2C59.3,42.9,57.9,44.6,56.2,44.8z M69.5,35c-0.1,1.6-0.6,3-2.1,3.7c-0.5,0.2-1.1,0.4-1.7,0.3
			c-1.7-0.1-2.7-1.3-2.8-3c0-1.7,0.3-3.3,1.5-4.6c0.5-0.6,1.7-0.9,2.5-0.6C68.9,31.6,69.7,32.9,69.5,35z M79.7,32.3
			c-0.5-1.1-0.2-2.3,1-3.1c0.9-0.6,2-0.4,2.8,0.6c0.3,0.3,0.3,0.8,0.4,1.1c-0.1,1.3-1.1,2.4-2.3,2.6C81,33.5,80.1,33,79.7,32.3z
			 M83.9,200.6c-0.2,0.3-0.9,0.5-1.3,0.4c-0.6-0.2-1.1-0.5-1.4-1.1c-0.2-0.3-0.3-0.8,0-1c0.2-0.1,0.4-0.3,0.6-0.3
			c0.8-0.1,1.4,0.1,2,0.6C84.1,199.5,84.2,200.2,83.9,200.6z M100.3,195.1c-0.2,0.2-0.6,0.5-1,0.7c-0.3,0.2-0.7,0.2-1,0.2
			c-1.1-0.1-2.3-1.3-2.4-2.4c0-0.4,0-0.7,0-1.1c0.2-1.4,1-2.1,2.4-2.4c1.7-0.2,3.1,1,3,2.8C101.2,193.8,100.9,194.4,100.3,195.1z
			 M108.3,198.8c-0.7,0.3-1.3,0.1-1.9-0.6c-0.2-0.3,0-0.7,0.3-0.9c0.6-0.2,1.2-0.2,1.6,0.3C108.8,197.9,108.7,198.6,108.3,198.8z"/>
		<path class="st0" d="M96.1,25c-1,1.2-1.3,2.5-0.8,4c0.5,1.5,1.8,2.6,3.3,2.6c1.7,0,3.1-0.6,4-2.2c0.1-0.1,0.1-0.3,0.2-0.5
			c0.5-1.8-0.6-4-2.2-4.7c-1.3-0.5-2.6-0.4-3.8,0.2C96.4,24.6,96.2,24.8,96.1,25z"/>
		<path class="st0" d="M101.7,19.2c0.6,0,1.2-0.6,1.2-1.2c0.1-0.9-0.5-1.7-1.3-2c-0.2-0.1-0.5,0-0.7,0c-0.2,0.2-0.5,0.3-0.6,0.5
			c-0.6,0.6-0.6,1.5,0.1,2.1C100.6,19,101.1,19.2,101.7,19.2z"/>
		<path class="st0" d="M97.6,1.4c0.2-0.2,0.2-0.7,0-0.9c-0.5-0.4-1.2-0.2-1.6,0.3c-0.1,0.1,0,0.3,0,0.5C96.4,1.8,97.2,1.8,97.6,1.4z
			"/>
		<path class="st0" d="M95.2,10.8c0.2,0.2,0.4,0.3,0.7,0.4c0.8,0.3,1.9,0,2.4-0.7c0.1-0.2,0.2-0.5,0.2-0.7c0-0.3-0.1-0.7-0.1-0.9
			c-0.3-0.6-0.6-1-1-1.3c-1.1-0.7-2.4-0.3-2.8,0.9C94.2,9.4,94.4,10.2,95.2,10.8z"/>
		<path class="st0" d="M94.8,22.7c0.5-0.1,0.8-0.2,1.2-0.6c0.2-0.2,0.3-0.7,0.2-1c-0.1-0.3-0.6-0.5-0.9-0.4
			c-0.5,0.2-0.9,0.5-1.1,1.1c-0.1,0.2,0,0.3,0,0.5C94.2,22.6,94.5,22.8,94.8,22.7z"/>
		<path class="st0" d="M102.5,6c0.6-0.1,1-0.4,1-1c0-0.4-0.4-0.6-0.7-0.5c-0.4,0.2-0.7,0.5-0.7,1C102,5.8,102.3,6.1,102.5,6z"/>
		<path class="st1" d="M116.2,88.9c0.4,1.5,1.3,2.6,2.6,3.5c1.2,0.8,2.6,0.7,3.6-0.5c0.3-0.4,0.6-0.9,0.7-1.4
			c0.3-1.5-0.5-2.6-1.5-3.5c-1.4-1.2-2.8-1.3-4.4-0.2C116.5,87.2,116.1,88.1,116.2,88.9z"/>
		<path class="st1" d="M125.1,104.5c0.7,0.3,1.3,0.1,1.9-0.4c0.3-0.3,0.5-0.6,0.7-1c0.7-1.3,0.2-3.3-1-3.9c-1.5-0.8-3.5,0.1-3.7,1.8
			C122.8,102.5,123.6,103.9,125.1,104.5z"/>
		<path class="st2" d="M129,111.4c-0.4-0.1-0.8-0.2-1.2-0.3c-1.3-0.1-2.4,0.7-2.6,2c-0.1,0.8,0.1,1.6,0.6,2.3
			c0.6,0.7,1.8,0.9,2.6,0.5c1.2-0.7,1.7-2.2,1.2-3.5C129.5,112,129.2,111.7,129,111.4z"/>
		<path class="st2" d="M130.9,90.2c-0.2-0.1-0.6-0.3-1-0.3c-1.1,0.1-1.9,0.8-1.9,1.7c0,1.2,0.7,2.1,1.8,2.3c0.6,0.1,1.5-0.3,1.7-0.8
			C132.1,92.3,131.8,91,130.9,90.2z"/>
		<path class="st2" d="M133.3,97.8c-0.3-0.4-1.1-0.4-1.4,0c-0.6,0.7-0.5,1.9,0.3,2.5c0.2,0.1,0.5,0,0.7,0.1
			C133.7,99.8,133.9,98.6,133.3,97.8z"/>
		<path class="st0" d="M28.4,21.2c1.1,0.5,2.2,0.2,2.8-0.9c0.2-0.4,0.3-0.8,0.3-1.2c0-1.3-0.8-2-1.8-2.5c-1.3-0.8-2.5-0.6-3.6,0.5
			c-0.4,0.4-0.6,1.3-0.3,1.8C26.3,20,27.3,20.7,28.4,21.2z"/>
		<path class="st1" d="M30.8,25.3c-1.3-0.4-2.8,0.7-2.7,2c0.1,1.3,1,2.3,2.3,2.5c0.6,0.1,1.1-0.1,1.4-0.6c0.2-0.3,0.3-0.6,0.4-0.9
			C32.6,27.2,31.8,25.7,30.8,25.3z"/>
		<path class="st0" d="M31,8.9c0.5,0,1.2-0.5,1.3-0.9c0.2-0.9-0.1-1.9-1-2.3c-0.2,0-0.5-0.1-0.8,0c-0.9,0.2-1.4,0.9-1.2,1.7
			C29.4,8.3,30.1,8.9,31,8.9z"/>
		<path class="st1" d="M22.4,32.1c0.3-0.2,0.5-0.4,0.6-0.6c0.3-0.6,0.3-1.1,0.1-1.6c-0.2-0.5-0.7-0.9-1.2-0.9c-0.6,0-1,0.4-1.2,0.9
			c-0.3,0.7-0.1,1.5,0.5,2.1C21.5,32.2,22.1,32.3,22.4,32.1z"/>
		<path class="st1" d="M36,16.1c0,0.5,0,1,0,1.5c0,0.7,0.1,1.5,0.3,2.3c0,0.2,0.1,0.5,0.2,0.7c0.1,0.2,0.2,0.5,0.3,0.7l0.1,0.1
			c0.1,0.1,0.2,0.2,0.3,0.3c0.3,0.3,0.5,0.4,0.8,0.5c0.3,0.1,0.7,0.2,1.1,0.2l0.1,0c0.3,0,0.7,0.1,1,0.1c0.3,0,0.5,0,0.8,0
			c1.1,0,2.2-0.1,3.2-0.1l0.7,0c1.1-0.1,2.2-0.1,3.4-0.2c0.9-0.1,1.9-0.2,2.8-0.2c0.4,0,0.8-0.1,1.2-0.1c3-0.3,5.5-0.4,7.9-0.5
			c1.5,0,3.1-0.1,4.6-0.1c1.1,0,2.2,0,3.3-0.1c0.7,0,1.5,0,2.2,0c0.6,0,1.2,0,1.7,0c1,0,2.1-0.1,3.1-0.1l0.8,0
			c2-0.1,4.1-0.2,6.1-0.2l1.5,0c1.4,0,2.5-0.2,3.6-0.4c0.6-0.1,1.2-0.5,1.6-1c0.2-0.3,0.4-0.6,0.6-0.9c0.2-0.4,0.3-0.8,0.5-1.1
			l0.1-0.2c0.2-0.7,0.4-1.4,0.6-2.2c0-0.2,0.1-0.3,0.1-0.5c0.1-0.6,0.2-1.2,0.3-1.7c0-0.2,0-0.4,0.1-0.6c0-0.2,0-0.4,0.1-0.6l0,0.1
			l0,0.1c0.2-1.3,0.2-2.6,0.3-3.8c0-1.1,0.1-2.3-0.8-3.1c-0.2-0.2-0.3-0.3-0.5-0.4c-0.2-0.1-0.4-0.2-0.6-0.2c-0.1,0-0.3-0.1-0.4-0.1
			c-0.4-0.1-0.7-0.1-1.1-0.2l-0.2,0c-2.3-0.3-4.7-0.3-7-0.3l-0.9,0c-0.2,0-0.5,0-0.7,0c-2.4,0-4.8,0.1-7.3,0.2
			c-2.6,0.1-5.2,0.4-7.7,0.6l-0.4,0c-2.4,0.2-4.9,0.5-7.6,0.8l-0.9,0.1c-1,0.1-1.9,0.2-2.9,0.4c-1,0.1-1.9,0.3-2.9,0.4
			c-0.4,0.1-0.7,0.1-1.1,0.2c-1,0.1-2,0.3-2.9,0.4L44.3,7c-1.2,0.1-2.3,0.3-3.5,0.4l-0.2,0c-0.7,0.1-1.4,0.2-2.1,0.3
			c-0.3,0-0.6,0.1-0.9,0.1c-0.4,0.1-0.7,0.1-0.9,0.3c-0.9,0.6-1,1.9-1,3c0,0.7,0,1.3,0.1,1.9C35.8,13.9,35.9,15,36,16.1z M86.3,17.9
			c0-0.1,0-0.2,0-0.4c0-0.2,0-0.5,0-0.7c0-0.5,0.1-1,0.1-1.5c0.1-1,0.2-2,0.3-3c0.1-1,0.2-2.1,0.2-3.1c0-0.5,0.1-1.1,0.2-1.6
			c0.1-0.5,0.1-1.1,0.2-1.6c0-0.1,0-0.3,0.1-0.4c0.1-0.1,0.2-0.2,0.3-0.2c0.1,0,0.2,0.1,0.3,0.2c0.1,0.1,0.2,0.2,0.1,0.4
			c-0.1,1.1-0.2,2.1-0.3,3.2c-0.1,1-0.1,2-0.2,3.1c-0.1,1-0.2,2.1-0.3,3.1c-0.1,0.5-0.1,1-0.2,1.5c0,0.2-0.1,0.5-0.1,0.7
			c0,0.1,0,0.3,0,0.4c0,0.1,0,0.2,0,0.3c0,0.1-0.1,0.2-0.1,0.2c-0.1,0.1-0.1,0.1-0.2,0.1l0,0c0,0-0.1,0-0.1,0h0
			c-0.2,0-0.3-0.1-0.4-0.3C86.3,18.2,86.3,18.1,86.3,17.9z M83.6,17.7c0-0.2,0-0.5,0-0.7c0-0.5,0.1-1.1,0.1-1.6c0-1,0.1-2.1,0.2-3.1
			c0.1-1,0.1-2.1,0.2-3.1c0.1-1.1,0.2-2.2,0.3-3.3c0-0.1,0-0.3,0.1-0.4c0.1-0.1,0.2-0.1,0.3-0.1c0.1,0,0.2,0.1,0.3,0.1
			c0.1,0.1,0.1,0.2,0.1,0.4C85.3,6.9,85.2,8,85.1,9c-0.1,1-0.1,2.1-0.2,3.1c-0.1,1.1-0.2,2.1-0.2,3.2c0,0.5-0.1,1-0.1,1.6
			c0,0.3,0,0.5-0.1,0.8c0,0.1,0,0.3,0,0.4c0,0.2,0,0.5-0.2,0.7c-0.1,0.2-0.3,0.2-0.5,0.1C83.5,18.6,83.6,18.1,83.6,17.7z M80.8,16.8
			c0-0.5,0-1,0-1.5c0-1.1,0.1-2.1,0.2-3.2c0.1-1.1,0.1-2.3,0.2-3.4c0-0.5,0.1-1.1,0.1-1.6c0-0.6,0.1-1.2,0.2-1.7
			c0-0.1,0.1-0.3,0.2-0.3C81.8,5,81.9,5,82,5c0,0,0.1,0,0.1,0c0.1,0,0.2,0.1,0.3,0.2c0.1,0.1,0.1,0.3,0,0.4c0,0.1,0,0.2,0,0.3
			c0,0.5-0.1,1-0.1,1.5c0,0.5,0,1,0,1.5c0,1-0.1,2-0.1,3c-0.1,1.1-0.1,2.2-0.2,3.3c0,0.5-0.1,1.1-0.1,1.6c0,0.3,0,0.5,0,0.8
			c0,0.3,0,0.6-0.1,0.9c0,0.1-0.1,0.2-0.2,0.3c-0.1,0-0.1,0.1-0.2,0.1c-0.1,0-0.3-0.1-0.3-0.2c0-0.1-0.1-0.2-0.1-0.3
			c0-0.1,0-0.2,0-0.3c0-0.1,0-0.3,0-0.4C80.8,17.3,80.8,17.1,80.8,16.8z M78.2,17.9c0-1,0.1-1.9,0.2-2.9c0-1,0.1-2,0.1-3
			c0-1,0-2,0.1-3.1c0-0.5,0-1,0.1-1.5c0-0.5,0.1-1.1,0.1-1.6c0-0.1,0-0.3,0.1-0.4c0.1-0.1,0.2-0.2,0.3-0.2c0.1,0,0.2,0.1,0.3,0.2
			c0.1,0.1,0.2,0.2,0.1,0.4c-0.1,0.5-0.1,1-0.1,1.6c0,0.5,0,1,0,1.5c0,1,0,1.9,0,2.9c0,1-0.1,2-0.1,3c0,1-0.1,2-0.3,3
			c0,0.2,0,0.4-0.1,0.5c0,0.2-0.1,0.4-0.1,0.5c-0.1,0.1-0.2,0.2-0.3,0.2c-0.1,0-0.3-0.1-0.3-0.2c-0.1-0.1-0.1-0.3-0.1-0.5
			C78.2,18.1,78.2,18,78.2,17.9z M75.8,15.2c0-0.7,0.1-1.5,0.1-2.2c0-0.8,0-1.5,0-2.3c0-0.8,0-1.5,0-2.3c0-0.8,0-1.5,0.1-2.3
			c0-0.2,0.1-0.4,0.3-0.4c0.2,0,0.3,0.2,0.3,0.4c0,0.4,0,0.8-0.1,1.1c0,0.3,0,0.7,0,1c0,0.7,0,1.3,0,2c0,0.8,0,1.6,0,2.3
			c0,0.7,0,1.5-0.1,2.2c0,0.7-0.1,1.5-0.1,2.2c0,0.6,0,1.1-0.1,1.7c0,0.1,0.1,0.2,0,0.2c0,0.1,0,0.2-0.1,0.3c0,0.1-0.1,0.2-0.2,0.2
			c-0.1,0-0.2,0-0.3-0.1c0,0-0.1-0.1-0.1-0.1c0,0,0-0.1,0-0.1c0,0,0-0.1,0-0.1c0-0.1,0-0.2,0-0.3c0-0.2,0-0.3,0-0.5c0-0.3,0-0.7,0-1
			C75.7,16.5,75.7,15.8,75.8,15.2z M73,13.8c0-0.9,0-1.8,0-2.6c0-1.8,0-3.6,0-5.4c0-0.2,0.2-0.4,0.4-0.4c0.2,0,0.4,0.2,0.4,0.4
			c0,0.9,0,1.9,0,2.8c0,1.8,0,3.6,0,5.3c0,0.9,0,1.7,0,2.6c0,0.4,0,0.9,0,1.3c0,0.2,0,0.4,0,0.6c0,0.1,0,0.2,0,0.3
			c0,0.2,0,0.3-0.1,0.5c-0.1,0.1-0.3,0.1-0.5,0C73,19.1,73,18.9,73,18.7c0-0.1,0-0.2,0-0.3c0-0.2,0-0.4,0-0.6c0-0.4,0-0.9,0-1.3
			C73,15.6,73,14.7,73,13.8z M70.3,5.8c0-0.3,0.2-0.5,0.5-0.5c0.2,0,0.5,0.2,0.5,0.5c0,0.3,0,0.5,0,0.8c0,1,0,2.1,0,3.1
			c0,1,0,2,0.1,2.9c0,1,0,2,0,3.1c0,0.5,0,1,0,1.5c0,0.2,0,0.5,0,0.7c0,0.1,0,0.3,0,0.4c0,0.1,0,0.3,0,0.4C71.1,18.9,71,19,70.8,19
			c-0.1,0-0.3-0.1-0.3-0.2c0-0.1-0.1-0.2-0.1-0.3c0-0.1,0-0.1,0-0.2c0-0.1,0-0.2,0-0.3c0-1,0-2,0-3c0-1,0-2,0-3c0-1-0.1-2-0.1-3
			C70.2,7.9,70.2,6.8,70.3,5.8z M68.3,19.1c0,0,0-0.1,0-0.1c0,0,0,0,0,0C68.3,19.1,68.3,19.1,68.3,19.1z M67.4,6.2
			c0-0.3,0.2-0.5,0.5-0.5c0.3,0,0.5,0.2,0.5,0.5c0,1.1,0,2.2,0,3.3c0,1.1,0,2.1,0,3.2c0,1.1,0,2.1,0,3.2c0,0.5,0,1.1,0,1.6
			c0,0.2,0,0.5,0,0.7c0,0.2,0,0.5,0,0.7c0,0.2-0.1,0.4-0.3,0.5c0,0,0,0,0,0c-0.2,0.1-0.5-0.1-0.5-0.3c0-0.2,0-0.4,0-0.5
			c0-0.1,0-0.2,0-0.4c0-0.3,0-0.5,0-0.8c0-0.5,0-1.1,0-1.6c0-1.1,0-2.1,0-3.2C67.4,10.6,67.4,8.4,67.4,6.2z M65.2,6.4
			c0.2,0,0.3,0.2,0.3,0.4c0,0.5,0,1.1,0,1.6c0,0.5,0,1.1,0.1,1.6c0.1,1.5,0.1,2.9,0.1,4.4c0,0.8,0,1.5,0,2.3c0,0.4,0,0.7,0,1.1
			c0,0.4,0,0.7,0,1.1c0,0.1-0.1,0.3-0.2,0.3c-0.1,0-0.3,0-0.3-0.1c-0.1-0.3-0.1-0.6-0.2-0.9c0-0.3,0-0.5,0-0.8c0-0.5,0-1.1,0-1.6
			c0-1.5,0-3,0-4.4c0-0.8,0-1.5-0.1-2.3c0-0.7,0-1.5,0-2.2C64.9,6.5,65,6.4,65.2,6.4z M62.3,6.3c0.2,0,0.4,0.2,0.4,0.4
			c0,1,0.1,1.9,0.1,2.9c0,1,0.1,2,0.1,3c0,1,0.1,2,0.1,3c0,0.5,0,1,0,1.5c0,0.2,0,0.5,0,0.7c0,0.1,0,0.3,0,0.4c0,0.1,0,0.2,0,0.4
			c0,0.2-0.2,0.4-0.4,0.4c-0.5,0-0.5-0.6-0.5-1c0-0.2,0-0.5,0-0.7c0-0.5,0-1-0.1-1.5c0-1-0.1-2-0.1-2.9c0-1,0-2.1-0.1-3.1
			c0-1,0-2-0.1-3C61.9,6.5,62.1,6.3,62.3,6.3z M59.3,7.1c0-0.2,0.1-0.3,0.3-0.3c0.2,0,0.3,0.2,0.3,0.3c0,1,0,1.9,0,2.9
			c0,0.8,0,1.5,0,2.3c0,0.8,0,1.5,0.1,2.3c0,0.8,0,1.5,0,2.3c0,0.4,0,0.8,0,1.2c0,0.2,0,0.4,0,0.6c0,0.1,0,0.2,0,0.3
			c0,0.1,0,0.2,0,0.3c0,0.1,0,0.2-0.1,0.3c0,0,0,0,0,0c-0.1,0.1-0.3,0.1-0.4,0c-0.1-0.2-0.1-0.4-0.2-0.6c0-0.1,0-0.2,0-0.4
			c0-0.2,0-0.4,0-0.7c0-0.5,0-1,0-1.4c0-0.8,0-1.5,0-2.3c0-0.8,0-1.6,0-2.3C59.3,10.3,59.3,8.7,59.3,7.1z M56.6,8.8
			c0-0.5,0-0.9,0.1-1.4c0-0.1,0-0.2,0.1-0.3c0.1-0.1,0.2-0.1,0.3-0.1c0.2,0,0.5,0.2,0.4,0.5c0,0.6-0.1,1.1-0.1,1.7
			c0,0.9,0,1.7,0,2.6c0,0.9,0,1.8,0,2.7c0,0.9,0,1.7,0,2.6c0,0.4,0,0.9,0,1.3c0,0.4,0,0.7,0,1.1c0,0.1,0,0.1,0,0.2
			c0,0.1,0,0.1,0,0.2c0,0.1-0.2,0.3-0.3,0.3c-0.1,0-0.2-0.1-0.3-0.2c-0.1-0.1-0.1-0.2-0.1-0.3c0-0.1,0-0.1,0-0.2c0-0.1,0-0.3,0-0.4
			c0-0.3,0-0.5,0-0.8c0-0.9,0-1.7-0.1-2.6c0-0.9,0-1.8-0.1-2.7c0-0.9,0-1.8,0-2.6C56.5,9.7,56.5,9.3,56.6,8.8z M54.3,6.9
			c0.3,0,0.4,0.2,0.4,0.5c0.1,1.8,0.2,3.6,0.3,5.4c0,1.1,0,2.1,0.1,3.2c0,0.5,0,1,0,1.5c0,0.5,0,1,0,1.5c0,0,0,0,0,0
			c0.1,0.2-0.1,0.5-0.3,0.5c-0.2,0.1-0.4,0-0.5-0.2c-0.1-0.2-0.1-0.4-0.1-0.6c0-0.1,0-0.2,0-0.3c0-0.2,0-0.4,0-0.6
			c0-0.4,0-0.9-0.1-1.3c0-0.9,0-1.7,0-2.6c0-2.1-0.1-4.3-0.2-6.4C53.8,7.1,54.1,6.9,54.3,6.9z M51.5,7.4c0.2,0,0.3,0.1,0.4,0.2
			C52,7.7,52.1,7.8,52.1,8c0,0.8,0.1,1.6,0.1,2.4c0,0.8,0.1,1.5,0.1,2.3c0.1,1.2,0.1,2.3,0.1,3.5c0,0.6,0,1.1,0,1.7
			c0,0.3,0,0.6,0,0.8c0,0.1,0,0.3,0,0.4c0,0.1,0,0.1,0,0.2c0,0,0,0.1,0,0.1c0,0,0,0.1,0,0.1c0,0.1,0,0.1,0,0.2
			c-0.1,0.3-0.3,0.4-0.6,0.3c-0.1-0.1-0.2-0.2-0.2-0.4c0-0.1,0-0.2,0-0.2c0-0.1,0-0.2,0-0.3c0-0.2,0-0.4,0-0.5c0-0.4,0-0.7,0-1.1
			c0-0.8-0.1-1.6-0.1-2.4c0-1.2-0.1-2.3-0.2-3.5C51,10.4,51,9.2,50.9,8C50.9,7.7,51.2,7.4,51.5,7.4z M48.8,7.9
			c0.4,0,0.6,0.3,0.6,0.7c0,1.1,0,2.2,0.1,3.3c0,1.3,0.1,2.6,0.1,3.9c0,0.6,0,1.2,0,1.9c0,0.6,0,1.2-0.1,1.9c0,0.1,0,0.3-0.1,0.4
			c-0.1,0.1-0.2,0.1-0.3,0.1c-0.1,0-0.2-0.1-0.3-0.1c-0.1-0.1-0.1-0.2-0.1-0.4c-0.1-0.5-0.1-1-0.1-1.6c0-0.5,0-1,0-1.5
			c0-1.3-0.1-2.6-0.1-3.9c-0.1-1.3-0.1-2.7-0.1-4C48.1,8.3,48.4,7.9,48.8,7.9z M45.7,8.1c0.1,0,0.3,0.1,0.4,0.2
			c0.1,0.1,0.2,0.3,0.2,0.4c0.1,1,0.1,2.1,0.2,3.1c0.1,1.3,0.1,2.6,0.1,3.9c0,0.6,0,1.3,0,1.9c0,0.6,0,1.3,0,1.9
			c0,0.2-0.1,0.5-0.4,0.5c-0.2,0.1-0.5,0-0.6-0.3c-0.1-0.2-0.1-0.3-0.1-0.5c0-0.2,0-0.3,0-0.5c0-0.2,0-0.5,0-0.7c0-0.5,0-0.9,0-1.4
			c0-2.7-0.1-5.3-0.2-8C45.1,8.4,45.4,8.1,45.7,8.1z M42.7,8.4c0.3,0,0.6,0.3,0.6,0.7c0,1,0.1,2,0.2,2.9c0.1,1.3,0.2,2.5,0.3,3.8
			c0,0.7,0,1.3,0.1,2c0,0.3,0,0.7,0,1c0,0.4,0,0.8,0,1.1c0,0.3-0.2,0.5-0.5,0.5c-0.2,0-0.4-0.2-0.5-0.4c-0.1-0.3-0.1-0.6-0.1-0.9
			c0-0.2,0-0.5-0.1-0.7c0-0.4,0-0.9-0.1-1.3c-0.1-1.3-0.1-2.6-0.2-3.9c-0.1-1.3-0.2-2.7-0.2-4C42,8.7,42.3,8.4,42.7,8.4z M40,8.7
			c0.3,0,0.5,0.3,0.5,0.6c0,0.7,0,1.4,0,2.1c0,0.6,0.1,1.3,0.1,1.9c0.1,1.1,0.1,2.2,0.2,3.3c0,0.6,0.1,1.1,0.1,1.7
			c0,0.3,0,0.6,0.1,0.8c0,0.3,0,0.6,0,0.9c0,0.2-0.1,0.4-0.3,0.4c-0.2,0.1-0.4,0-0.5-0.2c-0.2-0.3-0.2-0.7-0.3-1.1
			c0-0.3-0.1-0.6-0.1-1c-0.1-0.6-0.1-1.3-0.2-1.9c-0.1-1.1-0.1-2.3-0.2-3.4c-0.1-1.2-0.1-2.3-0.1-3.5C39.5,9,39.7,8.7,40,8.7z
			 M37.1,9.6c0-0.3,0.2-0.6,0.5-0.6c0.3,0,0.5,0.3,0.5,0.6c0,1.3,0,2.5,0,3.8c0,1.1,0.1,2.3,0.1,3.4c0,0.6,0.1,1.2,0.1,1.8
			c0,0.3,0,0.5,0,0.8c0,0.1,0,0.3,0,0.4c0.1,0.1,0.1,0.3,0.1,0.4c0,0.1,0,0.2-0.1,0.3c-0.1,0.1-0.2,0.2-0.3,0.2
			c-0.1,0-0.3,0-0.4-0.1c-0.1-0.1-0.2-0.2-0.2-0.3c-0.1-0.4-0.1-0.7-0.1-1.1c0-0.3-0.1-0.6-0.1-0.9c-0.1-0.6-0.1-1.2-0.1-1.9
			c-0.1-1.1-0.1-2.3-0.2-3.4C37,11.8,37.1,10.7,37.1,9.6z"/>
	</g>
	<g>
		<g>
			<path class="st2" d="M27.9,108.7c0.4-0.1,0.9-0.3,1.4-0.3c0.5-0.1,0.8,0.1,0.8,0.7c0,1.8-4.4,1.7-4.4,6.4c0,1.6,0.6,2.1,1.3,2
				c0.7-0.1,1.4-1.1,2-1.2s0.9,1,0.9,1.7c0,3.4-2.5,4.6-5.1,4.9c-4,0.3-5.3-1.1-5.3-3.1c0-2.4,1.8-5.6,1.8-7.1
				c0-1.4-1.9-0.1-1.9-1.5c0-1.5,3.2-0.2,4.8-5.1c0.2-0.7,0.7-1.5,1.6-1.6C27.7,104.3,26.1,108.9,27.9,108.7z"/>
			<path class="st2" d="M42.8,101.4c2.2-0.2,3.7,0.5,3.7,2.4c0,3.6-2.4,5-2.4,7.9c0,3.5,2.2,4,2.2,8.3c0,2.3-1.7,3.3-3.6,3.4
				c-1.9,0.1-3.1-1-3.1-2.4c0-1.7,1.4-3.7,1.4-5.5c0-1.1-0.8-2.4-2.4-2.3c-1.4,0.1-2.5,1.1-2.5,2.9c0,0.9,1.1,2.9,1.1,4.7
				c0,1.8-1.2,2.9-3.1,3c-1.9,0.1-3.5-0.6-3.5-2.3c0-4.3,2-4.5,2-8.8c0-4.6-2-4.2-2-7c0-2.1,1.6-3.1,3.8-3.4
				c1.8-0.2,3.4,0.3,3.4,1.6c0,2.7-1.9,2.9-1.9,5c0,1.6,0.9,1.8,2.2,1.7c2.2-0.2,3-1.2,3-2.2c0-1.5-1.9-2.9-1.9-4.5
				C39.3,102,41.5,101.5,42.8,101.4z"/>
			<path class="st2" d="M60.3,108.6c0.2,6.1-6,5.8-7,8.2c-0.2,0.6,1,1.3,1.6,1.3c1.4,0,3-1.3,3.3-1.7c0.7-0.8,1-1.5,1.6-1.5
				c0.3,0,0.5,0.3,0.5,0.7c0,4.3-3.3,6.2-6.2,6.2c-5.6,0-7.6-5.7-7.6-10.5c0-5.1,2.2-9.7,7.8-9.9C58.3,101.4,60.1,104.2,60.3,108.6z
				 M57.1,112.2c0-1-0.9-1.3-1.6-1.3c-1.7,0-2.6,1-2.6,2c0,0.5,0.4,1,1.1,0.9C55.4,113.8,57.1,113.5,57.1,112.2z"/>
			<path class="st2" d="M74.2,106.7c0,4.5-3.3,3.4-3.3,5.1c0,1.6,4.1,2.4,4.1,7.1c0,2.4-1.5,4.5-4,4.5c-1.6,0-2.9-1.4-2.9-2.9
				c0-1.7,1.3-3.4,1.3-4.3c0-1.9-1-2.6-2.2-2.6c-1.3,0-2,1-2,2.1c0,1.5,1.2,3.3,1.2,4.9c0,1.1-0.7,2.6-3.2,2.6
				c-1.2,0-2.8-0.8-2.8-2.6c0-1.7,1.2-4,1.2-7.2c0-4.1-1.3-6.9-1.3-8.9c0-1.7,0.9-3.4,6.3-3.4C70,101.1,74.2,102.6,74.2,106.7z
				 M67.1,105.6c-1.1,0-1.6,0.7-1.6,1.7c0,1.4,0.7,1.9,1.5,2c1,0,1.8-0.8,1.8-2.2C68.8,106.1,68,105.6,67.1,105.6z"/>
			<path class="st2" d="M89.3,109.7c0,8.4-7,5-7,7.5c0,0.9,1,1.4,1.6,1.4c1.4,0.1,3-1,3.3-1.4c0.7-0.7,1-1.4,1.6-1.3
				c0.3,0,0.5,0.3,0.5,0.7c0,4.2-3.3,5.8-6.2,5.7c-5.6-0.3-7.6-6.1-7.6-11.1c0-4.9,2.2-9.5,7.8-9C87.3,102.5,89.3,105.2,89.3,109.7z
				 M86.1,113c0-0.9-0.9-1.4-1.6-1.4c-1.7-0.1-2.6,0.8-2.6,1.8c0,0.5,0.4,1,1,1C84.5,114.4,86.1,114.2,86.1,113z"/>
			<path class="st2" d="M93.8,105.7c0,3.1-1.1,5.9-1.9,5.8c-1.2-0.1-1.9-3.5-1.9-7.2c0-1.7,1-1.9,2-1.8
				C93.4,102.7,93.8,103.9,93.8,105.7z"/>
			<path class="st2" d="M106.7,108.6c0,0.7-0.4,1.1-0.9,1c-1.2-0.2-0.7-2.2-3.5-2.6c-0.6-0.1-1.3,0.3-1.3,1c0,2.7,6.1,2.9,6.1,8.8
				c0,5.3-3.3,6.9-6.5,6.7c-3.9-0.3-6.1-2.7-6.1-5.6c0-1,0.5-2.2,1.3-2.1c0.8,0.1,0.6,1.7,2.9,1.9c0.8,0.1,1.5-0.4,1.5-1.4
				c0-3.1-4.4-2-4.4-7.8c0-2.8,2-5,5.5-4.4C104.1,104.6,106.7,106.1,106.7,108.6z"/>
			<path class="st2" d="M32.7,143.5c0-1.4-0.4-3.2-1.7-3.2c-2.2,0,1,8.7-3.8,8.6c-5.1-0.1-2.6-5.2-4.2-7c-0.3-0.3-0.7-0.6-1.2-0.6
				c-0.5,0-2.1,0.2-2.1,3.8c0,2.9,2.1,4.1,2.1,6.6c0,2.2-1.5,3.7-3.4,3.6c-3.1-0.2-4.2-3.1-4.2-5.7c0-3,1.2-7.5,2.1-10.3
				c1.2-3.7,2.9-6.5,5.2-6.6c3.9-0.2,3.3,6.6,4.8,6.6c0.5,0,1.3-2,1.4-2.6c0.5-2.1,1-4.3,2.8-4.4c1.6-0.1,3,1.2,3.8,2.5
				c2,3.3,2.7,8.2,2.7,11.9c-0.1,6.1-1.4,8.4-3.5,8.3c-1.7-0.1-2.7-1.2-2.7-2.9C30.8,149.6,32.7,146.4,32.7,143.5z"/>
			<path class="st2" d="M49.2,137.3c0,2.6-1.8,6-5.9,6c-4.4,0-5.7-2.7-5.7-5.4c0-4.3,2-6.2,6.3-6.3
				C47.1,131.6,49.2,133.6,49.2,137.3z M43,139.1c0,0.9,0.4,1.8,1.4,1.8c1.3,0,2-1,2-1.9c0-1-0.6-1.9-1.8-1.9
				C43.5,137,43,138,43,139.1z"/>
			<path class="st2" d="M64.8,137.9c0,4.9-3.6,3.8-3.6,5.7c0,1.8,4.5,2.5,4.5,7.7c0,2.6-1.6,5-4.3,5c-1.7,0-3.1-1.5-3.1-3.1
				c0-1.8,1.4-3.8,1.4-4.7c0-2.1-1.1-2.8-2.3-2.8c-1.5,0-2.2,1.2-2.2,2.3c0,1.7,1.3,3.6,1.3,5.3c0,1.2-0.8,2.8-3.4,2.8
				c-1.3,0-3-1-3-2.9c0-1.9,1.3-4.3,1.3-7.8c0-4.4-1.5-7.5-1.5-9.7c0-1.8,1-3.7,6.8-3.7C60.2,132,64.8,133.4,64.8,137.9z M57,136.9
				c-1.1,0-1.7,0.8-1.7,1.9c0,1.5,0.8,2.1,1.6,2.1c1.1,0,1.9-0.9,1.9-2.4C58.9,137.4,58,136.9,57,136.9z"/>
			<path class="st2" d="M81.3,140.3c0.2,6.6-6.6,6.2-7.6,8.8c-0.2,0.6,1.1,1.4,1.8,1.4c1.5,0,3.3-1.3,3.6-1.8
				c0.7-0.8,1.1-1.6,1.8-1.6c0.4,0,0.6,0.3,0.6,0.7c0,4.6-3.6,6.7-6.7,6.7c-6.2,0-8.3-6.5-8.3-11.8c0-5.5,2.4-10.5,8.5-10.4
				C79.1,132.4,81.1,135.4,81.3,140.3z M77.8,144.1c0-1-0.9-1.5-1.7-1.5c-1.8,0-2.8,1-2.8,2.1c0,0.6,0.4,1.1,1.1,1.1
				C76,145.8,77.8,145.4,77.8,144.1z"/>
			<path class="st2" d="M97.9,138.3c0.4,0,1-0.1,1.5-0.1c0.5,0,0.9,0.2,0.9,0.9c0,1.9-4.8,1.2-4.8,6.4c0,1.7,0.7,2.4,1.4,2.4
				c0.8,0,1.6-1.1,2.2-1.1c0.6,0,1,1.1,1,1.9c0,3.7-2.7,4.9-5.6,5c-4.4,0.1-5.8-1.6-5.8-4c0-2.8,2-6.2,2-7.9c0-1.6-2-0.4-2-2.1
				c0-1.7,3.5,0.3,5.3-4.9c0.2-0.8,0.8-1.6,1.8-1.5C97.8,133.4,95.9,138.2,97.9,138.3z"/>
			<path class="st2" d="M112.3,138.1c0,2.3-1.8,5.4-5.8,5.4c-4.4,0-5.7-2.6-5.7-5.2c0-4.1,2-5.8,6.2-5.6
				C110.2,132.8,112.3,134.8,112.3,138.1z M106.1,139.4c0,0.9,0.4,1.7,1.4,1.7c1.3,0,2-0.8,2-1.7c0-0.9-0.6-1.8-1.8-1.8
				C106.6,137.6,106.1,138.5,106.1,139.4z"/>
			<path class="st2" d="M20.3,163.8c0.9,0.1,3.2-0.6,5.2-0.4c2.3,0.2,3.4,1.9,3.6,5c0.4,8.8-9.5,4.5-10.6,7.1
				c-1,2.2,1.1,3.8,1.1,6.7c0,1.7-1.3,2.2-2.9,1.9c-2-0.4-3-1.7-3-3c0-1.8,1.4-4.5,1.4-10.5c0-2.6-0.2-4.2-0.8-5.1
				c-0.3-0.4-0.5-0.9-0.5-1.5c0-0.8,0.5-1.5,2.1-1.4C17.3,162.7,17.6,163.6,20.3,163.8z M18.8,169.5c0,1,0.4,2.3,1.5,2.4
				c0.9,0.1,2.1-0.9,2.1-2.9c0-1-0.6-1.8-1.8-1.9C19.6,167,18.8,167.6,18.8,169.5z"/>
			<path class="st2" d="M33.9,163.7c1.8,0.1,3.2,1.4,3.1,3.6c-0.2,4-4.6,6.8-4.7,11.1c0,1.4,0.7,2.3,2,2.5c2.9,0.3,4.3-1.9,5.6-1.8
				c0.9,0.1,1.8,1.4,1.7,2.5c-0.3,5.5-8.1,5.3-11.8,5c-1.4-0.1-2-1.1-2-2c0.1-5.5,2.4-11.1,2.6-16.6
				C30.5,165.6,31.4,163.5,33.9,163.7z"/>
			<path class="st2" d="M56.8,167.7c0,1.2-0.6,2.4-0.6,3.8c0,1.5,0.4,3.3,1,5c1.2,3.9,4.3,6.5,4.3,9c0,1.7-1.6,3.3-3.4,3.3
				c-1.4,0-3.7-0.8-3.7-2.8c0-0.6,0.2-1.2,0.2-1.9c0-1.5-1.3-2.6-3.3-2.7c-1.6-0.1-3,0.7-3,2.3c0,0.8,0.3,1.4,0.3,2
				c0,1.7-1.6,2.6-3.3,2.5c-2-0.1-3.3-1.5-3.2-3.1c0.4-4.5,4.6-8.9,4.9-13.6c0.1-1.1-0.6-2.6-0.6-3.9c0-1.7,1.2-3.3,5.4-3.2
				C55.4,164.4,56.8,166,56.8,167.7z M51.5,172.8c-0.9,0-2.1,1.3-2.1,3.3c0,1,0.6,2.4,1.9,2.4c1.1,0,1.9-1.1,1.9-2.6
				C53.2,175,52.7,172.9,51.5,172.8z"/>
			<path class="st2" d="M75.2,169.1c0,0.8-0.4,1.4-1,1.4c-1.4,0-0.7-2.4-3.8-2.4c-0.7,0-1.6,0.7-1.5,1.4c0.6,3.4,6.8,4,6.7,9.2
				c-0.1,4.1-2.5,8.8-7.2,8.8c-4.2,0.1-6.7-2.5-6.7-5.8c0-1.1,0.5-2.5,1.5-2.5c0.9,0,0.7,1.9,3.2,1.9c0.9,0,1.6-0.7,1.6-1.8
				c0-3.6-4.8-1.7-4.8-8.4c0-3.2,2.1-5.9,6-6C72.3,165,75.2,166.2,75.2,169.1z"/>
			<path class="st2" d="M85.4,170.1c0.4,0,1-0.2,1.5-0.2c0.5,0,0.9,0.1,0.9,0.9c0,2-4.8,1.6-4.8,6.9c0,1.8,0.7,2.4,1.4,2.4
				c0.8-0.1,1.6-1.2,2.2-1.3c0.6,0,1,1.1,1,1.9c0,3.8-2.7,5.2-5.6,5.5c-4.4,0.3-5.9-1.5-5.9-3.9c0-2.9,2-6.5,2-8.2
				c0-1.6-2.1-0.3-2.1-2.1c0-1.8,3.5,0.2,5.3-5.3c0.2-0.8,0.8-1.7,1.8-1.7C85.3,165.2,83.4,170.2,85.4,170.1z"/>
			<path class="st2" d="M95.8,166.4c0,1.9-1.6,4.3-1.6,7.7c0,4.9,1.4,6.3,1.4,8.5c0,1.9-0.8,3.7-3.3,4c-2.7,0.3-3.7-0.8-3.7-2.8
				c0-2.8,1.7-4,1.7-7.5c0-6.2-1.8-6.8-1.8-9.3c0-2.1,0.9-3.5,3.7-3.6C94.9,163.4,95.8,164.4,95.8,166.4z"/>
			<path class="st2" d="M96.4,176.1c0.1-5.5,3.9-12.8,10.2-13.2c2.2-0.1,5.9,0.7,5.9,3.2c0,0.5-0.3,0.9-0.8,1
				c-0.8,0.1-1.9-0.5-3.3-0.3c-2.8,0.3-4.5,4.2-4.5,7.1c0,3.2,1.6,5.2,3.5,4.9c1.9-0.3,3.6-2.5,4.6-2.7c0.6-0.1,0.9,0.6,0.9,1.1
				c-0.2,3.9-4.4,7.2-8.1,7.9C99.8,186,96.3,180.7,96.4,176.1z"/>
		</g>
	</g>
	<g>
		<path class="st1" d="M81,88.4c0.5-0.2,1-0.6,1.4-0.9c0.4-0.3,0.7-0.6,1-0.9c0.4-0.4,0.8-0.9,1.1-1.4c0.3-0.5,0.5-1.1,0.6-1.7
			c0.3-1,0.3-2.1,0.3-3.2c0-0.6-0.1-1.2-0.2-1.8c0-0.1,0-0.1,0-0.2c0-0.1,0-0.3,0-0.4c-0.1-0.5-0.1-1-0.2-1.4
			c-0.1-0.4-0.2-0.8-0.3-1.2c-0.3-0.9-0.5-1.8-0.8-2.6c-0.2-0.5-0.4-1-0.6-1.4c-0.2-0.4-0.4-0.8-0.6-1.2c-0.2-0.3-0.4-0.6-0.7-0.8
			c-0.2-0.2-0.5-0.3-0.8-0.3c0,0-0.1,0-0.1,0c-0.3,0-0.6,0.1-0.8,0.2c-0.4,0.1-0.7,0.3-1.1,0.5c-0.1,0-0.2,0.1-0.3,0.1
			c-0.1,0.1-0.3,0.1-0.4,0.2c-0.1,0.1-0.2,0.1-0.3,0.2c0,0-0.1,0-0.1,0.1c-0.3,0.2-0.6,0.3-0.8,0.5c-0.2,0.1-0.3,0.2-0.5,0.4
			c-0.1,0.1-0.2,0.2-0.3,0.3c-0.1,0.2-0.2,0.4-0.2,0.6c0,0.4,0.2,0.7,0.5,1c0.1,0.1,0.1,0.2,0.2,0.3c0.2,0.3,0.4,0.6,0.5,0.9
			c0.2,0.4,0.3,0.7,0.5,1.1c0.2,0.5,0.4,0.9,0.6,1.4c0.2,0.5,0.4,0.9,0.6,1.4c0.2,0.6,0.3,1.2,0.4,1.9c0.1,0.5,0.1,1.1,0,1.6
			c0,0.1-0.1,0.3-0.1,0.4c-0.1,0.2-0.2,0.3-0.3,0.5c-0.2,0.2-0.3,0.4-0.5,0.5c-0.2,0.2-0.5,0.5-0.7,0.7c0,0-0.1,0.1-0.1,0.1
			c-0.2,0.1-0.5,0.2-0.8,0.4c-0.8,0.3-1.7,0.6-2.5,0.9c-0.3,0.1-0.5,0.2-0.8,0.3c0-0.1,0-0.1,0-0.2c0-0.4-0.1-0.9-0.1-1.3
			c0-0.4,0-0.9-0.1-1.3c0-0.3-0.1-0.6-0.2-0.9c-0.2-0.3-0.4-0.6-0.8-0.7c-0.1,0-0.1,0-0.2,0c-0.1,0-0.2,0-0.2,0c0,0,0,0,0,0
			c-0.2,0-0.4,0.1-0.6,0.2c-0.2,0.1-0.4,0.2-0.6,0.3c-0.2,0.1-0.3,0.2-0.5,0.3c-0.5,0.3-1,0.6-1.5,0.9c-0.3,0.2-0.6,0.5-0.9,0.7
			c-0.3,0.2-0.5,0.5-0.7,0.7c-0.4,0.4-0.9,0.9-1.3,1.3c-0.5,0.4-0.9,0.8-1.4,1.2c-0.6,0.5-1.3,0.9-1.9,1.4c-0.2,0.2-0.4,0.4-0.6,0.5
			c-0.1,0.1-0.2,0.2-0.3,0.3c-0.1,0.2-0.2,0.6-0.2,0.8c0.1,0.2,0.1,0.3,0.3,0.5c0.2,0.1,0.3,0.2,0.5,0.3c0,0,0.1,0,0.1,0
			c0.1,0.1,0.2,0.2,0.4,0.3c0.1,0.1,0.2,0.1,0.3,0.2c0.4,0.2,0.9,0.4,1.3,0.5c0.8,0.3,1.6,0.5,2.4,0.8c0.8,0.2,1.5,0.5,2.3,0.7
			c0.8,0.2,1.5,0.5,2.3,0.8c0.6,0.2,1.2,0.4,1.8,0.6c0.1,0,0.2,0,0.3,0.1c0.1,0,0.4-0.1,0.5-0.1c0.2-0.1,0.3-0.2,0.4-0.4
			c0.1-0.1,0.1-0.2,0.1-0.3c0.1-0.4,0-0.7,0-1.1c-0.1-0.4-0.1-0.7-0.2-1.1c0-0.3,0-0.5-0.1-0.8c0.3,0,0.6-0.1,0.9-0.2
			c1-0.2,2-0.5,3.1-0.8C79,89.1,80,88.8,81,88.4z M70.8,90.6c0,0,0,0.1,0,0.1c-0.2-0.1-0.4-0.1-0.5-0.2c0.1-0.2,0.2-0.4,0.3-0.6
			c0,0,0.1,0.1,0.1,0.1c0,0,0,0,0.1,0C70.7,90.2,70.7,90.4,70.8,90.6z M70.9,84c0,0-0.1,0-0.1,0c0.1-0.1,0.2-0.2,0.3-0.2
			c0,0.1,0,0.2,0,0.3C71,84,70.9,84,70.9,84z M66.2,88.7c0.1-0.1,0.1-0.2,0.2-0.3c0,0.1-0.1,0.2-0.1,0.3
			C66.3,88.7,66.3,88.7,66.2,88.7z"/>
		<path class="st1" d="M57,92.5c0.3,0,0.6-0.1,0.8-0.2c0.3-0.1,0.5-0.4,0.6-0.6c0.1-0.2,0.2-0.4,0.3-0.6c0-0.1,0.1-0.2,0.1-0.3
			c0.2-0.4,0.4-0.9,0.5-1.3c0.1-0.4,0.3-0.7,0.4-1.1c0.1-0.3,0.1-0.6,0-0.9c-0.1-0.3-0.2-0.5-0.4-0.6c-0.2-0.2-0.5-0.3-0.7-0.4
			c-0.2-0.1-0.3-0.1-0.5-0.1c-0.3-0.1-0.6-0.1-0.9-0.1c-0.9-0.1-1.7-0.1-2.6-0.1c-0.1,0-0.2,0-0.3,0c-0.1,0-0.2,0-0.3,0
			c-0.9-0.1-1.8-0.3-2.7-0.5c-0.4-0.1-0.9-0.2-1.3-0.3c0,0-0.1,0-0.1,0c-0.3-0.2-0.7-0.4-1-0.6c-0.3-0.2-0.5-0.5-0.7-0.7
			c-0.1-0.1-0.1-0.2-0.1-0.2c-0.1-0.2-0.3-0.4-0.5-0.5c0-0.3,0-0.6,0.1-1c0.1-0.8,0.3-1.6,0.6-2.4c0.1-0.4,0.3-0.9,0.5-1.3
			c1.2,0.2,2.3,0.4,3.5,0.6c0.1,0,0.2,0,0.3,0c0.1,0,0.2,0,0.3,0c0.1,0,0.2-0.1,0.3-0.1c0.2-0.1,0.4-0.3,0.4-0.4
			c0.1-0.1,0.1-0.3,0.2-0.4c0,0,0-0.1,0-0.1c0-0.1,0.1-0.3,0-0.4c0-0.2,0-0.3-0.1-0.5c0-0.1,0-0.3-0.1-0.4c-0.1-0.5-0.2-0.9-0.4-1.4
			c-0.2-0.9-0.5-1.8-0.8-2.7c-0.3-0.9-0.6-1.7-1-2.6c-0.1-0.4-0.3-0.7-0.4-1.1c-0.1-0.2-0.2-0.4-0.3-0.7c-0.1-0.2-0.2-0.4-0.3-0.5
			c-0.1-0.1-0.2-0.2-0.4-0.3c-0.2-0.2-0.5-0.2-0.8-0.2c0,0-0.1,0-0.1,0c-0.3,0-0.6,0.1-0.8,0.3c-0.1,0-0.2,0.1-0.3,0.2
			c-0.4,0.3-0.9,0.6-1.3,1c-0.7,0.6-1.4,1.2-1.9,1.9c-0.6,0.7-1.3,1.5-1.9,2.1c-0.6,0.7-1.3,1.3-1.9,2c-0.2,0.2-0.4,0.4-0.5,0.6
			c-0.1,0.2-0.2,0.3-0.2,0.5c-0.1,0.5,0.1,1,0.5,1.3c0.2,0.1,0.4,0.2,0.6,0.1c0.1,0,0.1,0,0.1,0c0.2,0.1,0.5,0.2,0.7,0.2
			c0.3,0.1,0.5,0.1,0.8,0.2c-0.1,0.3-0.2,0.6-0.3,0.9c-0.4,1-0.7,1.9-1.1,2.9c-0.3,0.9-0.6,1.9-0.7,2.8c-0.1,0.6-0.2,1.2-0.1,1.9
			c0.1,0.4,0.2,0.8,0.4,1.2c0.1,0.2,0.3,0.5,0.5,0.7c0.2,0.2,0.4,0.3,0.6,0.5c0.2,0.2,0.5,0.3,0.8,0.5c0,0,0.1,0.1,0.1,0.1
			c0.4,0.3,0.9,0.6,1.5,0.8c0.9,0.3,1.8,0.5,2.7,0.7c0.9,0.2,1.9,0.5,2.8,0.8c0.9,0.3,1.8,0.5,2.7,0.7c1,0.2,2,0.4,3,0.5
			C56.4,92.5,56.7,92.5,57,92.5z M44.4,84.7c0-0.2,0-0.4,0-0.6c0.1,0.2,0.2,0.3,0.2,0.5c-0.1,0.1-0.1,0.3-0.2,0.4
			C44.5,84.9,44.5,84.8,44.4,84.7z M49.4,70.4c0,0,0.1-0.1,0.1-0.1c0.1,0.2,0.1,0.4,0.2,0.5c0,0,0,0,0,0c0,0,0,0,0,0
			c0,0-0.1-0.1-0.1-0.1c-0.1-0.1-0.2-0.1-0.4-0.1C49.2,70.6,49.3,70.5,49.4,70.4z"/>
		<path class="st1" d="M62.7,57.5c0.3,0.1,0.7,0.2,1,0.3c1.2,0.6,2.3,1.4,3.3,2.2c0.4,0.3,0.8,0.7,1.1,1.1c-0.3,0.3-0.6,0.5-0.9,0.8
			c-0.2,0.2-0.4,0.4-0.5,0.6c-0.1,0.1-0.2,0.3-0.2,0.5c-0.1,0.4,0,0.8,0.3,1.2c0.3,0.3,0.7,0.4,1,0.5c0.3,0.1,0.5,0.2,0.8,0.3
			c0.5,0.2,0.9,0.4,1.4,0.6c0.1,0.1,0.3,0.1,0.5,0.2c0.5,0.3,1,0.5,1.5,0.8c0.5,0.2,0.9,0.4,1.3,0.7c0.4,0.2,0.8,0.5,1.2,0.8
			c0.2,0.1,0.3,0.2,0.5,0.3c0.1,0.1,0.2,0.1,0.3,0.2c0.4,0.3,1,0.3,1.4,0.1c0.2-0.1,0.4-0.3,0.5-0.5c0.1-0.2,0.2-0.3,0.2-0.5
			c0.1-0.1,0.1-0.3,0.1-0.4c0.1-0.3,0.1-0.7,0.1-1c0.1-1,0.1-2,0.1-2.9c0-1,0-1.9,0-2.9c0-0.9,0-1.8,0-2.8c0-0.5,0-1-0.1-1.4
			c-0.1-0.4-0.3-0.7-0.7-1c-0.2-0.1-0.5-0.2-0.7-0.2c0,0,0,0-0.1,0c-0.4,0-0.7,0.1-1,0.3c-0.2,0.1-0.4,0.2-0.6,0.4
			c-0.3,0.2-0.5,0.4-0.8,0.6c-0.4,0.3-0.8,0.6-1.2,0.9c-0.1,0.1-0.3,0.2-0.4,0.3c-0.2-0.3-0.4-0.6-0.5-0.9c-0.6-0.9-1.2-1.9-1.9-2.9
			c-0.7-0.9-1.5-1.6-2.5-2.2c-0.9-0.6-1.8-1-2.7-1.5c-0.5-0.2-1-0.5-1.5-0.6c-0.4-0.1-0.8-0.1-1.3-0.2c-0.1,0-0.2,0-0.3,0
			c-1.2,0-2.4,0.4-3.4,1.1c-0.5,0.3-0.9,0.6-1.4,1c-0.4,0.3-0.7,0.6-1.1,1c-0.8,0.9-1.4,1.9-2.1,2.8c-0.6,0.9-1.3,1.7-1.9,2.6
			c-0.3,0.4-0.6,0.8-0.8,1.3c-0.3,0.5-0.6,1-0.8,1.5c-0.2,0.5-0.5,1.1-0.7,1.6c-0.1,0.2-0.1,0.4-0.2,0.6c0,0.1,0,0.1,0,0.2
			c0,0.1,0,0.3-0.1,0.4c0,0.3,0.1,0.4,0.2,0.7c0.2,0.4,0.6,0.7,0.9,0.8c0.3,0.2,0.7,0.3,1,0.4c0.2,0.1,0.5,0.1,0.7,0.2
			c0.2,0,0.4,0.1,0.6,0.1c0.4,0,0.8-0.2,1.1-0.5c0.4-0.4,0.6-0.9,0.8-1.3c0.2-0.4,0.5-0.9,0.7-1.3c0.4-0.9,0.9-1.7,1.5-2.5
			c0.4-0.5,0.9-0.9,1.4-1.3c0.4-0.3,0.8-0.5,1.3-0.7c0.6-0.2,1.2-0.4,1.9-0.5C61.5,57.5,62.1,57.5,62.7,57.5z M75.2,63.7
			C75.2,63.7,75.2,63.7,75.2,63.7c-0.1,0-0.2,0-0.2,0c0,0,0-0.1,0-0.1c0-0.1,0.1-0.1,0.1-0.2c0,0,0.1-0.1,0.1-0.1
			C75.2,63.4,75.2,63.6,75.2,63.7z M75,61.7c0-0.1,0-0.1,0.1-0.2c0,0,0-0.1,0-0.1c0.1-0.2,0.1-0.4,0.2-0.5c0,0.3,0,0.5,0,0.8
			c0,0.3,0,0.5,0,0.8c0-0.1-0.1-0.1-0.1-0.1c-0.1-0.1-0.1-0.1-0.2-0.1C75,62,75,61.8,75,61.7z M69.4,62.9
			C69.3,62.9,69.3,62.9,69.4,62.9C69.3,62.9,69.3,62.9,69.4,62.9C69.4,62.9,69.4,62.9,69.4,62.9z M71.4,63.8c0.1,0,0.2,0,0.3-0.1
			c0,0.1,0.1,0.1,0.1,0.2C71.6,63.9,71.5,63.9,71.4,63.8z M73.8,59.7C73.7,59.7,73.7,59.7,73.8,59.7C73.7,59.8,73.7,59.7,73.8,59.7
			L73.8,59.7z"/>
	</g>
</g>
</svg>
