<?xml version="1.0" encoding="utf-8"?>
<!-- Generator: Adobe Illustrator 26.0.0, SVG Export Plug-In . SVG Version: 6.00 Build 0)  -->
<svg version="1.1" id="Layer_1" xmlns="http://www.w3.org/2000/svg" xmlns:xlink="http://www.w3.org/1999/xlink" x="0px" y="0px"
	 viewBox="0 0 149 229" style="enable-background:new 0 0 149 229;" xml:space="preserve">
<style type="text/css">
	.st0{fill:#004D8F;}
	.st1{fill:#48AC4D;}
	.st2{fill:#FFFFFF;}
</style>
<g>
	<g>
		<path class="st0" d="M140.4,178.5c0-3.1,0-6.4-0.1-9.6c0-1-0.1-2-0.1-3.1c-0.1-2.2-0.1-4.6-0.3-6.8c0-0.5-0.1-1-0.1-1.5
			c-0.1-1.1-0.2-2.3-0.3-3.5c-0.1-1.5-0.2-3.1-0.2-4.6l0-0.3l0-0.9c-0.1-3-0.3-6.1-0.5-9.1c-0.1-1-0.2-2.1-0.4-3.1
			c-0.1-0.6-0.1-1.1-0.2-1.7c-0.1-0.6-0.1-1.2-0.2-1.8c-0.1-1-0.2-2.1-0.4-3.1c-0.2-1.9-0.5-3.6-0.9-5.3c-0.3-1.5-0.6-3-1-4.4
			l-0.1-0.5c-0.2-1-0.4-1.7-0.6-2.4c-0.2-0.8-0.5-1.6-0.8-2.4c-0.5-1.5-1.2-2.9-1.9-4.3l-0.1-0.2c-0.5-1.2-1.2-2.5-2-3.7
			c-0.4-0.6-0.8-1.2-1.4-1.8c0,0-0.1-0.1-0.1-0.1c-0.2-0.7-0.6-1.4-1-2c-0.4-0.6-1-1.2-1.6-1.7c-0.5-0.5-1.1-0.9-1.8-1.2
			c-0.5-0.2-1.1-0.4-1.7-0.6c-0.1,0-0.2,0-0.2,0c0.5-0.4,1-0.9,1.5-1.4c0.7-0.4,1.3-0.9,1.8-1.5c0.7-0.7,1.2-1.5,1.7-2.3
			c0.4-0.6,0.7-1.2,1.1-2.1c0.7-1.6,1.3-3.2,1.8-4.8c0.3-0.8,0.5-1.6,0.7-2.3c0.2-0.9,0.3-1.9,0.5-2.8c0.2-1.5,0.3-3,0.5-4.4
			l0.1-0.7c0.2-1.6,0.3-3.2,0.3-4.7c0-1.3-0.1-2.6-0.2-3.9c0-0.3-0.1-0.6-0.1-0.9c-0.1-1.1-0.2-2.1-0.2-3.2c0-0.5-0.1-1.1-0.1-1.6
			c-0.1-1.7-0.2-3.5-0.6-5.2c-0.4-1.9-0.9-3.4-1.6-4.6c-0.7-1.4-1.7-2.7-2.9-3.7c-0.2-0.2-0.3-0.4-0.5-0.6c-0.6-0.7-1.2-1.4-1.9-2
			c-0.6-0.5-1.2-0.9-1.8-1.2c-0.9-0.5-1.7-0.9-2.4-1.2c-1.3-0.5-2.7-0.8-4-1.1l-0.3-0.1c-1.1-0.3-2.1-0.5-3.2-0.7
			c-0.9-0.2-1.7-0.3-2.6-0.5c-0.9-0.2-1.9-0.4-2.9-0.7c-0.8-0.2-1.5-0.5-2.3-0.8c-1.2-0.6-2.1-1.1-2.9-1.7c-0.1-0.1-0.2-0.3-0.3-0.4
			c-0.3-0.5-0.5-0.9-0.8-1.4c-0.2-0.5-0.3-1-0.5-1.7c-0.1-0.5-0.3-1.1-0.4-1.8c-0.1-0.8-0.1-1.5-0.2-2.3l0-0.4c0-0.1,0-0.2,0-0.3
			c0-0.4,0-0.9-0.2-1.3c-0.1-0.4-0.3-0.8-0.6-1.1c-0.3-0.3-0.7-0.5-1.1-0.7c-0.3-0.1-0.6-0.1-0.9-0.2c-0.1,0-0.1,0-0.2,0l0.3,0.1
			l0,0c-0.7-0.1-1.4-0.2-2.3-0.2c-0.1,0-0.3,0-0.4-0.1c-0.5-0.1-1-0.1-1.5-0.1c-0.5,0-1.1,0-1.6,0c-0.1,0-0.2,0-0.3,0
			c-0.4,0-0.8,0-1.2,0c-1.1,0-2.2,0-3.3,0c-1.2,0-2.3,0-3.5,0.1c-1.2,0-2.3,0-3.5,0.1c-0.6,0-1.2,0-1.8,0c-0.6,0-1.2,0-1.8,0.1
			c-1.2,0-2.4,0.1-3.5,0.1c-1.2,0-2.5,0.1-3.7,0.1c-1.2,0-2.4,0.1-3.6,0.2c-1.2,0.1-2.4,0.1-3.6,0.2c-1.2,0-2.4,0.1-3.5,0.1
			c-0.6,0-1.2,0-1.8,0.1c-0.5,0-1.1,0-1.6,0c-1.2,0-2.3,0.1-3.5,0.1c-0.6,0-1.2,0-1.7,0c-0.6,0-1.1,0-1.7,0.1c-0.5,0-0.9,0-1.4,0.1
			c-0.1,0-0.2,0-0.4,0c-0.2,0-0.4,0-0.6,0l-0.1,0c-0.3,0-0.5,0-0.8,0.1c-0.5,0.2-1,0.6-1.4,1.2c-0.4,0.7-0.6,1.5-0.7,2.3l0,0.2
			c-0.2,1.4-0.5,2.7-1,4c-0.2,0.6-0.5,1-0.8,1.5c-0.2,0.3-0.5,0.6-0.8,0.9c-0.6,0.4-1.2,0.8-2,1.2c-0.3,0.1-0.6,0.3-1,0.4
			c-0.8,0.2-1.7,0.4-2.5,0.6l-0.3,0.1C32.4,40,31,40.5,29.5,41c-0.6,0.2-1.3,0.5-2,0.7c-0.7,0.3-1.5,0.5-2.3,0.8
			c-1,0.4-1.7,0.7-2.4,1.1c-0.8,0.4-1.4,1-2,1.4c-1.2,1-2.2,2.5-3,3.8c-0.4,0.6-0.7,1.3-1,1.9l0,0.1l-0.2,0.4
			c-0.3,0.6-0.6,1.2-0.9,1.8c-0.7,1.4-1.5,3-2.1,4.6c-0.6,1.5-1,3.2-1.3,4.6l0,0.1c-0.4,1.5-0.8,3-1.2,4.6c-0.1,0.4-0.2,0.8-0.3,1.2
			c-0.3,1.1-0.7,2.3-0.9,3.5c-0.4,1.8-0.6,3.7-0.7,5.3c-0.1,1.5-0.2,3.1-0.3,4.9c0,1.4-0.1,3.1,0,4.7c0,0.8,0,1.6,0.1,2.4
			c0,0.8,0.1,1.7,0.3,2.8c0.1,0.9,0.3,1.7,0.6,2.4c0.3,0.9,0.7,1.8,1.2,2.5c0.5,0.9,1,1.5,1.5,2.1c0.6,0.6,1.2,1.2,1.9,1.7
			c0.7,0.6,1.5,1.1,2.3,1.5c-0.2,0.1-0.3,0.1-0.5,0.2c-0.6,0.3-1.2,0.5-1.7,0.9c-0.4,0.4-0.7,0.8-1,1.2c-0.2,0.3-0.3,0.6-0.5,0.8
			c-1.3,1.4-2.2,3-3.1,4.7C8.3,113,7,116.4,6,120.2c-0.4,1.5-0.8,3.2-1.3,5.3c-0.4,1.6-0.8,3.6-1.2,5.5c-0.4,2-0.8,4-1.1,6
			c-0.2,1.5-0.4,3-0.6,4.4l-0.1,1.1c-0.1,1-0.3,2-0.4,2.9c-0.1,0.8-0.2,1.6-0.3,2.4c-0.3,2-0.4,3.9-0.4,5.4c-0.1,3-0.1,6-0.1,8.9
			c0,0.7,0,1.5,0,2.2c0,1.2,0,2.4,0,3.6c0,2.4-0.1,5,0,7.4c0,1.6,0.1,3.6,0.2,5.7c0.1,1.3,0.2,2.6,0.4,3.9c0.1,0.5,0.1,1,0.2,1.5
			c0.2,1.7,0.3,3.5,0.5,5.2l0,0.3c0.1,1.5,0.3,3,0.5,4.4l0.1,0.8c0.1,1,0.2,1.9,0.3,2.9c0.3,2.7,0.6,5.6,1.2,8.4
			c0.3,1.7,0.7,3.5,1.1,5.2l0.1,0.4c0.1,0.3,0.1,0.6,0.2,0.9c0.1,0.6,0.2,1.2,0.4,1.7c0.1,0.6,0.2,1,0.4,1.4c0.1,0.5,0.4,1,0.7,1.6
			c0.1,0.4,0.3,0.7,0.7,1.1c0.7,0.7,1.5,1.3,2.5,2l0.1,0.1c0.9,0.6,1.8,1.2,2.8,1.7c2.1,1,4.5,1.4,6.8,1.9c2.4,0.4,4.9,0.8,7.4,1
			c2,0.2,4.3,0.4,6.5,0.5c1.9,0.1,3.8,0.2,5.7,0.2l1.5,0l2.1,0.1c1.7,0,3.3,0.1,5,0.1c4.9,0.1,9.9,0.2,14.2,0.2c2,0,4,0,6,0
			c3.2,0,5.9,0,8.4-0.1c1,0,2.1,0,3.1-0.1c1.3,0,2.5-0.1,3.8-0.1c0.7,0,1.5,0,2.2,0c1.7,0,3.4-0.1,5.1-0.1c4.2-0.1,8.5-0.4,12.6-0.7
			l1.2-0.1c1.7-0.1,3.5-0.2,5.2-0.3l1.7-0.1c1.4-0.1,2.8-0.2,4.1-0.3c0.6-0.1,1.2-0.1,1.8-0.1c1.2-0.1,2.6-0.2,3.9-0.5
			c0.9-0.2,1.9-0.5,2.7-0.9c1.5-0.6,2.5-1.5,3.4-2.4l0,0c0.2-0.2,0.4-0.3,0.5-0.5c0,0,0.1-0.1,0.1-0.1c0.3-0.3,0.7-0.7,1-1.1
			c0-0.1,0.1-0.1,0.1-0.2c0.1-0.1,0.2-0.1,0.2-0.2c0.4-0.4,0.8-0.8,1.2-1.1c0.5-0.5,0.8-1,1.2-1.5l0.1-0.2c0.4-0.6,0.9-1.2,1.3-1.9
			c0.5-0.9,0.9-1.7,1.3-2.5c0.3-0.7,0.6-1.5,0.9-2.3c0.5-1.4,1-2.8,1.5-4.3c0.5-1.4,0.8-2.8,1.2-4.5c0.3-1.6,0.6-3.3,0.9-5.1
			c0.1-0.8,0.2-1.6,0.4-2.4c0.1-0.7,0.2-1.4,0.3-2.2c0.1-0.5,0.1-0.9,0.2-1.4c0.2-1.1,0.4-2.2,0.5-3.4c0.2-1.6,0.4-3.2,0.5-4.8
			c0-1.3,0-2.6,0-3.8L140.4,178.5z M54.8,38.3c-0.6,0.6-1.3,0.9-2.4,0.8c-0.3-0.1-0.8-0.3-1.2-0.5c-0.5-0.3-0.8-1.2-0.6-1.7
			c0.4-1.1,1.4-1.9,2.6-1.9c0.9,0,1.6,0.3,2,1.1C55.7,36.7,55.5,37.7,54.8,38.3z M62.6,49.8c-0.5,0.1-1,0-1.5-0.1
			c-0.9-0.2-1.5-0.7-1.7-1.6c-0.5-1.9,0.3-3.8,2-4.7c1.8-1,4.3,0.4,4.5,2.5C66.1,47.6,64.4,49.6,62.6,49.8z M77.4,38.9
			c-0.2,1.7-0.7,3.3-2.4,4.1c-0.6,0.3-1.3,0.4-1.9,0.4c-1.9-0.1-3-1.4-3.1-3.3c-0.1-1.9,0.4-3.6,1.7-5.1c0.6-0.7,1.8-1,2.7-0.7
			C76.7,35.1,77.6,36.5,77.4,38.9z M88.8,35.9c-0.6-1.2-0.2-2.6,1.1-3.5c0.9-0.7,2.3-0.4,3.1,0.6c0.3,0.4,0.4,0.9,0.5,1.2
			c-0.1,1.5-1.2,2.6-2.6,2.9C90.2,37.2,89.1,36.6,88.8,35.9z M93.5,223c-0.2,0.4-1,0.6-1.5,0.5c-0.7-0.2-1.2-0.6-1.6-1.2
			c-0.2-0.3-0.3-0.9,0-1.1c0.2-0.2,0.5-0.3,0.7-0.3c0.8-0.1,1.6,0.1,2.2,0.7C93.6,221.9,93.7,222.6,93.5,223z M102.5,209.2
			c-0.4-0.1-0.7-0.3-1-0.4c-0.1-0.2-0.3-0.3-0.3-0.4c0-0.2-0.1-0.5,0-0.7c0.1-0.2,0.4-0.3,0.6-0.3c0.6-0.1,1,0.2,1.3,0.7
			c0.1,0.2,0.2,0.5,0.2,0.7C103.4,209.1,102.9,209.4,102.5,209.2z M111.7,217c-0.3,0.2-0.7,0.6-1.1,0.8c-0.4,0.2-0.8,0.3-1.2,0.2
			c-1.3-0.1-2.5-1.4-2.6-2.7c0-0.4,0-0.8,0-1.2c0.2-1.5,1.1-2.4,2.6-2.6c1.9-0.3,3.4,1.1,3.3,3.1C112.6,215.5,112.3,216.2,111.7,217
			z M120.5,221.1c-0.8,0.4-1.5,0.1-2.1-0.6c-0.2-0.3,0-0.8,0.4-1c0.7-0.2,1.3-0.2,1.8,0.3C121.1,220.1,121,220.8,120.5,221.1z"/>
		<path class="st0" d="M106.9,27.7c-1.1,1.3-1.4,2.8-0.9,4.4c0.5,1.7,2,2.9,3.7,2.9c1.9,0,3.4-0.7,4.4-2.4c0.1-0.2,0.1-0.4,0.2-0.6
			c0.6-2-0.7-4.5-2.4-5.2c-1.4-0.6-2.9-0.4-4.3,0.3C107.3,27.3,107.1,27.5,106.9,27.7z"/>
		<path class="st0" d="M113.2,21.3c0.7,0,1.3-0.7,1.4-1.3c0.1-1-0.5-1.9-1.5-2.2c-0.3-0.1-0.6,0-0.8,0c-0.3,0.2-0.5,0.4-0.7,0.6
			c-0.7,0.7-0.6,1.7,0.1,2.3C112,21.1,112.5,21.3,113.2,21.3z"/>
		<path class="st0" d="M108.7,1.5c0.3-0.2,0.2-0.8,0-1c-0.6-0.4-1.4-0.3-1.8,0.3c-0.1,0.1,0,0.4,0,0.5C107.3,1.9,108.2,2,108.7,1.5z
			"/>
		<path class="st0" d="M106,11.9c0.2,0.2,0.5,0.3,0.8,0.4c0.8,0.4,2.1,0,2.6-0.8c0.2-0.2,0.3-0.5,0.3-0.8c0-0.4-0.1-0.8-0.1-1
			c-0.3-0.7-0.6-1.2-1.2-1.5c-1.2-0.8-2.6-0.3-3.1,1C104.9,10.4,105.1,11.2,106,11.9z"/>
		<path class="st0" d="M105.5,25.2c0.5-0.1,0.9-0.3,1.3-0.6c0.2-0.2,0.4-0.8,0.2-1.1c-0.1-0.3-0.7-0.5-1-0.4c-0.6,0.2-1,0.6-1.2,1.2
			c-0.1,0.2-0.1,0.4,0,0.6C104.8,25.1,105.2,25.2,105.5,25.2z"/>
		<path class="st0" d="M114.1,6.6c0.7-0.1,1.1-0.5,1.1-1.1c0-0.4-0.4-0.7-0.8-0.5c-0.5,0.2-0.7,0.6-0.8,1.1
			C113.6,6.3,113.8,6.7,114.1,6.6z"/>
		<path class="st1" d="M129.4,98.8c0.4,1.7,1.4,2.9,2.8,3.9c1.4,0.9,2.9,0.8,4-0.5c0.4-0.4,0.6-1,0.7-1.6c0.3-1.7-0.6-2.8-1.7-3.9
			c-1.6-1.4-3.1-1.5-4.9-0.3C129.6,96.9,129.2,98,129.4,98.8z"/>
		<path class="st1" d="M139.2,116.2c0.8,0.3,1.5,0.1,2.1-0.4c0.3-0.3,0.6-0.7,0.8-1.1c0.8-1.4,0.2-3.6-1.1-4.4
			c-1.6-0.9-3.9,0.1-4.2,2C136.6,114,137.6,115.5,139.2,116.2z"/>
		<path class="st0" d="M143.6,123.8c-0.5-0.1-0.9-0.3-1.4-0.3c-1.5-0.2-2.7,0.8-2.8,2.2c-0.1,0.9,0.1,1.8,0.7,2.5
			c0.7,0.8,2,1,2.9,0.5c1.4-0.8,1.9-2.4,1.4-3.9C144.2,124.5,143.8,124.2,143.6,123.8z"/>
		<path class="st0" d="M145.7,100.3c-0.3-0.1-0.7-0.3-1.1-0.3c-1.2,0.1-2.1,0.9-2.1,1.9c0,1.4,0.8,2.4,2,2.6
			c0.7,0.1,1.7-0.3,1.9-0.8C147,102.6,146.7,101.2,145.7,100.3z"/>
		<path class="st0" d="M148.4,108.7c-0.3-0.4-1.3-0.5-1.6,0c-0.6,0.8-0.5,2.1,0.4,2.8c0.2,0.1,0.5,0,0.8,0.1
			C148.9,110.9,149,109.5,148.4,108.7z"/>
		<path class="st0" d="M31.7,23.5c1.3,0.5,2.5,0.2,3.1-1c0.2-0.4,0.3-0.9,0.3-1.4c0-1.4-0.9-2.2-2-2.8c-1.5-0.9-2.7-0.7-4,0.6
			c-0.5,0.5-0.7,1.4-0.4,2C29.4,22.1,30.4,23,31.7,23.5z"/>
		<path class="st1" d="M34.3,28.1c-1.5-0.5-3.1,0.7-3,2.2c0.1,1.4,1.1,2.5,2.5,2.8c0.6,0.1,1.2-0.1,1.6-0.7c0.2-0.3,0.4-0.6,0.5-1
			C36.3,30.2,35.5,28.5,34.3,28.1z"/>
		<path class="st0" d="M34.6,9.8c0.6,0,1.3-0.5,1.4-1c0.3-1-0.2-2.1-1.1-2.6c-0.2,0-0.6-0.1-0.9-0.1c-1,0.2-1.5,1.1-1.4,1.9
			C32.8,9.1,33.6,9.8,34.6,9.8z"/>
		<path class="st1" d="M25,35.6c0.3-0.2,0.5-0.5,0.7-0.6c0.3-0.7,0.4-1.2,0.2-1.8c-0.2-0.6-0.8-1-1.4-1c-0.7,0-1.1,0.4-1.4,1
			c-0.3,0.8-0.1,1.7,0.5,2.3C24,35.7,24.6,35.8,25,35.6z"/>
		<path class="st1" d="M40.2,17.9c0,0.5,0,1.1,0,1.7c0.1,0.8,0.1,1.6,0.3,2.5c0,0.3,0.1,0.5,0.2,0.7c0.1,0.3,0.2,0.5,0.3,0.8
			l0.1,0.1c0.1,0.1,0.2,0.3,0.3,0.4c0.3,0.3,0.6,0.4,0.9,0.6c0.4,0.2,0.8,0.2,1.2,0.3l0.1,0c0.4,0,0.7,0.1,1.1,0.1
			c0.3,0,0.6,0,0.8,0c1.2,0,2.4-0.1,3.6-0.1l0.8,0c1.2-0.1,2.5-0.1,3.7-0.2c1.1-0.1,2.1-0.2,3.2-0.3c0.4,0,0.9-0.1,1.3-0.1
			c3.4-0.3,6.2-0.5,8.8-0.5c1.7-0.1,3.4-0.1,5.1-0.1c1.2,0,2.4,0,3.7-0.1c0.8,0,1.7,0,2.5,0c0.6,0,1.3,0,1.9,0
			c1.1,0,2.3-0.1,3.4-0.1l0.9,0c2.2-0.1,4.5-0.2,6.7-0.2l1.6-0.1c1.5,0,2.8-0.2,4-0.4c0.7-0.2,1.4-0.6,1.8-1.1
			c0.3-0.3,0.5-0.6,0.6-1c0.2-0.4,0.4-0.8,0.5-1.3l0.1-0.2c0.3-0.8,0.5-1.6,0.6-2.4c0-0.2,0.1-0.4,0.1-0.6c0.2-0.7,0.2-1.4,0.3-1.9
			c0-0.2,0-0.4,0.1-0.6c0-0.2,0-0.5,0.1-0.7l0,0.1l0,0.1c0.2-1.4,0.3-2.9,0.3-4.3c0-1.2,0.1-2.6-0.9-3.4c-0.2-0.2-0.4-0.3-0.6-0.4
			c-0.2-0.1-0.4-0.2-0.6-0.3c-0.2-0.1-0.3-0.1-0.5-0.1c-0.4-0.1-0.8-0.1-1.2-0.2l-0.2,0c-2.6-0.3-5.2-0.4-7.8-0.4l-1,0
			c-0.3,0-0.5,0-0.8,0c-2.6,0-5.3,0.1-8.1,0.2C76.7,4.5,73.8,4.8,71,5l-0.5,0C67.8,5.3,65,5.6,62,6l-1,0.1c-1.1,0.1-2.2,0.3-3.2,0.4
			c-1.1,0.1-2.1,0.3-3.2,0.5c-0.4,0.1-0.8,0.1-1.2,0.2c-1.1,0.2-2.2,0.3-3.2,0.4l-0.7,0.1c-1.3,0.2-2.6,0.3-3.9,0.4l-0.3,0
			c-0.7,0.1-1.5,0.2-2.4,0.3c-0.3,0.1-0.6,0.1-1,0.2c-0.4,0.1-0.7,0.1-1,0.4c-1,0.7-1.2,2.2-1.2,3.3c0,0.7,0.1,1.5,0.1,2.2
			C39.9,15.4,40,16.6,40.2,17.9z M96.1,19.9c0-0.1,0-0.3,0-0.4c0-0.3,0-0.5,0-0.8c0-0.5,0.1-1.1,0.1-1.6c0.1-1.1,0.2-2.2,0.3-3.3
			c0.1-1.2,0.2-2.3,0.3-3.5C96.9,9.7,97,9.1,97,8.5c0.1-0.6,0.1-1.2,0.2-1.8c0-0.2,0-0.3,0.2-0.4c0.1-0.1,0.2-0.2,0.4-0.2
			c0.1,0,0.3,0.1,0.4,0.2c0.1,0.1,0.2,0.3,0.2,0.4c-0.1,1.2-0.2,2.4-0.3,3.6c-0.1,1.1-0.1,2.3-0.2,3.4c-0.1,1.1-0.2,2.3-0.3,3.4
			c-0.1,0.6-0.1,1.1-0.2,1.7c0,0.3-0.1,0.5-0.1,0.8c0,0.1,0,0.3,0,0.4c0,0.1,0,0.2,0,0.3c0,0.1-0.1,0.2-0.1,0.3
			c-0.1,0.1-0.1,0.1-0.2,0.1l0,0c0,0-0.1,0-0.1,0h0c-0.2,0-0.4-0.2-0.4-0.4C96.1,20.2,96.1,20,96.1,19.9z M93.1,19.7
			c0-0.3,0-0.5,0-0.8c0-0.6,0.1-1.2,0.1-1.8c0.1-1.2,0.1-2.3,0.2-3.4c0.1-1.2,0.2-2.3,0.3-3.5c0.1-1.2,0.2-2.5,0.3-3.7
			c0-0.2,0-0.3,0.2-0.4c0.1-0.1,0.2-0.2,0.4-0.2c0.1,0,0.3,0.1,0.4,0.2c0.1,0.1,0.2,0.3,0.1,0.4c-0.1,1.2-0.2,2.3-0.3,3.5
			c-0.1,1.1-0.1,2.3-0.2,3.4c-0.1,1.2-0.2,2.4-0.2,3.6c0,0.6-0.1,1.2-0.1,1.7c0,0.3,0,0.6-0.1,0.9c0,0.1,0,0.3,0,0.4
			c0,0.3,0,0.5-0.2,0.7c-0.2,0.2-0.4,0.2-0.6,0.1C93,20.6,93,20,93.1,19.7z M90,18.6c0-0.6,0-1.1,0-1.7c0-1.2,0.1-2.3,0.2-3.5
			c0.1-1.3,0.2-2.5,0.2-3.8c0-0.6,0.1-1.2,0.1-1.8c0-0.7,0.1-1.3,0.2-1.9c0-0.1,0.1-0.3,0.2-0.3c0.1-0.1,0.2-0.1,0.3-0.1
			c0,0,0.1,0,0.1,0c0.1,0,0.2,0.1,0.3,0.3c0.1,0.1,0.1,0.3,0.1,0.5c0,0.1,0,0.2,0,0.3c-0.1,0.5-0.1,1.1-0.1,1.6c0,0.5,0,1.1,0,1.6
			c0,1.1-0.1,2.2-0.1,3.3c-0.1,1.2-0.2,2.5-0.2,3.7c0,0.6-0.1,1.2-0.1,1.8c0,0.3,0,0.6-0.1,0.9c0,0.3,0,0.7-0.1,1
			c0,0.1-0.1,0.2-0.2,0.3c-0.1,0-0.1,0.1-0.2,0.1c-0.1,0-0.3-0.1-0.4-0.2c0-0.1-0.1-0.2-0.1-0.3c0-0.1,0-0.2,0-0.3
			c0-0.1,0-0.3,0-0.4C90,19.2,90,18.9,90,18.6z M87,19.8c0-1.1,0.1-2.2,0.2-3.3c0-1.1,0.1-2.2,0.1-3.4c0-1.1,0-2.3,0.1-3.4
			c0-0.5,0-1.1,0.1-1.6c0-0.6,0.1-1.2,0.2-1.8c0-0.2,0-0.3,0.2-0.4c0.1-0.1,0.2-0.2,0.4-0.2c0.1,0,0.3,0.1,0.4,0.2
			c0.1,0.1,0.2,0.3,0.2,0.4c-0.1,0.6-0.1,1.2-0.1,1.7c0,0.5,0,1.1-0.1,1.6c0,1.1,0,2.2,0,3.2c0,1.1-0.1,2.2-0.1,3.3
			c0,1.1-0.1,2.3-0.3,3.4c0,0.2,0,0.4-0.1,0.6c0,0.2-0.1,0.4-0.2,0.5c-0.1,0.1-0.2,0.2-0.4,0.2c-0.2,0-0.3-0.1-0.4-0.2
			C87,20.6,87,20.4,87,20.2C87,20.1,87,19.9,87,19.8z M84.3,16.8c0-0.8,0.1-1.6,0.1-2.5c0-0.9,0-1.7,0-2.6c0-0.9,0-1.7,0-2.6
			c0-0.8,0.1-1.7,0.1-2.5c0-0.2,0.2-0.4,0.4-0.4c0.2,0,0.4,0.2,0.4,0.4c0,0.4,0,0.8-0.1,1.3c0,0.4,0,0.8,0,1.1c0,0.7,0,1.5,0,2.2
			c0,0.9,0,1.7,0,2.6c0,0.8,0,1.7-0.1,2.5c0,0.8-0.1,1.6-0.1,2.4c0,0.6-0.1,1.3-0.1,1.9c0,0.1,0.1,0.2,0,0.3c0,0.1,0,0.2-0.1,0.3
			c0,0.1-0.1,0.2-0.2,0.2c-0.1,0-0.2,0-0.3-0.1c0-0.1-0.1-0.1-0.1-0.2c0,0,0-0.1,0-0.2c0,0,0-0.1,0-0.1c0-0.1,0-0.2,0-0.3
			c0-0.2,0-0.4,0-0.5c0-0.4,0-0.7,0-1.1C84.3,18.3,84.3,17.5,84.3,16.8z M81.3,15.3c0-1,0-2,0-2.9c0-2,0-4,0-6
			c0-0.2,0.2-0.5,0.4-0.5c0.2,0,0.4,0.2,0.4,0.5c0,1.1,0,2.1,0,3.2c0,2,0,3.9,0,5.9c0,1,0,1.9,0,2.9c0,0.5,0,1,0,1.5
			c0,0.2,0,0.5,0,0.7c0,0.1,0,0.2,0,0.3c0,0.2,0,0.4-0.2,0.5c-0.1,0.1-0.4,0.2-0.5,0c-0.1-0.1-0.1-0.4-0.2-0.6c0-0.1,0-0.2,0-0.4
			c0-0.2,0-0.5,0-0.7c0-0.5,0-1,0-1.4C81.3,17.2,81.3,16.2,81.3,15.3z M78.3,6.3c0-0.3,0.2-0.6,0.5-0.6c0.3,0,0.5,0.3,0.5,0.6
			c0,0.3,0,0.6,0,0.9c0,1.1,0,2.3,0,3.4c0,1.1,0,2.2,0.1,3.3c0,1.1,0,2.3,0,3.4c0,0.6,0,1.1,0,1.7c0,0.3,0,0.5,0,0.8
			c0,0.1,0,0.3,0,0.4c0,0.1,0,0.3-0.1,0.5C79.2,20.9,79,21,78.8,21c-0.1,0-0.3-0.1-0.4-0.2c-0.1-0.1-0.1-0.2-0.1-0.4
			c0-0.1,0-0.1,0-0.2c0-0.1,0-0.2,0-0.3c0-1.1,0-2.2,0-3.3c0-1.1,0-2.2,0-3.4c0-1.1-0.1-2.2-0.1-3.3C78.2,8.7,78.2,7.5,78.3,6.3z
			 M76,21.2c0,0,0-0.1,0-0.1c0,0,0,0,0,0C76.1,21.1,76,21.2,76,21.2z M75.1,6.8c0-0.3,0.2-0.6,0.5-0.6c0.3,0,0.5,0.3,0.5,0.6
			c0,1.2,0,2.5,0,3.7c0,1.2,0,2.3,0,3.5c0,1.2,0,2.4,0,3.6c0,0.6,0,1.2,0,1.8c0,0.3,0,0.5,0,0.8c0,0.3,0,0.6,0,0.8
			c0,0.2-0.1,0.5-0.3,0.6c0,0,0,0,0,0c-0.2,0.1-0.5-0.1-0.6-0.4c0-0.2,0-0.4,0-0.6c0-0.1,0-0.3,0-0.4c0-0.3,0-0.6,0-0.8
			c0-0.6,0-1.2,0-1.8c0-1.2,0-2.4,0-3.6C75,11.7,75,9.2,75.1,6.8z M72.6,7C72.8,7,73,7.2,73,7.4c0,0.6,0,1.2,0,1.8
			c0,0.6,0,1.2,0.1,1.8c0.1,1.6,0.1,3.2,0.1,4.9c0,0.9,0,1.7,0,2.6c0,0.4,0,0.8,0,1.2c0,0.4,0,0.8,0,1.2c0,0.2-0.1,0.3-0.2,0.3
			c-0.1,0-0.3,0-0.3-0.2c-0.1-0.3-0.1-0.7-0.2-1c0-0.3,0-0.6,0-0.9c0-0.6,0-1.2,0-1.8c0-1.6,0-3.3,0-4.9c0-0.9,0-1.7-0.1-2.6
			c0-0.8,0-1.6-0.1-2.5C72.2,7.2,72.4,7,72.6,7z M69.4,6.9c0.2,0,0.4,0.2,0.4,0.5c0.1,1.1,0.1,2.1,0.2,3.2c0,1.1,0.1,2.2,0.2,3.3
			c0.1,1.1,0.1,2.3,0.1,3.4c0,0.6,0,1.1,0.1,1.7c0,0.3,0,0.5,0,0.8c0,0.1,0,0.3,0,0.4c0,0.1,0,0.3,0,0.4c0,0.3-0.2,0.5-0.4,0.5
			c-0.5,0-0.5-0.7-0.6-1.1c0-0.3,0-0.5-0.1-0.8c0-0.6-0.1-1.1-0.1-1.7c0-1.1-0.1-2.2-0.1-3.3c0-1.2,0-2.3-0.1-3.5
			c0-1.1,0-2.2-0.1-3.3C69,7.1,69.2,6.9,69.4,6.9z M66.1,7.8c0-0.2,0.2-0.4,0.3-0.4c0.2,0,0.4,0.2,0.3,0.4c0,1.1,0,2.2,0,3.2
			c0,0.9,0,1.7,0,2.6c0,0.9,0,1.7,0.1,2.6c0,0.9,0,1.7,0.1,2.6c0,0.4,0,0.9,0,1.3c0,0.2,0,0.4,0,0.7c0,0.1,0,0.2,0,0.3
			c0,0.1,0,0.2,0,0.3c0,0.1,0,0.3-0.1,0.4c0,0,0,0,0,0c-0.1,0.1-0.4,0.2-0.5,0c-0.2-0.2-0.2-0.4-0.2-0.7c0-0.1,0-0.3,0-0.4
			c0-0.2,0-0.5,0-0.7c0-0.5,0-1.1,0-1.6c0-0.8,0-1.7,0-2.5c0-0.9,0-1.7,0-2.6C66,11.4,66,9.6,66.1,7.8z M63,9.7c0-0.5,0-1,0.1-1.5
			c0-0.1,0-0.3,0.1-0.4c0.1-0.1,0.2-0.2,0.3-0.2c0.3,0,0.5,0.2,0.5,0.5c0,0.6-0.1,1.3-0.1,1.9c0,1,0,1.9-0.1,2.9c0,1,0,2,0,3
			c0,1,0,1.9,0,2.9c0,0.5,0,0.9,0,1.4c0,0.4,0,0.8,0,1.2c0,0.1,0,0.1,0,0.2c0,0.1,0,0.1,0,0.2c0,0.2-0.2,0.3-0.3,0.3
			c-0.1,0-0.2-0.1-0.3-0.2c-0.1-0.1-0.1-0.2-0.1-0.3c0-0.1,0-0.1,0-0.2c0-0.1,0-0.3,0-0.4c0-0.3,0-0.6,0-0.9c0-0.9,0-1.9-0.1-2.8
			c0-1,0-2-0.1-3c0-1,0-2,0-2.9C63,10.7,63,10.2,63,9.7z M60.5,7.6c0.3,0,0.5,0.2,0.5,0.5c0.1,2,0.2,4,0.3,6c0,1.2,0.1,2.3,0.1,3.5
			c0,0.6,0,1.1,0,1.7c0,0.6,0,1.1,0,1.7c0,0,0,0,0,0c0.1,0.3-0.1,0.5-0.3,0.6c-0.2,0.1-0.4,0-0.5-0.2c-0.1-0.2-0.1-0.4-0.2-0.7
			c0-0.1,0-0.2,0-0.4c0-0.2,0-0.4,0-0.7c0-0.5,0-1-0.1-1.5c0-1,0-1.9,0-2.9c0-2.4-0.1-4.8-0.3-7.1C60,7.8,60.2,7.6,60.5,7.6z
			 M57.4,8.1c0.2,0,0.3,0.1,0.5,0.2C58,8.5,58,8.6,58,8.8c0.1,0.9,0.1,1.8,0.2,2.7c0.1,0.8,0.1,1.7,0.2,2.5c0.1,1.3,0.1,2.6,0.1,3.9
			c0,0.6,0,1.2-0.1,1.9c0,0.3,0,0.6,0,0.9c0,0.2,0,0.3,0,0.5c0,0.1,0,0.1,0,0.2c0,0,0,0.1,0,0.1c0,0,0,0.1,0,0.1c0,0.1,0,0.1,0,0.2
			c-0.1,0.3-0.4,0.4-0.6,0.3c-0.1-0.1-0.2-0.2-0.2-0.4c0-0.1,0-0.2,0-0.3c0-0.1,0-0.2,0-0.3c0-0.2,0-0.4,0-0.6c0-0.4,0-0.8,0-1.2
			c0-0.9-0.1-1.8-0.1-2.7c-0.1-1.3-0.2-2.6-0.3-3.9c-0.1-1.3-0.2-2.6-0.3-3.9C56.7,8.4,57,8.1,57.4,8.1z M54.3,8.8
			c0.4,0,0.7,0.4,0.7,0.8c0,1.2,0,2.5,0.1,3.7c0,1.4,0.1,2.9,0.1,4.3c0,0.7,0,1.4,0,2.1c0,0.7,0,1.4-0.1,2.1c0,0.2,0,0.3-0.1,0.4
			c-0.1,0.1-0.2,0.2-0.4,0.2c-0.1,0-0.3-0.1-0.4-0.2C54.1,22,54,21.9,54,21.7c-0.1-0.6-0.1-1.2-0.1-1.7c0-0.5,0-1.1,0-1.6
			c0-1.4-0.1-2.9-0.1-4.3c-0.1-1.5-0.1-3-0.1-4.5C53.6,9.1,53.9,8.8,54.3,8.8z M50.9,9c0.2,0,0.3,0.1,0.4,0.2
			c0.1,0.1,0.2,0.3,0.2,0.5c0.1,1.2,0.1,2.3,0.2,3.5c0.1,1.4,0.1,2.9,0.1,4.3c0,0.7,0,1.4,0,2.1c0,0.7,0,1.4,0,2.1
			c0,0.3-0.2,0.5-0.4,0.6c-0.2,0.1-0.5,0-0.6-0.3c-0.1-0.2-0.1-0.4-0.1-0.6c0-0.2,0-0.4-0.1-0.6c0-0.3,0-0.5,0-0.8c0-0.5,0-1,0-1.5
			c0-3-0.1-5.9-0.3-8.9C50.2,9.3,50.6,9,50.9,9z M47.5,9.2c0.4,0,0.7,0.3,0.7,0.7c0,1.1,0.1,2.2,0.2,3.3c0.1,1.4,0.2,2.8,0.3,4.2
			c0,0.7,0.1,1.5,0.1,2.2c0,0.4,0,0.7,0,1.1c0,0.4,0,0.8,0,1.3c0,0.3-0.3,0.6-0.5,0.6c-0.3,0-0.5-0.2-0.5-0.4
			c-0.1-0.3-0.1-0.7-0.2-1.1c0-0.3,0-0.5-0.1-0.8c0-0.5-0.1-1-0.1-1.5c-0.1-1.5-0.2-2.9-0.3-4.4c-0.1-1.5-0.2-3-0.2-4.5
			C46.8,9.5,47.2,9.2,47.5,9.2z M44.6,9.6c0.3,0,0.6,0.3,0.6,0.6c0,0.8,0,1.5,0,2.3c0,0.7,0.1,1.4,0.1,2.1c0.1,1.2,0.1,2.5,0.2,3.7
			c0,0.6,0.1,1.2,0.1,1.9c0,0.3,0,0.6,0.1,0.9c0,0.3,0,0.6,0,1c0,0.2-0.1,0.4-0.3,0.5c-0.2,0.1-0.4,0-0.5-0.2
			c-0.2-0.3-0.2-0.8-0.3-1.2c0-0.4-0.1-0.7-0.1-1.1c-0.1-0.7-0.1-1.4-0.2-2.2c-0.1-1.3-0.1-2.5-0.2-3.8C44,12.8,44,11.5,44,10.2
			C44,9.9,44.3,9.6,44.6,9.6z M41.3,10.6c0-0.3,0.3-0.6,0.6-0.6c0.3,0,0.6,0.3,0.6,0.6c0,1.4,0,2.8,0,4.2c0,1.3,0.1,2.5,0.2,3.8
			c0,0.7,0.1,1.3,0.1,1.9c0,0.3,0,0.6,0.1,0.8c0,0.1,0,0.3,0,0.4c0.1,0.1,0.1,0.3,0.1,0.5c0,0.1,0,0.2-0.1,0.3
			c-0.1,0.2-0.2,0.2-0.3,0.3c-0.1,0.1-0.3,0-0.4-0.1c-0.1-0.1-0.2-0.2-0.2-0.3c-0.1-0.4-0.1-0.8-0.1-1.2c0-0.3-0.1-0.7-0.1-1
			c-0.1-0.7-0.1-1.4-0.2-2.1c-0.1-1.3-0.1-2.5-0.2-3.8C41.3,13.1,41.3,11.8,41.3,10.6z"/>
	</g>
	<g>
		<g>
			<path class="st2" d="M31.1,120.8c0.4-0.1,1-0.3,1.5-0.4c0.5-0.1,0.9,0.1,0.9,0.8c0,2-4.8,1.9-4.8,7.1c0,1.7,0.7,2.3,1.4,2.3
				c0.8-0.1,1.6-1.2,2.3-1.3c0.7-0.1,1,1.1,1,1.9c0,3.8-2.7,5.2-5.7,5.4c-4.4,0.4-5.9-1.2-5.9-3.4c0-2.7,2-6.2,2-7.9
				c0-1.5-2.1-0.1-2.1-1.7c0-1.7,3.5-0.2,5.3-5.6c0.2-0.8,0.8-1.7,1.8-1.8C30.9,116,29.1,121.1,31.1,120.8z"/>
			<path class="st2" d="M47.7,112.7c2.5-0.2,4.1,0.5,4.1,2.7c0,4.1-2.7,5.6-2.7,8.7c0,3.8,2.5,4.4,2.5,9.3c0,2.5-1.9,3.7-4,3.7
				c-2.1,0.1-3.4-1.1-3.4-2.7c0-1.9,1.6-4.2,1.6-6.2c0-1.3-0.8-2.7-2.7-2.6c-1.6,0.1-2.7,1.2-2.7,3.3c0,1,1.2,3.2,1.2,5.2
				c0,2-1.3,3.2-3.5,3.3c-2.1,0.1-3.9-0.7-3.9-2.6c0-4.7,2.2-5,2.2-9.8c0-5.1-2.2-4.7-2.2-7.8c0-2.3,1.7-3.5,4.2-3.8
				c2-0.2,3.8,0.3,3.8,1.8c0,3-2.1,3.2-2.1,5.6c0,1.8,1,2.1,2.5,1.9c2.5-0.2,3.3-1.3,3.3-2.4c0-1.7-2.1-3.2-2.1-5
				C43.8,113.4,46.2,112.8,47.7,112.7z"/>
			<path class="st2" d="M67.1,120.7c0.3,6.8-6.7,6.4-7.8,9.2c-0.2,0.6,1.1,1.4,1.8,1.4c1.6,0,3.3-1.4,3.7-1.8
				c0.8-0.9,1.1-1.7,1.8-1.7c0.4,0,0.6,0.3,0.6,0.7c0,4.8-3.7,6.9-6.9,6.9c-6.3,0-8.4-6.3-8.4-11.7c0-5.6,2.5-10.8,8.7-11
				C64.9,112.7,66.9,115.8,67.1,120.7z M63.6,124.8c0-1.1-1-1.5-1.8-1.5c-1.9,0-2.9,1.2-2.9,2.3c0,0.6,0.4,1.1,1.2,1
				C61.8,126.6,63.6,126.1,63.6,124.8z"/>
			<path class="st2" d="M82.7,118.6c0,5-3.7,3.7-3.7,5.7c0,1.8,4.6,2.6,4.6,7.9c0,2.7-1.6,5.1-4.4,5c-1.8,0-3.2-1.5-3.2-3.2
				c0-1.9,1.4-3.8,1.4-4.8c0-2.1-1.1-2.9-2.4-2.9c-1.5,0-2.2,1.2-2.2,2.3c0,1.7,1.3,3.7,1.3,5.5c0,1.2-0.8,2.9-3.5,2.9
				c-1.3,0-3.1-0.9-3.1-2.9c0-1.9,1.3-4.5,1.3-8c0-4.6-1.5-7.7-1.5-9.9c0-1.9,1-3.8,7-3.7C77.9,112.4,82.7,114.1,82.7,118.6z
				 M74.7,117.4c-1.2,0-1.7,0.8-1.7,1.9c0,1.6,0.8,2.2,1.6,2.2c1.1,0,2-0.9,2-2.4C76.6,118,75.7,117.4,74.7,117.4z"/>
			<path class="st2" d="M99.4,122c0,9.3-7.8,5.6-7.8,8.3c0,1,1.1,1.5,1.8,1.5c1.6,0.1,3.3-1.1,3.7-1.5c0.7-0.8,1.1-1.5,1.8-1.5
				c0.4,0,0.6,0.3,0.6,0.8c0,4.6-3.7,6.5-6.8,6.3c-6.3-0.3-8.4-6.8-8.4-12.3c0-5.5,2.5-10.6,8.7-10C97.2,113.9,99.4,116.9,99.4,122z
				 M95.9,125.6c0-1.1-1-1.5-1.8-1.6c-1.9-0.1-2.9,0.9-2.9,2c0,0.6,0.4,1.1,1.2,1.1C94.1,127.2,95.9,126.9,95.9,125.6z"/>
			<path class="st2" d="M104.5,117.5c0,3.5-1.2,6.6-2.1,6.5c-1.4-0.1-2.1-3.9-2.1-8c0-1.9,1.2-2.2,2.3-2
				C104,114.1,104.5,115.5,104.5,117.5z"/>
			<path class="st2" d="M118.7,120.8c0,0.7-0.4,1.2-1,1.1c-1.4-0.2-0.7-2.4-3.9-2.9c-0.7-0.1-1.5,0.3-1.5,1.1c0,3,6.8,3.3,6.8,9.8
				c0,5.9-3.6,7.7-7.3,7.4c-4.3-0.3-6.8-3-6.8-6.2c0-1.1,0.5-2.4,1.5-2.3c0.9,0.1,0.7,1.9,3.2,2.1c0.9,0.1,1.6-0.5,1.6-1.5
				c0-3.5-4.9-2.2-4.9-8.7c0-3.1,2.2-5.5,6.1-4.9C115.9,116.3,118.7,118,118.7,120.8z"/>
			<path class="st2" d="M36.4,159.5c0-1.5-0.4-3.5-1.9-3.5c-2.4,0,1.2,9.7-4.2,9.6c-5.7-0.1-2.9-5.8-4.7-7.8
				c-0.3-0.3-0.7-0.6-1.3-0.6c-0.5,0-2.3,0.3-2.3,4.2c0,3.2,2.4,4.6,2.4,7.4c0,2.5-1.7,4.1-3.8,4c-3.4-0.2-4.6-3.5-4.6-6.4
				c0-3.4,1.3-8.4,2.4-11.4c1.4-4.1,3.3-7.2,5.7-7.3c4.3-0.2,3.6,7.4,5.4,7.3c0.6,0,1.4-2.2,1.6-2.9c0.6-2.3,1.1-4.8,3.1-4.9
				c1.8-0.1,3.3,1.4,4.2,2.7c2.2,3.7,3,9.1,3,13.2c-0.1,6.8-1.5,9.3-3.9,9.3c-1.9-0.1-3-1.3-3-3.2C34.4,166.3,36.4,162.8,36.4,159.5
				z"/>
			<path class="st2" d="M54.8,152.6c0,2.9-2,6.7-6.5,6.7c-4.9,0-6.4-3-6.4-6c0-4.7,2.2-6.9,7-7C52.4,146.3,54.8,148.6,54.8,152.6z
				 M47.9,154.6c0,1,0.5,2,1.6,2c1.5,0,2.2-1.1,2.2-2.2c0-1.1-0.7-2.2-2-2.1C48.4,152.4,47.9,153.5,47.9,154.6z"/>
			<path class="st2" d="M72.2,153.3c0,5.5-4,4.2-4,6.3c0,2,5,2.8,5,8.6c0,2.9-1.8,5.6-4.8,5.6c-1.9,0-3.5-1.6-3.5-3.5
				c0-2.1,1.6-4.2,1.6-5.2c0-2.3-1.2-3.2-2.6-3.2c-1.6,0-2.4,1.3-2.4,2.6c0,1.9,1.4,4,1.4,5.9c0,1.3-0.8,3.1-3.8,3.1
				c-1.4,0-3.3-1.1-3.3-3.2c0-2.1,1.5-4.8,1.5-8.7c0-4.9-1.6-8.3-1.6-10.7c0-2,1.1-4.1,7.6-4.1C67.1,146.7,72.2,148.3,72.2,153.3z
				 M63.5,152.2c-1.3,0-1.9,0.9-1.9,2.1c0,1.7,0.8,2.3,1.8,2.3c1.2,0,2.2-1,2.2-2.7C65.6,152.8,64.6,152.2,63.5,152.2z"/>
			<path class="st2" d="M90.5,155.9c0.2,7.3-7.3,6.9-8.5,9.7c-0.3,0.7,1.2,1.6,2,1.6c1.7,0,3.6-1.5,4-2c0.8-0.9,1.2-1.8,2-1.8
				c0.4,0,0.6,0.3,0.6,0.8c0,5.1-4.1,7.5-7.5,7.4c-6.9,0-9.2-7.2-9.2-13.1c0-6.1,2.7-11.7,9.5-11.5
				C88.1,147.2,90.3,150.6,90.5,155.9z M86.6,160.2c0-1.2-1-1.6-1.9-1.6c-2,0-3.1,1.2-3.1,2.4c0,0.6,0.5,1.2,1.3,1.2
				C84.6,162.1,86.6,161.7,86.6,160.2z"/>
			<path class="st2" d="M109,153.7c0.5,0,1.1-0.1,1.7-0.1c0.6,0,1,0.2,1,1c0,2.1-5.3,1.3-5.3,7.1c0,1.9,0.8,2.6,1.5,2.6
				c0.9,0,1.8-1.2,2.5-1.2c0.7,0,1.1,1.3,1.1,2.1c0,4.1-3,5.4-6.2,5.5c-4.8,0.1-6.5-1.8-6.5-4.4c0-3.1,2.2-6.9,2.2-8.8
				c0-1.8-2.3-0.5-2.3-2.3c0-1.9,3.9,0.4,5.9-5.4c0.3-0.8,0.9-1.7,1.9-1.7C108.8,148.4,106.8,153.7,109,153.7z"/>
			<path class="st2" d="M125,153.5c0,2.6-2,6-6.4,6c-4.8,0-6.3-2.9-6.3-5.8c0-4.6,2.2-6.5,7-6.2C122.6,147.6,125,149.8,125,153.5z
				 M118.1,155c0,1,0.5,1.9,1.6,1.9c1.5,0,2.2-0.9,2.2-1.9c0-1-0.6-2-2-2C118.7,152.9,118.1,154,118.1,155z"/>
			<path class="st2" d="M22.7,182.1c1,0.1,3.5-0.6,5.8-0.5c2.6,0.2,3.8,2.1,4,5.5c0.4,9.8-10.6,5-11.8,7.9c-1.1,2.5,1.2,4.2,1.2,7.5
				c0,1.9-1.5,2.4-3.2,2.1c-2.3-0.4-3.4-1.8-3.4-3.3c0-2,1.6-5,1.6-11.7c0-2.9-0.3-4.7-0.9-5.7c-0.3-0.4-0.5-1-0.5-1.6
				c0-0.9,0.6-1.7,2.3-1.5C19.3,180.9,19.6,181.8,22.7,182.1z M21,188.5c0,1.1,0.5,2.6,1.7,2.7c1,0.1,2.3-0.9,2.3-3.2
				c0-1.1-0.6-2-2-2.2C21.9,185.7,21,186.3,21,188.5z"/>
			<path class="st2" d="M37.7,182c2,0.1,3.6,1.6,3.4,4c-0.3,4.5-5.1,7.5-5.3,12.3c0,1.5,0.7,2.6,2.3,2.7c3.2,0.3,4.8-2.1,6.3-2
				c1,0.1,2,1.6,1.9,2.8c-0.3,6.1-9,5.9-13.2,5.5c-1.6-0.1-2.2-1.2-2.2-2.2c0.1-6.1,2.7-12.4,2.9-18.5C34,184.1,35,181.8,37.7,182z"
				/>
			<path class="st2" d="M63.2,186.4c0,1.3-0.7,2.7-0.7,4.2c0,1.7,0.5,3.7,1.1,5.6c1.3,4.3,4.7,7.2,4.7,10c0,1.8-1.8,3.7-3.8,3.6
				c-1.6,0-4.1-0.9-4.1-3.1c0-0.7,0.2-1.4,0.2-2.1c0-1.7-1.5-2.9-3.6-3c-1.8-0.1-3.4,0.8-3.4,2.6c0,0.9,0.3,1.5,0.3,2.2
				c0,1.9-1.8,2.9-3.7,2.7c-2.2-0.2-3.7-1.7-3.6-3.4c0.4-5.1,5.1-9.9,5.4-15.1c0.1-1.3-0.7-2.9-0.7-4.3c0-1.9,1.3-3.7,6-3.6
				C61.7,182.8,63.2,184.5,63.2,186.4z M57.4,192.2c-1,0-2.4,1.5-2.4,3.6c0,1.1,0.7,2.7,2.1,2.7c1.2,0,2.1-1.3,2.1-2.9
				C59.2,194.6,58.7,192.2,57.4,192.2z"/>
			<path class="st2" d="M83.7,188.1c0,0.9-0.5,1.5-1.1,1.6c-1.5,0-0.8-2.7-4.2-2.6c-0.8,0-1.8,0.8-1.6,1.6c0.7,3.8,7.6,4.5,7.5,10.2
				c-0.1,4.6-2.8,9.7-8,9.8c-4.7,0.1-7.4-2.8-7.4-6.5c0-1.2,0.6-2.8,1.6-2.8c1,0,0.8,2.1,3.5,2.1c1,0,1.8-0.8,1.8-2
				c0-4-5.4-1.9-5.4-9.4c0-3.6,2.4-6.6,6.7-6.6C80.5,183.5,83.7,184.8,83.7,188.1z"/>
			<path class="st2" d="M95.1,189.2c0.5,0,1.1-0.2,1.7-0.3c0.6,0,1,0.2,1,1c0,2.2-5.3,1.8-5.3,7.7c0,2,0.8,2.7,1.5,2.6
				c0.9-0.1,1.8-1.3,2.5-1.4c0.7-0.1,1.1,1.2,1.1,2.1c0,4.2-3,5.8-6.2,6.1c-4.9,0.4-6.5-1.6-6.5-4.3c0-3.2,2.2-7.2,2.2-9.1
				c0-1.8-2.3-0.4-2.3-2.3c0-2,3.9,0.2,5.9-5.9c0.3-0.9,0.9-1.9,2-1.8C95,183.6,92.9,189.3,95.1,189.2z"/>
			<path class="st2" d="M106.6,185c0,2.1-1.8,4.8-1.8,8.6c0,5.4,1.6,7,1.6,9.5c0,2.2-0.9,4.1-3.7,4.4c-3,0.4-4.1-0.9-4.1-3.1
				c0-3.1,1.9-4.4,1.9-8.3c0-6.8-2-7.5-2-10.3c0-2.4,1-3.9,4.1-4C105.7,181.6,106.6,182.8,106.6,185z"/>
			<path class="st2" d="M107.3,195.8c0.2-6.2,4.3-14.2,11.4-14.7c2.4-0.2,6.6,0.8,6.6,3.5c0,0.5-0.3,1-0.9,1.1
				c-0.8,0.1-2.2-0.5-3.7-0.4c-3.1,0.3-5,4.6-5,7.9c0,3.6,1.8,5.7,3.8,5.4c2.1-0.3,4-2.8,5.1-3c0.6-0.1,1,0.6,1,1.2
				c-0.2,4.3-4.9,8-9,8.8C111,206.8,107.2,200.9,107.3,195.8z"/>
		</g>
	</g>
	<path class="st2" d="M92.9,44.8c-0.1,0.1-0.2,0.2-0.3,0.3c-0.1,0.1-0.2,0.2-0.3,0.2c-0.1,0.1-0.1,0.2-0.2,0.2c0,0-0.1,0.1-0.1,0.1
		c0,0.1-0.1,0.1-0.1,0.2c0,0.1-0.1,0.1-0.1,0.2c0,0.1,0,0.3,0,0.5c0,0.1,0.1,0.2,0.1,0.3c0,0.1,0.1,0.1,0.1,0.2
		c0.1,0.2,0.3,0.4,0.5,0.5c0.2,0.2,0.3,0.3,0.5,0.5c0.3,0.3,0.6,0.6,0.9,1c0,0.2,0,0.4,0,0.6c0,0.4,0,0.8,0.1,1.2
		c0.1,0.3,0.2,0.7,0.3,1c0.1,0.4,0.3,0.8,0.5,1.1c0.2,0.3,0.3,0.7,0.5,1c0.3,0.6,0.7,1.2,1.1,1.8c0.7,1.1,1.3,2.1,2,3.2c0,0,0,0,0,0
		c0,0,0,0,0,0c0,0,0,0,0,0c0,0-0.1-0.1-0.1-0.1c0,0.1,0.1,0.1,0.1,0.2c0,0.1,0.1,0.1,0.1,0.2c0-0.1-0.1-0.1-0.1-0.2
		c0.4,0.6,0.9,1.3,1.4,1.9c0.4,0.6,0.8,1.1,1.2,1.7c0.4,0.6,0.9,1.2,1.3,1.8c0.4,0.6,0.9,1.2,1.3,1.8c0.2,0.3,0.4,0.5,0.6,0.8
		c0.1,0.1,0.2,0.2,0.3,0.3c0.2,0.2,0.3,0.4,0.6,0.5c0.2,0.1,0.4,0.2,0.7,0.2c0.2,0,0.3-0.1,0.5-0.2c0.2-0.1,0.3-0.2,0.5-0.4
		c0.3-0.2,0.5-0.4,0.8-0.6c0.5-0.4,1-0.8,1.5-1.3c0.5-0.4,1-0.8,1.5-1.2c0.5-0.4,1-0.8,1.5-1.2c0.3-0.3,0.6-0.5,0.9-0.8
		c0.2-0.1,0.3-0.3,0.4-0.4c0.5-0.5,0.9-0.9,1.3-1.5c0.1-0.1,0.1-0.2,0.2-0.3c0.1-0.1,0.1-0.2,0.1-0.3c0.1-0.1,0-0.3,0-0.5
		c0-0.1-0.1-0.2-0.1-0.3c-0.1-0.1-0.2-0.3-0.2-0.4c0-0.1-0.1-0.1-0.1-0.2c-0.1-0.1-0.2-0.3-0.4-0.4c-0.5-0.5-1-1-1.5-1.4
		c-0.5-0.5-1-0.9-1.5-1.4c-0.5-0.5-1.1-1-1.7-1.4c-0.1-0.1-0.3-0.2-0.4-0.3c-0.4-0.4-0.8-0.8-1.2-1.2c-1-1-2.1-1.9-3.1-2.9
		c-0.6-0.5-1.1-1.1-1.7-1.5c-0.5-0.4-1.1-0.9-1.7-1.2c-0.3-0.2-0.6-0.3-0.9-0.4c-0.3-0.1-0.6-0.1-1-0.2c-0.3,0-0.7,0-1,0
		c-0.1,0-0.1,0-0.2,0c-0.1-0.1-0.1-0.2-0.2-0.2c-0.2-0.3-0.4-0.5-0.6-0.8c-0.4-0.5-0.8-1-1.2-1.5c-0.1-0.1-0.2-0.3-0.4-0.4
		c-0.2-0.1-0.5-0.1-0.7,0c-0.1,0.1-0.3,0.2-0.4,0.3c-0.1,0.1-0.3,0.2-0.4,0.3c-0.2,0.2-0.5,0.4-0.7,0.6
		C93.4,44.5,93.2,44.6,92.9,44.8z M112.1,59.4C112.1,59.4,112.1,59.4,112.1,59.4c0.1-0.1,0.1-0.1,0.1-0.2c0,0,0,0,0,0c0,0,0,0,0,0
		c0,0,0,0,0,0C112.2,59.4,112.2,59.5,112.1,59.4C112.2,59.5,112.2,59.5,112.1,59.4C112.1,59.5,112.1,59.5,112.1,59.4
		C112.1,59.5,112.1,59.4,112.1,59.4z M95.2,44.5C95.2,44.5,95.2,44.5,95.2,44.5C95.2,44.5,95.2,44.5,95.2,44.5
		C95.2,44.5,95.2,44.5,95.2,44.5c0.1,0,0.1,0.1,0.2,0.1c0,0,0,0,0.1,0.1c0,0-0.1,0-0.1,0c-0.1,0-0.2-0.1-0.3,0
		C95.1,44.6,95.2,44.6,95.2,44.5z M99.8,53.3c0,0.1,0.1,0.2,0.1,0.3c0,0,0,0,0,0c0,0,0,0-0.1-0.1C99.9,53.4,99.9,53.4,99.8,53.3
		C99.8,53.3,99.8,53.3,99.8,53.3z M94.8,46.8C94.8,46.8,94.8,46.8,94.8,46.8C94.7,46.8,94.7,46.8,94.8,46.8
		C94.8,46.8,94.8,46.8,94.8,46.8C94.8,46.8,94.8,46.8,94.8,46.8c0,0,0.1,0,0.1,0.1C94.9,46.8,94.8,46.8,94.8,46.8
		C94.8,46.8,94.8,46.8,94.8,46.8z M98,50.7C98,50.7,98,50.7,98,50.7C98,50.7,98,50.7,98,50.7C98.1,50.7,98.1,50.7,98,50.7
		C98,50.7,98,50.7,98,50.7z M107.5,59.9c0,0,0,0.1,0.1,0.1c0,0.1,0.1,0.1,0.1,0.2c0,0,0,0,0,0c0,0,0,0,0,0
		C107.6,60.2,107.5,60,107.5,59.9z M106.4,63.4c0,0,0,0.1,0,0.1c0,0.1,0,0.2,0,0.2c0-0.1-0.1-0.2-0.1-0.3
		C106.3,63.5,106.4,63.5,106.4,63.4z M104.5,62.9c0,0,0,0.1,0.1,0.1C104.5,63,104.5,62.9,104.5,62.9
		C104.5,62.9,104.5,62.9,104.5,62.9z M106.2,65.7C106.2,65.7,106.2,65.7,106.2,65.7C106.2,65.7,106.2,65.7,106.2,65.7
		C106.2,65.7,106.2,65.7,106.2,65.7C106.2,65.7,106.2,65.7,106.2,65.7z M111,60.5c-0.1,0.1-0.2,0.2-0.3,0.4c0-0.1,0-0.2-0.1-0.2
		c0.2-0.1,0.3-0.2,0.5-0.2C111.1,60.4,111.1,60.5,111,60.5z M105.3,66.4C105.3,66.4,105.3,66.4,105.3,66.4
		C105.3,66.4,105.3,66.4,105.3,66.4C105.3,66.4,105.3,66.4,105.3,66.4z M105.5,66.3c-0.1-0.1-0.2-0.2-0.2-0.3c0,0,0.1,0,0.1,0.1
		c0.1,0,0.2,0.1,0.2,0.1c0,0,0,0,0.1,0C105.6,66.2,105.5,66.3,105.5,66.3z M101.8,48.6c-0.1,0-0.1-0.1-0.2-0.1
		c-0.1,0-0.1-0.1-0.2-0.1c-0.1-0.1-0.1-0.1-0.2-0.2C101.5,48.3,101.7,48.4,101.8,48.6C101.8,48.5,101.8,48.5,101.8,48.6z M99.7,47.5
		C99.7,47.5,99.7,47.5,99.7,47.5c-0.1,0.1-0.1,0.1-0.1,0.2c0,0,0,0,0,0c-0.1-0.1-0.1-0.1-0.2-0.2c0,0,0,0-0.1-0.1
		C99.4,47.4,99.5,47.4,99.7,47.5z"/>
	<path class="st2" d="M121.8,83.2c0.1-0.6,0.2-1.2,0.2-1.8c0-0.6-0.1-1.2-0.3-1.8c-0.1-0.3-0.1-0.7-0.2-1c-0.1-0.4-0.3-0.7-0.5-1.1
		c-0.1-0.2-0.3-0.5-0.4-0.7c0.2,0,0.3,0,0.5-0.1c0.1-0.1,0.1-0.1,0.2-0.2c0-0.1,0.1-0.1,0.1-0.2c0.1-0.2,0.2-0.4,0.3-0.6
		c0.3-0.7,0.5-1.5,0.7-2.2c0-0.1,0-0.2,0.1-0.3c0-0.1,0-0.1,0-0.2c0-0.1,0-0.2-0.1-0.4c-0.1-0.1-0.2-0.2-0.3-0.2
		c0,0-0.1-0.1-0.1-0.1c-0.1-0.1-0.3-0.1-0.4-0.2c-0.2-0.1-0.4-0.1-0.6-0.2c-0.2-0.1-0.4-0.1-0.6-0.2c-0.4-0.1-0.9-0.3-1.3-0.4
		c-0.1,0-0.1,0-0.2-0.1c-0.1,0-0.3-0.1-0.4-0.1c-0.2,0-0.4-0.1-0.6-0.1c-0.2,0-0.4-0.1-0.6-0.1c-0.1,0-0.2,0-0.3,0.1
		c-0.1,0-0.2,0.2-0.3,0.3c-0.1,0.1-0.1,0.2-0.2,0.4c-0.1,0.4-0.3,0.8-0.4,1.1c-0.1,0.4-0.3,0.8-0.4,1.2c-0.1,0.2-0.1,0.4-0.2,0.5
		c0,0.1,0,0.1-0.1,0.2c0,0.1,0,0.1,0,0.2c0,0.1,0,0.2,0.1,0.2c0,0.1,0.1,0.1,0.1,0.1c0,0,0,0,0,0c0.1,0.1,0.1,0.1,0.2,0.2
		c-0.3,0.1-0.5,0.3-0.8,0.5c-0.2,0.2-0.4,0.3-0.6,0.5c0,0,0,0-0.1,0.1c-0.4,0.3-0.8,0.7-1.2,1c-0.4,0.4-0.8,0.8-1.1,1.2
		c-0.3,0.4-0.7,0.9-1,1.3c-0.3,0.5-0.6,1-0.8,1.5c-0.2,0.5-0.4,1-0.5,1.5c-0.2,0.5-0.3,0.9-0.5,1.4c-0.2,0.5-0.3,0.9-0.4,1.4
		c0,0.3-0.1,0.6,0,0.9c0,0.3,0,0.6,0.1,0.8c0.1,0.4,0.3,0.7,0.5,1.1c0.1,0.1,0.2,0.2,0.2,0.4c-0.2,0.1-0.4,0.1-0.6,0.2
		c-0.3,0.1-0.5,0.3-0.8,0.5c-0.1,0.1-0.2,0.1-0.3,0.2c0,0,0,0,0,0c-0.1,0.1-0.3,0.2-0.4,0.3c-0.1,0.1-0.2,0.2-0.3,0.3
		c-0.3,0.4-0.6,0.8-0.8,1.3c-0.2,0.4-0.4,0.9-0.6,1.3c-0.2,0.5-0.4,1-0.6,1.5c-0.2,0.5-0.3,0.9-0.5,1.4c-0.2,0.5-0.4,0.9-0.6,1.4
		c-0.2,0.5-0.3,0.9-0.4,1.4c-0.1,0.5-0.3,0.9-0.4,1.4c-0.1,0.6-0.1,1.1,0,1.7c0,0.2,0.1,0.3,0.1,0.4c0,0.2,0.1,0.4,0.2,0.5
		c0.1,0.3,0.2,0.5,0.4,0.8c0.2,0.3,0.4,0.5,0.6,0.7c0.2,0.2,0.4,0.4,0.7,0.6c0.2,0.1,0.4,0.2,0.6,0.4c0.2,0.1,0.4,0.2,0.6,0.3
		c0.4,0.2,0.8,0.3,1.2,0.5c0.4,0.1,0.7,0.3,1.1,0.4c0.4,0.1,0.8,0.2,1.2,0.3c0,0-0.1,0-0.1,0c0,0,0.1,0,0.1,0c0,0,0,0,0,0
		c0,0,0,0,0,0c0,0,0,0,0,0c0.3,0,0.6,0.1,0.9,0.1c0.3,0,0.5,0,0.8,0c0.3,0,0.7,0,1-0.1c0.3,0,0.5-0.1,0.8-0.1
		c0.2-0.1,0.3-0.1,0.5-0.2c0.2-0.1,0.3-0.2,0.5-0.3c0.2-0.2,0.4-0.4,0.6-0.7c0.3-0.4,0.5-0.9,0.7-1.3c0.2-0.5,0.5-1.1,0.7-1.6
		c0.2-0.5,0.3-0.9,0.5-1.4c0.2-0.5,0.4-0.9,0.5-1.4c0.2-0.5,0.3-1,0.4-1.5c0.1-0.5,0.3-1,0.4-1.5c0.1-0.5,0.2-0.9,0.3-1.4
		c0-0.3,0.1-0.6,0.1-0.9c0-0.2,0-0.5,0-0.7c-0.1-0.5-0.3-1-0.5-1.5c-0.1-0.3-0.2-0.5-0.4-0.8c0.1-0.1,0.3-0.1,0.4-0.2
		c0,0,0.1,0,0.1,0c0.2-0.1,0.4-0.2,0.6-0.4c0.2-0.1,0.3-0.2,0.4-0.4c0.2-0.2,0.3-0.4,0.5-0.6c0.1-0.2,0.2-0.4,0.4-0.6
		c0.1-0.2,0.2-0.4,0.3-0.6c0.1-0.2,0.2-0.4,0.2-0.6c0.1-0.4,0.2-0.7,0.4-1.1c0.1-0.4,0.3-0.7,0.4-1.1c0-0.1,0.1-0.2,0.1-0.3
		c0-0.1,0.1-0.3,0.1-0.4C121.6,84.3,121.7,83.8,121.8,83.2z M114.1,88.1c-0.1,0.1-0.2,0.1-0.3,0.2c0,0,0,0,0,0
		c0-0.1,0.1-0.1,0.1-0.2C114,88.1,114.1,88.1,114.1,88.1C114.1,88.1,114.1,88.1,114.1,88.1C114.1,88.1,114.1,88.1,114.1,88.1z
		 M112.8,93.4c0,0,0,0.1-0.1,0.1c0,0-0.1,0.1-0.1,0.1c0,0,0,0,0,0C112.6,93.6,112.6,93.6,112.8,93.4
		C112.7,93.5,112.7,93.4,112.8,93.4C112.7,93.4,112.7,93.4,112.8,93.4C112.7,93.4,112.7,93.4,112.8,93.4z M108.1,91
		c0.1-0.1,0.1-0.2,0.2-0.2c0.1-0.1,0.3-0.3,0.4-0.4C108.4,90.5,108.2,90.8,108.1,91C108,91,108.1,91,108.1,91z M112.5,83.2
		c0.1-0.1,0.1-0.2,0.2-0.3c0.1-0.2,0.2-0.3,0.3-0.5c0.1-0.1,0.2-0.2,0.2-0.3c0,0,0,0,0,0c0,0,0.1,0,0.1,0
		C113.1,82.5,112.8,82.9,112.5,83.2z M116.8,76.7C116.8,76.8,116.9,76.8,116.8,76.7c-0.1,0.2-0.2,0.3-0.4,0.4
		C116.6,77,116.7,76.8,116.8,76.7z M114.5,80.5c0.2-0.2,0.4-0.4,0.6-0.6c0.2-0.2,0.4-0.4,0.7-0.7l0,0c-0.1,0.1-0.2,0.3-0.3,0.4
		c-0.2,0.2-0.4,0.4-0.6,0.6C114.7,80.4,114.6,80.5,114.5,80.5z M115.4,87.1c0.1-0.1,0.2-0.1,0.2-0.2c0.1-0.1,0.1-0.1,0.2-0.2
		c0,0,0,0.1-0.1,0.1c-0.1,0.1-0.2,0.2-0.2,0.3C115.5,87.2,115.4,87.1,115.4,87.1z M116.7,92.4c0,0,0,0.1,0,0.1
		c0-0.2-0.1-0.3-0.2-0.5c-0.1-0.1-0.1-0.3-0.2-0.4c0,0,0,0,0-0.1c0,0,0-0.1,0-0.1c0,0,0,0,0,0c0.1,0.2,0.2,0.5,0.3,0.7
		C116.7,92.2,116.7,92.3,116.7,92.4z M118.6,78C118.6,78,118.6,77.9,118.6,78c-0.1,0-0.1,0-0.1,0c0-0.1,0-0.2,0-0.3c0,0,0,0,0,0.1
		C118.6,77.8,118.6,77.8,118.6,78C118.6,77.9,118.6,77.9,118.6,78z M119.1,80.4c0-0.1,0.1-0.2,0.1-0.3c0-0.2,0-0.4-0.1-0.5
		c0,0,0,0,0,0c0,0,0-0.1,0-0.1c0-0.1,0.1-0.2,0.1-0.3c0.1,0.4,0.1,0.8,0.2,1.2C119.3,80.3,119.2,80.3,119.1,80.4z M119.4,82.1
		c0,0.1,0,0.2,0,0.3c0,0,0,0,0,0c0,0-0.1,0-0.1,0c0,0,0,0,0,0C119.3,82.3,119.4,82.2,119.4,82.1z M111,86.6
		C111,86.7,111,86.7,111,86.6C111,86.7,111,86.7,111,86.6C111,86.7,111,86.7,111,86.6C111,86.7,111,86.7,111,86.6z M106.1,103.1
		C106.1,103.2,106.1,103.2,106.1,103.1c0.1,0,0.2,0.1,0.2,0.1c0,0,0.1,0.1,0.1,0.1c-0.1,0-0.1,0-0.2-0.1
		C106.2,103.2,106.1,103.2,106.1,103.1C106,103.1,106,103.1,106.1,103.1z M109.3,92.4c-0.1,0.1-0.1,0.2-0.2,0.2c0,0,0,0,0,0
		c0.1-0.1,0.1-0.2,0.2-0.3C109.3,92.3,109.3,92.3,109.3,92.4C109.3,92.3,109.3,92.4,109.3,92.4z M107,96.2c0,0-0.1,0.1-0.1,0.1
		c-0.1,0.1-0.1,0.2-0.2,0.3c0,0.1-0.1,0.1-0.1,0.2c0-0.1,0.1-0.3,0.1-0.4c0-0.1,0.1-0.3,0.1-0.4C106.9,96.1,107,96.2,107,96.2z
		 M105.4,99.7c-0.1,0.1-0.1,0.2-0.2,0.3c0-0.1,0-0.1,0-0.2c0-0.1,0-0.2,0.1-0.3C105.3,99.6,105.3,99.6,105.4,99.7z M112.2,87.6
		c0.1-0.1,0.1-0.2,0.2-0.3c0.1,0,0.1,0.1,0.2,0.1c-0.1,0.1-0.1,0.1-0.2,0.2c-0.1,0.1-0.1,0.1-0.2,0.2c0,0,0,0,0,0c0,0,0,0,0,0
		C112.1,87.7,112.1,87.7,112.2,87.6z M110.8,94C110.8,94.1,110.8,94.1,110.8,94c0,0.1-0.1,0.1-0.1,0.1c0,0,0,0,0,0.1
		C110.7,94.2,110.8,94.1,110.8,94C110.8,94,110.8,94,110.8,94z M109.4,104.1L109.4,104.1C109.4,104.1,109.4,104.1,109.4,104.1
		C109.4,104.1,109.4,104.1,109.4,104.1z M112.8,91.8C112.8,91.8,112.9,91.8,112.8,91.8c0,0,0,0.1,0,0.2
		C112.8,92,112.8,91.9,112.8,91.8z M115.3,89.6c0,0,0.1,0,0.1-0.1c-0.1,0.1-0.1,0.1-0.2,0.2C115.3,89.7,115.3,89.7,115.3,89.6
		C115.3,89.6,115.3,89.6,115.3,89.6z M117.4,89.1c0.1-0.1,0.2-0.3,0.3-0.4C117.7,88.8,117.6,88.9,117.4,89.1z M117.1,73.2
		c0-0.1,0.1-0.1,0.1-0.2c0,0,0,0.1,0,0.1C117.2,73.2,117.2,73.2,117.1,73.2z M109.5,104.7C109.5,104.7,109.5,104.7,109.5,104.7
		C109.5,104.7,109.5,104.7,109.5,104.7C109.5,104.7,109.5,104.7,109.5,104.7z M120.7,73.9c-0.1,0-0.1-0.1-0.2-0.1
		c-0.1-0.1-0.2-0.2-0.3-0.3c0,0,0.1,0,0.1,0c0.1,0.1,0.3,0.1,0.4,0.2C120.7,73.8,120.7,73.8,120.7,73.9z M121.4,72.8
		C121.5,72.8,121.5,72.8,121.4,72.8C121.5,72.8,121.5,72.9,121.4,72.8C121.5,72.9,121.5,72.9,121.4,72.8c0,0,0,0-0.1,0
		c-0.1,0-0.2-0.1-0.3-0.1c0,0,0,0,0,0C121.1,72.7,121.3,72.7,121.4,72.8z M119.1,72.1c-0.3-0.1-0.5-0.1-0.8-0.2c0,0-0.1,0-0.1,0
		c0,0,0,0,0,0C118.5,72,118.8,72,119.1,72.1z"/>
	<g>
		<path class="st1" d="M90.2,98.2c0.5-0.3,1.1-0.6,1.5-1c0.4-0.3,0.8-0.7,1.1-1c0.4-0.5,0.9-1,1.2-1.6c0.3-0.6,0.6-1.3,0.7-1.9
			c0.3-1.1,0.3-2.4,0.3-3.5c0-0.7-0.1-1.3-0.3-2c0-0.1,0-0.1,0-0.2c0-0.1,0-0.3,0-0.4c-0.1-0.5-0.1-1.1-0.3-1.6
			c-0.1-0.5-0.3-0.9-0.4-1.4c-0.3-1-0.6-2-0.9-2.9c-0.2-0.5-0.4-1.1-0.7-1.6c-0.2-0.4-0.4-0.9-0.7-1.3c-0.2-0.3-0.5-0.7-0.8-0.9
			c-0.3-0.2-0.6-0.3-0.9-0.3c0,0-0.1,0-0.1,0c-0.3,0-0.6,0.1-0.9,0.2c-0.4,0.1-0.8,0.3-1.2,0.5c-0.1,0-0.2,0.1-0.3,0.2
			c-0.2,0.1-0.3,0.1-0.4,0.2c-0.1,0.1-0.2,0.1-0.3,0.2c-0.1,0-0.1,0.1-0.2,0.1c-0.3,0.2-0.6,0.4-0.9,0.5c-0.2,0.1-0.4,0.3-0.6,0.4
			c-0.1,0.1-0.2,0.2-0.3,0.4c-0.2,0.2-0.2,0.5-0.2,0.7c0,0.5,0.2,0.8,0.5,1.2c0.1,0.1,0.2,0.2,0.2,0.3c0.2,0.3,0.4,0.6,0.6,1
			c0.2,0.4,0.3,0.8,0.5,1.2c0.2,0.5,0.4,1,0.7,1.5c0.2,0.5,0.5,1,0.7,1.5c0.2,0.7,0.4,1.4,0.5,2.1c0.1,0.6,0.1,1.2,0,1.8
			c0,0.1-0.1,0.3-0.1,0.4c-0.1,0.2-0.2,0.4-0.3,0.6c-0.2,0.2-0.4,0.4-0.6,0.6c-0.3,0.2-0.5,0.5-0.8,0.8c0,0-0.1,0.1-0.1,0.1
			c-0.3,0.1-0.6,0.3-0.8,0.4c-0.9,0.4-1.9,0.7-2.8,1c-0.3,0.1-0.6,0.2-0.9,0.3c0-0.1,0-0.2,0-0.2c0-0.5-0.1-1-0.1-1.4
			c0-0.5,0-1-0.1-1.4c0-0.3-0.1-0.6-0.2-0.9c-0.2-0.3-0.5-0.6-0.8-0.7c-0.1,0-0.2,0-0.2,0c-0.1,0-0.2,0-0.3,0c0,0,0,0-0.1,0
			c-0.2,0-0.4,0.1-0.6,0.2c-0.2,0.1-0.5,0.2-0.7,0.3c-0.2,0.1-0.4,0.2-0.5,0.3c-0.6,0.3-1.1,0.7-1.7,1c-0.4,0.3-0.7,0.5-1,0.8
			c-0.3,0.2-0.6,0.5-0.8,0.8c-0.5,0.5-1,1-1.5,1.5c-0.5,0.5-1,0.9-1.6,1.3c-0.7,0.5-1.4,1-2.1,1.6c-0.2,0.2-0.4,0.4-0.7,0.6
			c-0.1,0.1-0.2,0.2-0.3,0.4c-0.2,0.3-0.3,0.6-0.2,0.9c0.1,0.2,0.1,0.4,0.3,0.5c0.2,0.2,0.3,0.2,0.6,0.3c0,0,0.1,0,0.1,0.1
			c0.1,0.1,0.3,0.2,0.4,0.3c0.1,0.1,0.2,0.1,0.4,0.2c0.5,0.2,1,0.4,1.5,0.6c0.9,0.3,1.8,0.6,2.7,0.9c0.9,0.3,1.7,0.5,2.6,0.8
			c0.8,0.3,1.7,0.6,2.5,0.9c0.7,0.2,1.3,0.5,2,0.7c0.1,0,0.2,0,0.4,0.1c0.1,0,0.5-0.1,0.6-0.1c0.2-0.1,0.3-0.2,0.4-0.4
			c0.1-0.1,0.1-0.2,0.2-0.4c0.1-0.4,0-0.8,0-1.2c-0.1-0.4-0.2-0.8-0.3-1.2c0-0.3,0-0.6-0.1-0.9c0.3,0,0.7-0.1,1-0.2
			c1.1-0.3,2.3-0.6,3.4-0.9C87.9,99.1,89.1,98.7,90.2,98.2z M78.8,100.7c0,0,0,0.1,0,0.1c-0.2-0.1-0.4-0.2-0.6-0.2
			c0.1-0.2,0.2-0.4,0.3-0.6c0,0,0.1,0.1,0.1,0.1c0,0,0,0,0.1,0.1C78.7,100.3,78.8,100.5,78.8,100.7z M78.9,93.3c0,0-0.1,0-0.1,0
			c0.1-0.1,0.2-0.2,0.3-0.3c0,0.1,0,0.2,0,0.3C79.1,93.3,79,93.3,78.9,93.3z M73.8,98.5c0.1-0.1,0.2-0.2,0.2-0.3
			c-0.1,0.1-0.1,0.2-0.1,0.4C73.9,98.6,73.8,98.6,73.8,98.5z"/>
		<path class="st1" d="M63.5,102.8c0.3,0,0.6-0.1,0.9-0.2c0.3-0.2,0.5-0.4,0.7-0.7c0.1-0.2,0.2-0.4,0.3-0.6c0.1-0.1,0.1-0.3,0.2-0.4
			c0.2-0.5,0.4-1,0.6-1.5c0.2-0.4,0.3-0.8,0.4-1.2c0.1-0.4,0.1-0.7,0-1c-0.1-0.3-0.2-0.5-0.4-0.7c-0.2-0.2-0.5-0.4-0.8-0.5
			c-0.2-0.1-0.4-0.1-0.6-0.2c-0.3-0.1-0.7-0.1-1-0.1c-1-0.1-1.9-0.1-2.9-0.1c-0.1,0-0.2,0-0.3,0c-0.1,0-0.3,0-0.4-0.1
			c-1-0.2-2-0.4-3-0.6c-0.5-0.1-1-0.2-1.5-0.3c0,0-0.1,0-0.1,0c-0.4-0.2-0.7-0.4-1.1-0.6c-0.3-0.2-0.5-0.5-0.8-0.8
			c-0.1-0.1-0.1-0.2-0.2-0.3c-0.1-0.2-0.3-0.4-0.5-0.5c0-0.4,0-0.7,0.1-1.1c0.2-0.9,0.4-1.8,0.6-2.6c0.2-0.5,0.3-1,0.5-1.4
			c1.3,0.2,2.6,0.5,3.9,0.7c0.1,0,0.2,0,0.3,0c0.1,0,0.2,0,0.3,0c0.1,0,0.2-0.1,0.4-0.1c0.2-0.1,0.4-0.3,0.5-0.5
			c0.1-0.1,0.2-0.3,0.2-0.5c0,0,0-0.1,0-0.1c0-0.2,0.1-0.3,0.1-0.5c0-0.2,0-0.4-0.1-0.5c0-0.2-0.1-0.3-0.1-0.4
			c-0.1-0.5-0.3-1-0.4-1.5c-0.3-1-0.5-2-0.9-3c-0.3-1-0.7-1.9-1.1-2.9c-0.2-0.4-0.3-0.8-0.5-1.2c-0.1-0.2-0.2-0.5-0.3-0.7
			c-0.1-0.2-0.2-0.4-0.4-0.6c-0.1-0.1-0.3-0.2-0.4-0.3c-0.3-0.2-0.5-0.2-0.8-0.3c0,0-0.1,0-0.1,0c-0.3,0-0.7,0.2-0.9,0.3
			c-0.1,0.1-0.2,0.1-0.3,0.2c-0.5,0.3-1,0.7-1.4,1.1c-0.8,0.6-1.5,1.3-2.2,2.1c-0.7,0.8-1.4,1.6-2.1,2.4c-0.7,0.7-1.4,1.4-2.1,2.2
			c-0.2,0.2-0.4,0.5-0.6,0.7c-0.1,0.2-0.2,0.4-0.3,0.6c-0.1,0.5,0.1,1.1,0.6,1.4c0.2,0.1,0.4,0.2,0.7,0.2c0.1,0,0.1,0,0.2,0
			c0.3,0.1,0.5,0.2,0.8,0.3c0.3,0.1,0.6,0.1,0.9,0.2c-0.1,0.3-0.2,0.6-0.4,1c-0.4,1.1-0.8,2.2-1.2,3.3c-0.3,1-0.6,2.1-0.8,3.1
			c-0.1,0.7-0.2,1.4-0.1,2.1c0.1,0.5,0.2,0.9,0.4,1.3c0.1,0.3,0.3,0.5,0.5,0.7c0.2,0.2,0.4,0.4,0.6,0.5c0.3,0.2,0.6,0.4,0.9,0.5
			c0,0,0.1,0.1,0.1,0.1c0.5,0.4,1,0.7,1.6,0.9c1,0.4,2,0.5,3,0.8c1,0.3,2.1,0.6,3.1,0.9c1,0.3,2,0.5,3,0.7c1.1,0.2,2.2,0.5,3.4,0.6
			C62.8,102.8,63.2,102.8,63.5,102.8z M49.5,94.1c0-0.2,0-0.4,0-0.6c0.1,0.2,0.2,0.4,0.3,0.5c-0.1,0.1-0.1,0.3-0.2,0.4
			C49.6,94.3,49.5,94.2,49.5,94.1z M55,78.2c0-0.1,0.1-0.1,0.1-0.2c0.1,0.2,0.1,0.4,0.2,0.6c0,0,0,0,0,0.1c0,0,0,0,0,0
			c0,0-0.1-0.1-0.1-0.1c-0.1-0.1-0.3-0.1-0.4-0.1C54.8,78.4,54.9,78.3,55,78.2z"/>
		<path class="st1" d="M69.8,63.9c0.4,0.1,0.7,0.2,1.1,0.3c1.3,0.7,2.5,1.6,3.7,2.5c0.4,0.4,0.9,0.8,1.3,1.2c-0.3,0.3-0.7,0.6-1,0.9
			c-0.2,0.2-0.4,0.4-0.6,0.7c-0.1,0.2-0.2,0.3-0.3,0.5c-0.1,0.5,0,0.9,0.4,1.3c0.3,0.3,0.7,0.4,1.1,0.6c0.3,0.1,0.6,0.2,0.9,0.3
			c0.5,0.2,1,0.4,1.5,0.7c0.2,0.1,0.3,0.1,0.5,0.2c0.6,0.3,1.1,0.6,1.7,0.8c0.5,0.2,1,0.5,1.5,0.7c0.5,0.3,0.9,0.6,1.3,0.9
			c0.2,0.1,0.4,0.3,0.5,0.4c0.1,0.1,0.2,0.1,0.3,0.2c0.5,0.3,1.1,0.4,1.6,0.1c0.2-0.1,0.4-0.3,0.6-0.5c0.1-0.2,0.2-0.4,0.3-0.6
			c0.1-0.1,0.1-0.3,0.1-0.5c0.1-0.4,0.1-0.7,0.1-1.1c0.1-1.1,0.1-2.2,0.1-3.3c0-1.1,0-2.1,0-3.2c0-1,0-2.1,0-3.1
			c0-0.5,0-1.1-0.1-1.6c-0.1-0.4-0.4-0.8-0.7-1.1c-0.2-0.2-0.5-0.2-0.8-0.2c0,0-0.1,0-0.1,0c-0.4,0-0.8,0.2-1.1,0.3
			c-0.3,0.1-0.5,0.3-0.7,0.4c-0.3,0.2-0.6,0.4-0.9,0.6c-0.4,0.3-0.9,0.7-1.3,1c-0.1,0.1-0.3,0.2-0.4,0.4c-0.2-0.3-0.4-0.6-0.6-1
			c-0.7-1.1-1.3-2.2-2.1-3.2c-0.7-1-1.7-1.8-2.7-2.5c-1-0.6-2-1.2-3.1-1.7c-0.5-0.3-1.1-0.5-1.7-0.7c-0.5-0.1-0.9-0.2-1.4-0.2
			c-0.1,0-0.2,0-0.4,0c-1.3,0-2.7,0.5-3.8,1.2c-0.5,0.3-1,0.7-1.5,1.1c-0.4,0.3-0.8,0.7-1.2,1.1c-0.9,1-1.6,2.1-2.3,3.1
			c-0.7,1-1.4,1.9-2.1,2.9c-0.3,0.5-0.6,0.9-0.9,1.4c-0.3,0.5-0.6,1.1-0.9,1.7c-0.3,0.6-0.5,1.2-0.8,1.8c-0.1,0.2-0.2,0.4-0.2,0.7
			c0,0.1,0,0.2-0.1,0.2c0,0.1-0.1,0.3-0.1,0.5c0,0.3,0.1,0.5,0.2,0.7c0.2,0.4,0.6,0.7,1,0.9c0.4,0.2,0.8,0.3,1.2,0.5
			c0.3,0.1,0.5,0.2,0.8,0.2c0.2,0.1,0.4,0.1,0.7,0.1c0.5,0,0.9-0.2,1.2-0.5c0.4-0.4,0.6-1,0.9-1.4c0.3-0.5,0.5-1,0.8-1.5
			c0.5-1,1-1.9,1.6-2.8c0.5-0.5,1-1,1.6-1.5c0.5-0.3,0.9-0.6,1.4-0.8c0.7-0.3,1.4-0.4,2.1-0.5C68.4,63.8,69.1,63.8,69.8,63.9z
			 M83.7,70.8C83.7,70.8,83.7,70.8,83.7,70.8c-0.1,0-0.2,0-0.2,0c0,0,0-0.1,0-0.1c0-0.1,0.1-0.2,0.1-0.2c0,0,0.1-0.1,0.1-0.1
			C83.7,70.4,83.7,70.6,83.7,70.8z M83.6,68.5c0-0.1,0-0.1,0.1-0.2c0,0,0-0.1,0-0.1c0.1-0.2,0.1-0.4,0.2-0.6c0,0.3,0,0.6,0,0.8
			c0,0.3,0,0.6,0,0.9c0-0.1-0.1-0.1-0.1-0.2c-0.1-0.1-0.1-0.1-0.2-0.2C83.5,68.8,83.5,68.7,83.6,68.5z M77.2,69.9
			C77.2,69.9,77.2,69.9,77.2,69.9C77.2,69.9,77.2,69.9,77.2,69.9C77.2,69.9,77.2,69.9,77.2,69.9z M79.5,70.9c0.1,0,0.2,0,0.3-0.1
			c0,0.1,0.1,0.1,0.1,0.2C79.8,71,79.6,71,79.5,70.9z M82.1,66.3C82.1,66.3,82.1,66.4,82.1,66.3C82.1,66.4,82.1,66.4,82.1,66.3
			L82.1,66.3z"/>
	</g>
	<g>
		<path class="st2" d="M29.5,90.7c-0.5-1.8-0.7-3.6-1.1-5.4c-0.7-2.6-2.3-4.2-5.1-4.6c-0.2,0-0.5-0.1-0.7-0.2
			c-0.2-0.1-0.3-0.2-0.2-0.4c0.4-0.4,0.3-0.6-0.2-0.8c-0.1,0-0.1-0.2-0.1-0.2c-0.1-0.4-0.3-0.7-0.4-1c-0.2-0.3-0.3-0.6-0.4-0.8
			c-0.3-0.5-0.7-0.6-1.2-0.4c-0.9,0.3-1.7,0.7-2.5,1.2c-0.9,0.6-0.9,0.9-0.5,1.9c0.3,0.7,1,1.1,0.9,2c0,0.2,0.2,0.3,0.4,0.2
			c0.5-0.1,0.4,0.3,0.4,0.5c-0.1,0.2-0.2,0.4-0.3,0.7c-0.4,0.9-0.7,1.8-0.7,2.8c0,1.7,0.8,3.1,1.9,4.3c1.1,1.2,2.3,2.3,3.3,3.6
			c1.1,1.4,1.7,2.9,1.6,4.7c-0.1,0.8,0.1,1.5,0.3,2.3c0.7,2.2,2.2,3.9,3.8,5.5c0.5,0.5,1.2,0.7,1.9,0.5c1.9-0.4,3.6-1.3,5-2.6
			c0.4-0.3,0.5-0.7,0.6-1.2c0,0-0.1,0-0.1,0c0,0,0.1-0.1,0.1-0.1c0,0,0-0.1,0-0.1c0-1.1-0.3-2.2-0.6-3.3c-0.6-2.2-1.7-4-3.6-5.3
			C30.7,93.6,30,92.2,29.5,90.7z M26.6,102.7c-0.1-0.1-0.2-0.3-0.2-0.4c0.1,0.1,0.1,0.1,0.2,0.2C26.6,102.6,26.6,102.7,26.6,102.7z
			 M29.1,105.9c-0.1,0-0.1,0-0.2,0.1c-0.2-0.2-0.3-0.3-0.5-0.5c0,0,0,0,0.1,0c0.1,0,0.2,0,0.3,0c0,0.1,0.1,0.3,0.3,0.4
			c0.1,0,0.1,0.1,0.2,0.1C29.1,105.9,29.1,105.9,29.1,105.9z M25.9,99.2c0,0-0.1-0.1-0.1-0.1c0,0,0,0,0,0c0-0.1,0-0.1,0.1-0.2
			C25.9,99,25.9,99.1,25.9,99.2z M19.8,85c0,0,0-0.1,0-0.1c0,0,0-0.1,0.1-0.1c0,0.1,0,0.3,0,0.4C19.8,85,19.8,85,19.8,85z M25.1,95
			c-0.1,0-0.2,0.1-0.2,0.2c0,0,0,0,0,0c0,0-0.1,0-0.1-0.1c0,0,0,0,0-0.1c0,0,0,0,0,0C24.9,95,25,95,25.1,95
			C25.2,94.9,25.2,95,25.1,95z M23.8,91.7C23.7,91.7,23.7,91.7,23.8,91.7c-0.1-0.1-0.1-0.2-0.1-0.3C23.7,91.5,23.7,91.6,23.8,91.7z
			 M22.2,87.2c0-0.1,0.1-0.2,0.2-0.3c0.1-0.1,0.1-0.2,0.2-0.3c-0.1,0.3-0.2,0.5-0.2,0.8C22.3,87.3,22.3,87.2,22.2,87.2z M31.8,104.8
			c0.1-0.2,0.2-0.3,0.3-0.5c0,0,0,0,0,0c0.1,0.1,0.1,0.2,0.2,0.3C32.2,104.7,32,104.7,31.8,104.8z M29.4,97.5
			c-0.1,0.5-0.1,1-0.1,1.5c0,0.1,0,0.2,0,0.4c-0.1-0.3-0.1-0.5-0.2-0.8c0-0.2,0-0.3,0-0.5C29.2,97.9,29.3,97.7,29.4,97.5
			C29.4,97.5,29.4,97.5,29.4,97.5C29.4,97.5,29.4,97.5,29.4,97.5z M25.5,89.9c0,0.2,0.1,0.5,0.1,0.7c-0.2-0.2-0.3-0.5-0.5-0.7
			c-0.1-0.1-0.1-0.2-0.2-0.3c0.1,0,0.2,0,0.2-0.1c0.1,0,0.1,0.1,0.2,0.1c0,0,0.1,0,0.1,0.1C25.5,89.8,25.5,89.9,25.5,89.9z M23.4,83
			c0,0,0.1,0,0.1,0c-0.2,0.1-0.3,0.2-0.5,0.2C23.1,83.2,23.2,83.1,23.4,83z M33.5,102.8C33.5,102.8,33.5,102.9,33.5,102.8
			C33.5,102.9,33.5,102.9,33.5,102.8c0-0.1,0.1-0.3,0.1-0.5c0.1,0,0.1-0.1,0.2-0.1C33.7,102.4,33.6,102.6,33.5,102.8z M31.6,95.4
			c0.1,0.2,0.1,0.5,0.2,0.7c0,0,0,0.1,0,0.1c-0.1-0.3-0.1-0.7-0.2-1C31.6,95.2,31.6,95.3,31.6,95.4z M33.1,95.9c0,0.2,0,0.4,0,0.5
			c0,0,0,0,0,0c0-0.1,0-0.2,0-0.3C33.1,96,33.1,96,33.1,95.9z"/>
		<path class="st2" d="M36.6,103.1c-0.1,0-0.2,0-0.3,0c0,0,0,0,0,0c0,0,0,0,0,0c0,0,0,0.1,0,0.1C36.4,103.2,36.5,103.1,36.6,103.1z"
			/>
	</g>
	<path class="st2" d="M47.6,60.3c0.5-0.2,0.9-0.5,1.1-0.9c0.2-0.3,0.3-0.7,0.4-1.1c0.6-1.9,0.4-3.9-0.6-6c-0.1-0.3-0.2-0.5-0.2-0.8
		c0-0.1,0-0.2,0.1-0.3c0.3-0.1,0.4-0.2,0.2-0.4c0-0.1,0-0.1,0.1-0.2c0.2-0.3,0.3-0.6,0.4-0.9c0.1-0.3,0-0.5-0.4-0.7
		c-0.7-0.4-1.4-0.7-2.2-0.9c-0.5-0.2-0.7-0.1-0.9,0.2c-0.3,0.4-0.2,1-0.7,1.2c0,0,0,0,0,0.1c0.3,0.7-0.4,0.8-0.9,1
		c-0.3,0.1-0.6,0.2-0.9,0.3c-1.8,0.9-3.1,2-4,3.6c-0.4,0.7-0.5,1.4-0.1,2.3c0.3,0.6,0.1,1-0.4,1.2c-0.8,0.5-1.2,1.1-1.6,1.9
		c-0.3,0.7-0.5,1.4-0.8,2.1c-0.5,1.2-1.1,2.4-1.6,3.7c0,0,0.1,0,0.1,0c-0.4,0.9-0.8,1.9-1.2,2.8c-0.3,0.7-0.6,1.4-0.8,2.2
		c-0.1,0.8-0.2,1.6,0.3,2.5c0.4,0.6,0.9,1.1,1.8,1.1c0.2,0,0.3,0,0.4,0.2c0.4,0.5,1.1,0.8,1.7,0.7c0.2,0,0.3,0,0.4,0.2
		c0.5,0.4,1.1,0.6,1.7,0.5c0.6-0.1,1.1-0.2,1.4-0.6c0.8-0.6,1.3-1.4,1.7-2.3c1.1-2.5,2.2-5,3.4-7.4c0.1-0.2,0.2-0.3,0.3-0.5
		c0.6-1.1,1.1-2.2,0.8-3.6C46.8,60.9,47,60.5,47.6,60.3z M37.4,63.4C37.4,63.4,37.4,63.3,37.4,63.4c0.1-0.1,0.1-0.1,0.2-0.1
		C37.4,63.3,37.4,63.4,37.4,63.4C37.3,63.4,37.3,63.4,37.4,63.4z M40.1,56.9c0,0-0.1,0.1-0.1,0.1c0-0.1,0.1-0.2,0.1-0.3
		C40.1,56.8,40.1,56.9,40.1,56.9z M33.9,71.7c-0.1,0-0.2-0.1-0.2,0c0,0,0,0,0,0c0,0,0-0.1,0-0.1c0,0,0,0,0,0c0,0,0,0,0,0
		C33.8,71.6,33.9,71.6,33.9,71.7C33.9,71.7,33.9,71.7,33.9,71.7z M35.2,69.2C35.2,69.2,35.2,69.2,35.2,69.2c0-0.1,0.1-0.1,0.1-0.2
		C35.3,69.1,35.2,69.2,35.2,69.2z M39.3,60.2c0,0-0.1-0.1-0.1-0.1c0-0.2,0.1-0.4,0.1-0.5c0,0,0,0,0,0c0,0.1,0.1,0.1,0.1,0.1
		c-0.1,0.1-0.1,0.2-0.1,0.3C39.3,60.1,39.3,60.2,39.3,60.2C39.3,60.2,39.3,60.2,39.3,60.2z M41.8,54.9c0,0,0-0.1,0-0.1c0,0,0,0,0,0
		c0,0,0.1,0,0.1,0C41.9,54.7,41.9,54.8,41.8,54.9z M37.1,66.1c0,0,0.1-0.1,0.1-0.2c0.1,0,0.2,0,0.3-0.1c0.1,0,0.2,0,0.2,0
		C37.5,66,37.3,66.1,37.1,66.1z M37.2,69.4c-0.1,0.1-0.3,0.3-0.4,0.4c0.1-0.2,0.1-0.4,0.2-0.6c0-0.1,0.1-0.2,0.1-0.3
		c0.1,0,0.1,0.1,0.2,0.1c0,0.1,0,0.1,0,0.2c0,0,0,0.1,0,0.1C37.3,69.3,37.2,69.4,37.2,69.4z M40,64.5c0.1,0,0.2,0.1,0.3,0.1
		c0,0,0,0,0,0.1C40.3,64.6,40.1,64.6,40,64.5z M41.3,61.3c0.2,0,0.3,0,0.5,0c0,0,0,0,0,0c0,0.1,0,0.2,0,0.3
		C41.6,61.5,41.5,61.4,41.3,61.3z M44.6,56.1c-0.3,0.2-0.7,0.5-1,0.7c-0.1,0.1-0.2,0.1-0.2,0.2c0.1-0.2,0.2-0.3,0.4-0.5
		c0.1-0.1,0.2-0.1,0.3-0.2C44.2,56.2,44.4,56.2,44.6,56.1C44.6,56.2,44.6,56.1,44.6,56.1C44.6,56.1,44.6,56.1,44.6,56.1z M43.4,61.3
		C43.4,61.3,43.4,61.3,43.4,61.3C43.4,61.3,43.4,61.3,43.4,61.3c0.1-0.1,0.3-0.1,0.4-0.2c0,0,0.1,0,0.1,0.1
		C43.8,61.3,43.6,61.3,43.4,61.3z M47,56.4c-0.1,0.2-0.2,0.3-0.3,0.5c0,0,0,0-0.1,0c0.2-0.2,0.4-0.4,0.5-0.6
		C47.1,56.3,47.1,56.4,47,56.4z M44.5,63.2c0.1,0,0.1,0,0.2,0c0,0,0,0,0,0c0,0.1,0.1,0.1,0.1,0.2C44.7,63.3,44.6,63.2,44.5,63.2z
		 M47.1,57.9C47.1,57.9,47.1,57.9,47.1,57.9c0.1-0.1,0.1-0.1,0.2-0.2c0,0,0.1-0.1,0.1-0.1C47.3,57.7,47.2,57.8,47.1,57.9z"/>
	<g>
		<path class="st2" d="M29.1,55.3c-0.2-1-0.6-1.9-1.2-2.7c-0.2-0.3-0.5-0.6-0.7-0.9c-0.1-0.1-0.1-0.4-0.1-0.4c0.5-0.2,0.2-0.6,0.2-1
			c0.1-0.6,0.1-1.1,0-1.6c0-0.4-0.3-0.6-0.7-0.7c-0.8-0.1-1.5-0.1-2.3,0c-0.7,0.1-0.9,0.3-0.9,1.1c0,0.6,0.3,1.2-0.1,1.8
			c-0.1,0.1,0,0.2,0.1,0.2c0.6,0.2,0.3,0.5,0.1,0.8c-0.2,0.2-0.3,0.5-0.5,0.7c-0.6,0.8-1.1,1.8-1.2,2.8C21.7,56,22,56.5,22,57
			c0,1.1,0,2.1,0,3.4c-0.1,1.2,0.1,2.6-0.1,4.1c-0.1,0.6,0.1,1.3,0.4,1.8c0.5,0.8,1.1,0.9,1.8,0.3c0.2-0.2,0.3-0.2,0.4,0.1
			c0.5,0.7,1.4,0.7,1.8,0.1c0.2-0.3,0.4-0.3,0.6,0c0.6,0.5,1.2,0.4,1.6-0.2c0.5-0.6,0.7-1.4,0.5-2.2c-0.1-0.8-0.2-1.5-0.1-2.3
			c0-2.1-0.2-4.2,0.1-6.2C29.2,55.7,29.2,55.5,29.1,55.3z M24.1,65.3c-0.1,0-0.2,0-0.2,0.1c0,0,0,0,0,0c0,0,0-0.1-0.1-0.1
			c0,0,0,0,0,0c0,0,0,0,0,0C24,65.2,24.1,65.3,24.1,65.3C24.2,65.3,24.2,65.3,24.1,65.3z M23.7,60.8c0.1-0.1,0.3-0.1,0.4-0.2
			c0,0,0,0,0,0c0,0.1,0,0.2,0.1,0.3C24,60.9,23.8,60.9,23.7,60.8z M23.9,56.4c0,0,0-0.1,0-0.1c0,0,0-0.1,0-0.1c0,0,0.1,0,0.1-0.1
			C24,56.2,23.9,56.3,23.9,56.4z M24.3,62.5C24.3,62.5,24.3,62.5,24.3,62.5c0-0.1,0-0.2,0-0.2C24.3,62.4,24.3,62.4,24.3,62.5z
			 M24.6,54.8c-0.2,0.3-0.4,0.7-0.6,1c-0.1,0.1-0.1,0.2-0.1,0.2c0-0.2,0.1-0.4,0.1-0.6c0.1-0.1,0.1-0.2,0.2-0.3
			C24.2,55,24.4,54.9,24.6,54.8C24.6,54.8,24.6,54.8,24.6,54.8C24.6,54.8,24.6,54.8,24.6,54.8z M24.8,58.9c0-0.1,0-0.1,0-0.2
			c0.1-0.1,0.1-0.1,0.2-0.2c0.1,0,0.1-0.1,0.2-0.1C25.1,58.6,25,58.8,24.8,58.9z M25.5,60C25.5,60,25.5,60,25.5,60
			c0.1-0.1,0.2-0.3,0.3-0.4c0.1,0,0.1,0,0.2,0C25.9,59.8,25.7,59.9,25.5,60C25.6,60,25.5,60,25.5,60z M26.2,61.9
			c-0.1,0.2-0.1,0.3-0.2,0.5c0-0.2,0-0.4-0.1-0.7c0-0.1,0-0.2,0-0.3c0.1,0,0.1,0,0.2,0c0,0,0.1,0.1,0.1,0.1c0,0,0,0.1,0,0.1
			C26.3,61.8,26.2,61.8,26.2,61.9z M26.9,53.9c0,0.1,0,0.1,0,0.2c0,0.2-0.1,0.4-0.1,0.6c0,0,0,0-0.1,0
			C26.8,54.4,26.9,54.1,26.9,53.9z M26.8,56.3c0.1,0,0.2,0,0.4,0c0,0,0,0,0.1,0C27.1,56.3,26.9,56.3,26.8,56.3z M27.3,61.2
			c0.1,0,0.1,0,0.1-0.1c0,0,0,0,0,0c0.1,0,0.1,0.1,0.2,0.1C27.5,61.3,27.4,61.3,27.3,61.2z M27.5,55.3
			C27.5,55.3,27.5,55.3,27.5,55.3c0-0.1,0.1-0.2,0.1-0.2c0,0,0.1-0.1,0.1-0.1C27.7,55.1,27.6,55.2,27.5,55.3z"/>
		<path class="st2" d="M21.3,60.2c-0.1,0-0.1,0-0.2-0.1c0,0,0,0,0,0c0,0.2,0.1,0.4,0.1,0.5c0.1,0,0.1,0,0.2,0c0,0,0.1,0,0.1,0
			c0,0-0.1-0.1-0.1-0.1C21.2,60.4,21.2,60.3,21.3,60.2z"/>
		<path class="st2" d="M21.5,54.6c0,0,0,0.1,0,0.1c0-0.1,0.1-0.2,0.1-0.2C21.5,54.5,21.5,54.6,21.5,54.6
			C21.5,54.6,21.5,54.6,21.5,54.6z"/>
		<path class="st2" d="M20.7,57.5c0-0.1,0-0.1,0-0.2c0-0.1,0-0.1-0.1-0.2C20.7,57.3,20.7,57.4,20.7,57.5z"/>
	</g>
</g>
</svg>
