<?xml version="1.0" encoding="utf-8"?>
<!-- Generator: Adobe Illustrator 26.0.0, SVG Export Plug-In . SVG Version: 6.00 Build 0)  -->
<svg version="1.1" id="Layer_1" xmlns="http://www.w3.org/2000/svg" xmlns:xlink="http://www.w3.org/1999/xlink" x="0px" y="0px"
	 viewBox="0 0 414 329" style="enable-background:new 0 0 414 329;" xml:space="preserve">
<style type="text/css">
	.st0{fill:#1B4E8B;}
	.st1{fill:url(#SVGID_1_);fill-opacity:0.8196;}
	.st2{fill:url(#SVGID_00000171699037875648349630000013096500704252730278_);}
	.st3{fill:url(#SVGID_00000068661190387556926170000005592828687077118601_);}
	.st4{fill:url(#SVGID_00000062882521264582467570000002548503916693895334_);fill-opacity:0.3373;}
	.st5{fill:#424242;fill-opacity:0.3451;}
	.st6{fill:url(#SVGID_00000091711142719246790790000009075727187818376079_);}
	.st7{fill:url(#SVGID_00000030463581429065892750000009143732219334346666_);fill-opacity:0.5647;}
	.st8{fill:#353535;fill-opacity:0.2627;}
	.st9{fill:url(#SVGID_00000023255080808336229210000011535834445091263661_);}
	.st10{fill:url(#SVGID_00000039104660352669600340000010500513728076424093_);fill-opacity:0.5647;}
	.st11{fill:url(#SVGID_00000140730806668776917240000007979574791668608149_);}
	.st12{fill:url(#SVGID_00000114785695845207971080000003651536342510380418_);}
	.st13{fill:url(#SVGID_00000023266878541853770070000009064955756678678663_);}
	.st14{fill:url(#SVGID_00000114035769839277432720000008732953288707320236_);}
	.st15{fill:url(#SVGID_00000105407784428060163530000007010378006400615359_);}
	.st16{fill:none;stroke:#E3E3E3;stroke-width:0.6462;stroke-linejoin:bevel;stroke-miterlimit:79.8403;}
	.st17{fill-opacity:1.176500e-02;}
	.st18{fill:url(#SVGID_00000069394658714430809780000011823541520995087776_);}
	.st19{fill:url(#SVGID_00000044873401188930388510000017406412760423935422_);}
	.st20{fill:#979797;}
	.st21{fill:url(#SVGID_00000176033157858375228130000005375064981111701649_);}
	.st22{fill:url(#SVGID_00000142896159677389188220000003496345068309856699_);}
	.st23{fill:url(#SVGID_00000042010042747304201750000001250072895645299866_);}
	.st24{fill:#333333;}
	.st25{fill:#FFFFFF;}
	.st26{fill:url(#SVGID_00000012468396483668927210000004063833952428024217_);fill-opacity:0.8196;}
	.st27{fill:url(#SVGID_00000145742557286258905450000016492935091310162590_);}
	.st28{fill:url(#SVGID_00000026144431098641525820000016763522612326696091_);}
	.st29{fill:url(#SVGID_00000118398213623203007040000014408450457281520002_);fill-opacity:0.3373;}
	.st30{fill:url(#SVGID_00000127014795820054034660000015071936603826216586_);}
	.st31{fill:url(#SVGID_00000083773569669709742180000012610527981948102060_);fill-opacity:0.5647;}
	.st32{fill:url(#SVGID_00000158019227739595434870000017289592838290222976_);}
	.st33{fill:url(#SVGID_00000007427047595123675390000004949590458969597367_);fill-opacity:0.5647;}
	.st34{fill:url(#SVGID_00000054962447053550139350000016195833835950040479_);}
	.st35{fill:url(#SVGID_00000120529825418014739450000009438932239407236543_);}
	.st36{fill:url(#SVGID_00000114044978364293541910000018007080575902103967_);}
	.st37{fill:url(#SVGID_00000095336900454853413200000003925706052636663175_);}
	.st38{fill:url(#SVGID_00000096752228991900334590000017538129002328444046_);}
	.st39{fill:none;stroke:#E3E3E3;stroke-width:0.7638;stroke-linejoin:bevel;stroke-miterlimit:79.8403;}
	.st40{fill:url(#SVGID_00000001637575224907406270000010744392704987549320_);}
	.st41{fill:url(#SVGID_00000163788216631704472610000013906944394826753450_);}
	.st42{fill:url(#SVGID_00000153663284397130804350000011862338119234664629_);}
	.st43{fill:url(#SVGID_00000122689488346437301410000016507129041866710181_);}
	.st44{fill:url(#SVGID_00000041281218959413325050000014575629823981701049_);}
</style>
<rect x="-57.7" class="st0" width="595.2" height="329"/>
<g>
	
		<radialGradient id="SVGID_1_" cx="32.3497" cy="-3571.3909" r="109.1784" gradientTransform="matrix(1 0 0 0.2104 260.292 1013.8774)" gradientUnits="userSpaceOnUse">
		<stop  offset="0" style="stop-color:#717171"/>
		<stop  offset="1" style="stop-color:#FFFFFF"/>
	</radialGradient>
	<path marker-start="none" marker-end="none" class="st1" d="M290.2,288.4c-61.2,0-110.9-11.4-110.9-25.5
		c0-14.1,49.7-25.5,110.9-25.5c61.2,0,110.9,11.4,110.9,25.5C401,277,351.4,288.4,290.2,288.4z"/>
	
		<linearGradient id="SVGID_00000178894271076115810000000005054990297977600406_" gradientUnits="userSpaceOnUse" x1="69.8282" y1="660.6841" x2="-70.8586" y2="660.6841" gradientTransform="matrix(1 0 0 1 293.5918 -501.4849)">
		<stop  offset="0" style="stop-color:#E2E2E2"/>
		<stop  offset="4.875630e-02" style="stop-color:#5D5D5D"/>
		<stop  offset="0.2361" style="stop-color:#1D1D1D"/>
		<stop  offset="0.2671" style="stop-color:#1D1D1D"/>
		<stop  offset="0.4836" style="stop-color:#404040"/>
		<stop  offset="0.6143" style="stop-color:#5D5D5D"/>
		<stop  offset="0.7779" style="stop-color:#777777"/>
		<stop  offset="0.9233" style="stop-color:#3A3A3A"/>
		<stop  offset="1" style="stop-color:#5D5D5D"/>
	</linearGradient>
	<path marker-start="none" marker-end="none" style="fill:url(#SVGID_00000178894271076115810000000005054990297977600406_);" d="
		M225,49.7v202.9c0,3.4,5.6,8.3,9.9,10c34.5,13.8,79.2,12,112.9,0c4.4-1.6,9.9-6.2,9.9-10V49.7c0-2-4.4-3.7-9.9-3.7H235
		C229.5,46,225,47.7,225,49.7z"/>
	
		<linearGradient id="SVGID_00000103985537962346509910000015151358911650176907_" gradientUnits="userSpaceOnUse" x1="-157.8135" y1="98.9486" x2="-13.5106" y2="98.9486" gradientTransform="matrix(-1 0 0 -1 207.457 361.9318)">
		<stop  offset="0" style="stop-color:#E2E2E2"/>
		<stop  offset="4.875630e-02" style="stop-color:#5D5D5D"/>
		<stop  offset="0.2361" style="stop-color:#1D1D1D"/>
		<stop  offset="0.2671" style="stop-color:#1D1D1D"/>
		<stop  offset="0.4836" style="stop-color:#404040"/>
		<stop  offset="0.595" style="stop-color:#5D5D5D"/>
		<stop  offset="0.7559" style="stop-color:#7F7F7F"/>
		<stop  offset="0.9106" style="stop-color:#3A3A3A"/>
		<stop  offset="1" style="stop-color:#5D5D5D"/>
	</linearGradient>
	<path marker-start="none" marker-end="none" style="fill:url(#SVGID_00000103985537962346509910000015151358911650176907_);" d="
		M291.7,276.9c-19.7,0-40.5-1.8-58.2-9.9c-4.4-2-10.2-6.8-10.2-10.3c0-3.5,0.6-5.8,1.7-7.3c-0.1,5.3,4.5,8.3,8.5,9.9
		c34,14.2,82.9,13.1,114.5,1.3c4.1-1.5,9.8-6.1,9.6-11.5c1.2,1.9,1.9,4.4,1.9,7.7c0,3.9-5.8,8.2-10.2,10.3
		C332,275.3,311.2,276.9,291.7,276.9z"/>
	
		<linearGradient id="SVGID_00000108267316555464242240000014215499687090787484_" gradientUnits="userSpaceOnUse" x1="81.317" y1="727.7119" x2="-48.225" y2="732.3981" gradientTransform="matrix(1 0 0 1 303.5488 -472.8901)">
		<stop  offset="0" style="stop-color:#7F7F7F"/>
		<stop  offset="1" style="stop-color:#424242"/>
	</linearGradient>
	
		<path marker-start="none" marker-end="none" style="fill:url(#SVGID_00000108267316555464242240000014215499687090787484_);fill-opacity:0.3373;" d="
		M291.6,270.1c-20.4,0-41.1-3.3-58.1-10.4c-4-1.7-8.6-4.7-8.5-9.9v-1.1c-0.1,5.3,4.5,8.3,8.5,9.9c34,14.2,82.9,13.1,114.5,1.3
		c4.1-1.5,9.8-6.1,9.6-11.5v1.1c0.2,5.4-5.5,10-9.6,11.5C332.2,266.8,312.1,270.1,291.6,270.1z"/>
	<path marker-start="none" marker-end="none" class="st5" d="M291.7,276.9c-19.7,0-40.5-1.8-58.2-9.9c-4.4-2-10.2-6.8-10.2-10.3
		c0-0.9,0-1.7,0.1-2.4l0,0l0.2,0.6c1.2,3.3,6.1,7.1,9.9,8.9c17.7,8.1,38.5,9.9,58.2,9.9c19.5,0,40.3-1.6,57.6-9.9
		c3.8-1.8,8.7-5.3,9.9-8.8l0.1-0.4l0.1,1c0,0.4,0,0.8,0.1,1.2c0,3.9-5.8,8.2-10.2,10.3C332,275.3,311.2,276.9,291.7,276.9z"/>
	
		<linearGradient id="SVGID_00000005225447552183787640000015244775633424776841_" gradientUnits="userSpaceOnUse" x1="-157.8135" y1="131.5667" x2="-13.512" y2="131.5667" gradientTransform="matrix(-1 0 0 -1 207.457 332.8185)">
		<stop  offset="0" style="stop-color:#E2E2E2"/>
		<stop  offset="4.875630e-02" style="stop-color:#5D5D5D"/>
		<stop  offset="0.2361" style="stop-color:#1D1D1D"/>
		<stop  offset="0.2671" style="stop-color:#1D1D1D"/>
		<stop  offset="0.4836" style="stop-color:#404040"/>
		<stop  offset="0.595" style="stop-color:#5D5D5D"/>
		<stop  offset="0.7559" style="stop-color:#7F7F7F"/>
		<stop  offset="0.9106" style="stop-color:#3A3A3A"/>
		<stop  offset="1" style="stop-color:#5D5D5D"/>
	</linearGradient>
	<path marker-start="none" marker-end="none" style="fill:url(#SVGID_00000005225447552183787640000015244775633424776841_);" d="
		M291.7,210.4c-19.5,0-40.5-1.2-58.2-6.5c-2.9-0.9-6.4-2.5-8.5-4.2c-1-0.9-1.6-2.8-1.6-3.5c0.1-2.1,0.6-2.6,1.6-3.8
		c-0.1,3.5,4.5,5.4,8.5,6.5c34,9.3,82.9,8.6,114.5,0.8c4.1-1,9.8-4,9.6-7.6c1.2,1.3,1.7,1.7,1.7,3.8c0,0.9-0.5,3-1.6,3.8
		c-2.1,1.7-5.6,3.2-8.4,4.1C332,209.3,311,210.4,291.7,210.4z"/>
	
		<linearGradient id="SVGID_00000027589169674836200610000009543371678698220729_" gradientUnits="userSpaceOnUse" x1="-2.4816" y1="687.3589" x2="96.8049" y2="699.2906" gradientTransform="matrix(1 0 0 1 229.4697 -499.1768)">
		<stop  offset="0" style="stop-color:#1D1D1D"/>
		<stop  offset="1" style="stop-color:#797979"/>
	</linearGradient>
	
		<path marker-start="none" marker-end="none" style="fill:url(#SVGID_00000027589169674836200610000009543371678698220729_);fill-opacity:0.5647;" d="
		M291.6,206.2c-20.4,0-41.1-2.2-58.1-6.8c-4-1.1-8.6-3.4-8.5-6.9v-0.7c-0.1,3.5,4.5,5.4,8.5,6.5c34,9.3,82.9,8.6,114.5,0.8
		c4.1-1,9.8-4,9.6-7.6v0.7c0.2,3.6-5.5,6.9-9.6,7.9C332.2,204.1,312.1,206.2,291.6,206.2z"/>
	<path marker-start="none" marker-end="none" class="st8" d="M291.7,210.4c-2.5,0-4.9,0-7.4-0.1l-7.3-0.2l-0.1,0l-0.3,0l-6.8-0.3
		l-0.4,0c-10-0.6-19.9-1.9-29.1-4l-1.4-0.4l-2-0.5c-1.1-0.3-2.2-0.6-3.4-1l-1.5-0.5l-0.3-0.1l-1.6-0.7l-1.6-0.7l-0.3-0.1l-1.5-0.8
		l0,0l-0.8-0.5l-0.3-0.2l-0.5-0.4l-0.2-0.2l-0.3-0.3c-0.8-0.9-1.2-2.5-1.2-3.2l0-0.4l0.1,0.2c1.2,2.2,6.1,4.7,9.9,5.8
		c17.7,5.3,38.5,6.5,58.2,6.5c19.5,0,40.3-1.1,57.6-6.5c3.8-1.2,8.7-3.5,9.9-5.8l0.1-0.2l0,0.1c0,0.8-0.4,2.5-1.2,3.5l-0.3,0.3
		l-0.2,0.2l-0.5,0.4l-0.3,0.2L356,201l-1.4,0.8l-0.3,0.2l-1.5,0.7l-1.6,0.6l-0.3,0.1l-1.5,0.5c-1.1,0.3-2.2,0.7-3.3,1l-2.6,0.7
		l-0.7,0.2c-9.1,2.2-18.9,3.4-28.8,4l-0.3,0l-6.8,0.3l-0.3,0l-0.1,0l-7.3,0.2C296.6,210.4,294.1,210.4,291.7,210.4z"/>
	
		<linearGradient id="SVGID_00000183235696960292688970000013414980725393423264_" gradientUnits="userSpaceOnUse" x1="-157.8135" y1="177.1215" x2="-13.512" y2="177.1215" gradientTransform="matrix(-1 0 0 -1 207.457 292.758)">
		<stop  offset="0" style="stop-color:#E2E2E2"/>
		<stop  offset="4.875630e-02" style="stop-color:#5D5D5D"/>
		<stop  offset="0.2361" style="stop-color:#1D1D1D"/>
		<stop  offset="0.2671" style="stop-color:#1D1D1D"/>
		<stop  offset="0.4836" style="stop-color:#404040"/>
		<stop  offset="0.595" style="stop-color:#5D5D5D"/>
		<stop  offset="0.7559" style="stop-color:#7F7F7F"/>
		<stop  offset="0.9106" style="stop-color:#3A3A3A"/>
		<stop  offset="1" style="stop-color:#5D5D5D"/>
	</linearGradient>
	<path marker-start="none" marker-end="none" style="fill:url(#SVGID_00000183235696960292688970000013414980725393423264_);" d="
		M291.7,123.8c-19.5,0-40.5-1.1-58.2-5.8c-2.9-0.8-6.4-2.3-8.5-3.8c-1-0.8-1.6-2.5-1.6-3.2c0.1-1.9,0.6-2.4,1.6-3.4
		c-0.1,3.1,4.5,4.9,8.5,5.8c34,8.4,82.9,7.7,114.5,0.7c4.1-0.9,9.8-3.6,9.6-6.8c1.2,1.1,1.7,1.5,1.7,3.4c0,0.8-0.5,2.7-1.6,3.5
		c-2.1,1.5-5.6,2.9-8.4,3.7C332,122.9,311,123.8,291.7,123.8z"/>
	
		<linearGradient id="SVGID_00000095321916753446644100000013678513791622421670_" gradientUnits="userSpaceOnUse" x1="28.2112" y1="637.0894" x2="128.0755" y2="637.0894" gradientTransform="matrix(0.9942 0.1071 -0.1329 0.9915 283.6089 -530.7751)">
		<stop  offset="0" style="stop-color:#1D1D1D"/>
		<stop  offset="1" style="stop-color:#797979"/>
	</linearGradient>
	
		<path marker-start="none" marker-end="none" style="fill:url(#SVGID_00000095321916753446644100000013678513791622421670_);fill-opacity:0.5647;" d="
		M291.6,120.1c-20.4,0-41.1-1.9-58.1-6.1c-4-1-8.6-3-8.5-6.2v-0.7c-0.1,3.1,4.5,4.9,8.5,5.9c34,8.4,82.9,7.7,114.5,0.7
		c4.1-0.9,9.8-3.6,9.6-6.8v0.7c0.2,3.2-5.5,6.2-9.6,7.1C332.2,118.2,312.1,120.1,291.6,120.1z"/>
	<path marker-start="none" marker-end="none" class="st8" d="M291.7,123.8c-2.5,0-4.9,0-7.4-0.1l-7.3-0.2l-0.1,0l-0.3,0l-6.8-0.3
		l-0.4,0c-10-0.6-19.9-1.7-29.1-3.6l-1.4-0.3l-2-0.5c-1.1-0.3-2.2-0.6-3.4-0.9l-1.5-0.5l-0.3-0.1l-1.6-0.6l-1.6-0.7l-0.3-0.1
		l-1.5-0.7l0,0l-0.8-0.4l-0.3-0.2l-0.5-0.3l-0.2-0.2l-0.3-0.3c-0.8-0.9-1.2-2.2-1.2-2.8l0-0.4l0.1,0.2c1.2,1.9,6.1,4.2,9.9,5.2
		c17.7,4.8,38.5,5.8,58.2,5.8c19.5,0,40.3-1,57.6-5.8c3.8-1.1,8.7-3.1,9.9-5.2l0.1-0.2l0,0.1c0,0.7-0.4,2.2-1.2,3.1l-0.3,0.3
		l-0.2,0.2l-0.5,0.3l-0.3,0.2l-0.8,0.5l-1.4,0.7l-0.3,0.1l-1.5,0.6l-1.6,0.6l-0.3,0.1l-1.5,0.5c-1.1,0.3-2.2,0.6-3.3,0.9l-2.6,0.6
		l-0.7,0.2c-9.1,2-18.9,3.1-28.8,3.6l-0.3,0l-6.8,0.3l-0.3,0l-0.1,0l-7.3,0.2C296.6,123.8,294.1,123.8,291.7,123.8z"/>
	<path marker-start="none" marker-end="none" class="st8" d="M291.7,210.5c-2.5,0-4.9,0-7.4-0.1l-7.3-0.2l-0.1,0l-0.3,0l-6.8-0.3
		l-0.4,0c-10-0.7-19.9-1.9-29.1-4l-1.4-0.4l-2-0.5c-1.1-0.3-2.2-0.6-3.4-1l-1.5-0.5l-0.3-0.1l-1.6-0.7l-1.6-0.7l-0.3-0.1l-1.5-0.8
		l0,0l-0.8-0.5l-0.3-0.2l-0.5-0.4l-0.2-0.2l-0.3-0.3c-0.8-0.9-1.2-2.5-1.2-3.2l0-0.4l0,0l0,0.2c0.2,0.8,0.5,1.8,1.1,2.5l0.3,0.3
		l0.2,0.2l0.5,0.4l0.3,0.2l0.8,0.5l0,0l1.5,0.8l0.3,0.1l1.6,0.7l1.6,0.6l0.3,0.1l1.5,0.5c1.1,0.3,2.2,0.7,3.4,1l2,0.5l1.4,0.4
		c9.2,2.2,19.1,3.4,29.1,4l0.4,0l6.8,0.3l0.3,0l0.1,0l7.3,0.2c2.5,0,5,0.1,7.4,0.1c2.4,0,4.9,0,7.4-0.1l7.3-0.2l0.1,0l0.3,0l6.8-0.3
		l0.3,0c9.9-0.6,19.7-1.8,28.8-4l0.7-0.2l2.6-0.7c1.1-0.3,2.2-0.6,3.3-1l1.5-0.5l0.3-0.1l1.6-0.6l1.5-0.7l0.3-0.2l1.4-0.8l0.8-0.5
		l0.3-0.2l0.5-0.4l0.2-0.2l0.3-0.3c0.5-0.6,0.8-1.5,1-2.3l0-0.2l0-0.1l0.1-0.2l0,0.1c0,0.8-0.4,2.5-1.2,3.5l-0.3,0.3l-0.2,0.2
		l-0.5,0.4l-0.3,0.2l-0.8,0.5l-1.4,0.8l-0.3,0.2l-1.5,0.7l-1.6,0.6l-0.3,0.1l-1.5,0.5c-1.1,0.3-2.2,0.7-3.3,1l-2.6,0.7l-0.7,0.2
		c-9.1,2.2-18.9,3.4-28.8,4l-0.3,0l-6.8,0.3l-0.3,0l-0.1,0l-7.3,0.2C296.6,210.5,294.1,210.5,291.7,210.5z"/>
	<path marker-start="none" marker-end="none" class="st8" d="M291.7,123.8c-2.5,0-4.9,0-7.4-0.1l-7.3-0.2l-0.1,0l-0.3,0l-6.8-0.3
		l-0.4,0c-10-0.6-19.9-1.7-29.1-3.7l-1.4-0.3l-2-0.5c-1.1-0.3-2.2-0.6-3.4-0.9l-1.5-0.5l-0.3-0.1l-1.6-0.6l-1.6-0.7l-0.3-0.1
		l-1.5-0.8l0,0l-0.8-0.5l-0.3-0.2l-0.5-0.3l-0.2-0.2l-0.3-0.3c-0.8-0.9-1.2-2.3-1.2-2.9l0-0.4l0,0l0,0.2c0.2,0.7,0.5,1.7,1.1,2.3
		l0.3,0.3l0.2,0.2l0.5,0.3l0.3,0.2l0.8,0.5l0,0l1.5,0.8l0.3,0.1l1.6,0.7l1.6,0.6l0.3,0.1l1.5,0.5c1.1,0.3,2.2,0.6,3.4,0.9l2,0.5
		l1.4,0.3c9.2,2,19.1,3.1,29.1,3.7l0.4,0l6.8,0.3l0.3,0l0.1,0l7.3,0.2c2.5,0,5,0.1,7.4,0.1c2.4,0,4.9,0,7.4-0.1l7.3-0.2h0.1l0.3,0
		l6.8-0.3l0.3,0c9.9-0.6,19.7-1.7,28.8-3.7l0.7-0.2l2.6-0.6c1.1-0.3,2.2-0.6,3.3-0.9l1.5-0.5l0.3-0.1l1.6-0.6l1.5-0.6l0.3-0.1
		l1.4-0.7l0.8-0.5l0.3-0.2l0.5-0.3l0.2-0.2l0.3-0.3c0.5-0.6,0.8-1.4,1-2.1l0-0.2l0-0.1l0.1-0.2l0,0.1c0,0.7-0.4,2.3-1.2,3.2
		l-0.3,0.3l-0.2,0.2l-0.5,0.3l-0.3,0.2l-0.8,0.5l-1.4,0.7l-0.3,0.1l-1.5,0.6l-1.6,0.6l-0.3,0.1l-1.5,0.5c-1.1,0.3-2.2,0.6-3.3,0.9
		l-2.6,0.6l-0.7,0.2c-9.1,2-18.9,3.2-28.8,3.7l-0.3,0l-6.8,0.3l-0.3,0h-0.1l-7.3,0.2C296.6,123.7,294.1,123.8,291.7,123.8z"/>
	
		<radialGradient id="SVGID_00000019642408512544133640000013403692753521102240_" cx="-120.2639" cy="-761.6708" r="85.0691" gradientTransform="matrix(-1 0 0 -0.1727 174.5137 -80.334)" gradientUnits="userSpaceOnUse">
		<stop  offset="0" style="stop-color:#777777"/>
		<stop  offset="1" style="stop-color:#3A3A3A"/>
	</radialGradient>
	<path marker-start="none" marker-end="none" style="fill:url(#SVGID_00000019642408512544133640000013403692753521102240_);" d="
		M291.4,37.4c36.6,0,66.4,5.3,66.4,11.8c0,6.5-29.7,11.8-66.4,11.8c-36.6,0-66.4-5.3-66.4-11.8C225.1,42.7,254.8,37.4,291.4,37.4z"
		/>
	
		<linearGradient id="SVGID_00000116936033649461495990000000849986835032239747_" gradientUnits="userSpaceOnUse" x1="-7.5117" y1="615.5479" x2="135.6946" y2="615.5479" gradientTransform="matrix(1 0 0 1 225.7407 -569.5571)">
		<stop  offset="0" style="stop-color:#E2E2E2"/>
		<stop  offset="4.875630e-02" style="stop-color:#5D5D5D"/>
		<stop  offset="0.2361" style="stop-color:#1D1D1D"/>
		<stop  offset="0.2671" style="stop-color:#1D1D1D"/>
		<stop  offset="0.4836" style="stop-color:#404040"/>
		<stop  offset="0.595" style="stop-color:#5D5D5D"/>
		<stop  offset="0.7559" style="stop-color:#7F7F7F"/>
		<stop  offset="0.9106" style="stop-color:#3A3A3A"/>
		<stop  offset="1" style="stop-color:#5D5D5D"/>
	</linearGradient>
	<path marker-start="none" marker-end="none" style="fill:url(#SVGID_00000116936033649461495990000000849986835032239747_);" d="
		M291.2,37.9c19.3,0,40.2,0.9,57.7,5c2.9,0.7,6.1,2.3,8.4,3.2c1.5,0.7,1.7,7.1,0.4,8c0.1-2.7-4.8-5.4-8.8-6.2
		c-33.7-7.1-82.2-6.6-113.6-0.6c-4,0.8-10.5,3.6-10.3,6.4c-1.5-1-0.7-7,0.6-7.6c2.2-1.1,5.5-2.4,8.4-3.1
		C251.2,38.7,272.1,37.9,291.2,37.9z"/>
	
		<linearGradient id="SVGID_00000008138828413764059280000017233047671233990055_" gradientUnits="userSpaceOnUse" x1="-157.8394" y1="209.971" x2="-13.438" y2="209.971" gradientTransform="matrix(-1 0 0 -1 207.4795 265.0646)">
		<stop  offset="0" style="stop-color:#E2E2E2"/>
		<stop  offset="4.875630e-02" style="stop-color:#5D5D5D"/>
		<stop  offset="0.2361" style="stop-color:#1D1D1D"/>
		<stop  offset="0.2671" style="stop-color:#1D1D1D"/>
		<stop  offset="0.4836" style="stop-color:#404040"/>
		<stop  offset="0.595" style="stop-color:#5D5D5D"/>
		<stop  offset="0.7559" style="stop-color:#7F7F7F"/>
		<stop  offset="0.9106" style="stop-color:#3A3A3A"/>
		<stop  offset="1" style="stop-color:#5D5D5D"/>
	</linearGradient>
	<path marker-start="none" marker-end="none" style="fill:url(#SVGID_00000008138828413764059280000017233047671233990055_);" d="
		M291.7,64.6c-19.5,0-40.5-1.1-58.2-5.8c-2.9-0.8-6.2-2.7-8.5-3.8c-1.6-0.8-1.7-8.3-0.4-9.3c-0.1,3.1,4.8,6.3,8.8,7.3
		c34,8.4,82.9,7.7,114.5,0.7c4.1-0.9,10.6-4.3,10.4-7.5c1.5,1.1,0.7,8.2-0.6,8.9c-2.2,1.3-5.6,2.9-8.4,3.7
		C332.1,63.6,311,64.6,291.7,64.6z"/>
	<path marker-start="none" marker-end="none" class="st8" d="M291.7,64.6l-7.4,0l-0.1,0l-7.2-0.2l-0.1,0l-0.3,0l-6.8-0.3l-0.4,0
		c-10-0.6-19.9-1.7-29.1-3.6l-1.4-0.3l-2-0.5c-1.1-0.3-2.2-0.6-3.4-0.9l-1.2-0.4l-1-0.4c-1.9-0.8-3.8-1.8-5.3-2.6l-0.7-0.4l-0.2-0.1
		l-0.3-0.3l-0.3-0.3l-0.1-0.3c-0.2-0.5-0.3-1-0.4-1.6l0-0.3l0.3,0.3c1.8,1.7,6,3.6,9.3,4.5c17.7,4.8,38.5,5.8,58.2,5.8
		c19.5,0,40.3-1,57.6-5.8c3.3-0.9,7.5-2.6,9.3-4.4l0.1-0.1l0,0.1c-0.1,0.9-0.2,1.6-0.5,2.1l-0.1,0.2l-0.3,0.3l-0.2,0.1l-0.1,0
		l-0.6,0.3c-1.5,0.8-3.5,1.7-5.3,2.4l-0.9,0.3l-1.3,0.4c-1.1,0.3-2.2,0.6-3.3,0.9l-2.6,0.6l-0.7,0.2c-7.9,1.7-16.4,2.8-25.1,3.4
		l-3.7,0.2l-0.1,0l-0.2,0l-6.7,0.3l-0.4,0h-0.1h0l-7.3,0.2C296.6,64.6,294.1,64.6,291.7,64.6z"/>
	<path marker-start="none" marker-end="none" class="st8" d="M291.7,64.5c-2.5,0-4.9,0-7.4-0.1l-7.3-0.2l-0.1,0l-0.3,0l-6.8-0.3
		l-0.4,0c-10-0.6-19.9-1.7-29.1-3.7l-1.4-0.3l-2-0.5c-1.1-0.3-2.2-0.6-3.4-0.9L232,58l-0.3-0.1l-1.6-0.6l-1.6-0.7l-0.3-0.1l-1.5-0.8
		l0,0l-0.8-0.5l-0.3-0.2l-0.5-0.3l-0.2-0.2l-0.3-0.3c-0.2-0.2-0.4-0.5-0.5-0.7l0,0L224,53c0-0.2-0.1-0.4-0.1-0.6l0-0.1l0.3,0.6
		c0.1,0.2,0.3,0.4,0.4,0.5l0.3,0.3l0.2,0.2l0.5,0.3l0.3,0.2l0.8,0.5l0,0l1.5,0.8l0.3,0.1l1.6,0.7l1.6,0.6l0.3,0.1l1.5,0.5
		c1.1,0.3,2.2,0.6,3.4,0.9l2,0.5l1.4,0.3c9.2,2,19.1,3.1,29.1,3.7l0.4,0l6.8,0.3l0.3,0l0.1,0l7.3,0.2c2.5,0,5,0.1,7.4,0.1
		c2.4,0,4.9,0,7.4-0.1l7.3-0.2l0.1,0l0.3,0l6.8-0.3l0.3,0c9.9-0.6,19.7-1.7,28.8-3.7l0.7-0.2l2.6-0.6c1.1-0.3,2.2-0.6,3.3-0.9
		l1.5-0.5l0.3-0.1l1.6-0.6l1.5-0.7l0.3-0.1L356,55l0.8-0.5l0.3-0.2l0.5-0.3l0.2-0.2l0.3-0.3c0.1-0.1,0.2-0.3,0.3-0.5l0.3-0.5l0,0.4
		c0,0.2-0.1,0.4-0.1,0.6l-0.1,0.2l-0.1,0.2c-0.1,0.1-0.2,0.3-0.3,0.4l-0.3,0.3l-0.2,0.2l-0.5,0.3l-0.3,0.2l-0.8,0.5l-1.4,0.7
		l-0.3,0.1l-1.5,0.6l-1.6,0.6l-0.3,0.1l-1.5,0.5c-1.1,0.3-2.2,0.6-3.3,0.9l-2.6,0.6l-0.7,0.2c-9.1,2-18.9,3.1-28.8,3.7l-0.3,0
		l-6.8,0.3l-0.3,0l-0.1,0l-7.3,0.2C296.6,64.5,294.1,64.5,291.7,64.5z"/>
	<g id="Group_9_00000139993826848390150500000009384523171205389229_">
		
			<linearGradient id="SVGID_00000029034083656321029310000011144623337629770673_" gradientUnits="userSpaceOnUse" x1="-107.5814" y1="211.2055" x2="-90.0067" y2="211.2055" gradientTransform="matrix(-1 0 0 -1 163.3877 264.8127)">
			<stop  offset="0" style="stop-color:#E2E2E2"/>
			<stop  offset="4.875630e-02" style="stop-color:#D3D3D3"/>
			<stop  offset="0.2361" style="stop-color:#717171"/>
			<stop  offset="0.2671" style="stop-color:#717171"/>
			<stop  offset="0.4836" style="stop-color:#B0B0B0"/>
			<stop  offset="0.595" style="stop-color:#D3D3D3"/>
			<stop  offset="0.7559" style="stop-color:#FFFFFF"/>
			<stop  offset="0.9106" style="stop-color:#979797"/>
			<stop  offset="1" style="stop-color:#D3D3D3"/>
		</linearGradient>
		<path marker-start="none" marker-end="none" style="fill:url(#SVGID_00000029034083656321029310000011144623337629770673_);" d="
			M262,57.8c-2.4,0-4.9-0.1-7.1-0.8c-0.3-0.1-0.8-0.4-1-0.5c-0.2-0.1-0.2-5.3-0.1-7v0h0.3l0,0c0.2,0.2,0.5,0.4,0.8,0.5
			c4.1,1.2,10.1,1.1,13.9,0.1c0.3-0.1,0.7-0.3,1-0.5l0,0h0.3l0,0.1c0.1,1.7,0,6.9-0.1,7c-0.3,0.2-0.7,0.4-1,0.5
			C266.9,57.7,264.4,57.8,262,57.8z"/>
		
			<linearGradient id="SVGID_00000029767101074301980750000003145535942166404539_" gradientUnits="userSpaceOnUse" x1="19.8326" y1="616.1537" x2="-0.6649" y2="617.0482" gradientTransform="matrix(1 0 0 1 249.7441 -567.0259)">
			<stop  offset="0" style="stop-color:#FFFFFF"/>
			<stop  offset="1" style="stop-color:#000000"/>
		</linearGradient>
		<path marker-start="none" marker-end="none" style="fill:url(#SVGID_00000029767101074301980750000003145535942166404539_);" d="
			M261.8,48.2c4.4,0,7.9,0.6,7.9,1.2c0,0.7-3.6,1.2-7.9,1.2c-4.4,0-7.9-0.6-7.9-1.2C253.9,48.8,257.4,48.2,261.8,48.2z"/>
		<path marker-start="none" marker-end="none" class="st16" d="M262,48.2c4.4,0,7.9,0.6,7.9,1.2c0,0.7-3.6,1.2-7.9,1.2
			c-4.4,0-7.9-0.6-7.9-1.2C254,48.8,257.6,48.2,262,48.2z"/>
		<g id="Group_10_00000098193504649091020410000006995815306563308210_">
			<path marker-start="none" marker-end="none" class="st17" d="M320.9,46.9c0.5,0,1-0.1,1-0.2c0-0.1-0.4-0.2-1-0.2
				c-0.5,0-1,0.1-1,0.2C320,46.8,320.4,46.9,320.9,46.9z"/>
			<path marker-start="none" marker-end="none" class="st17" d="M319.7,46.7c0,0.1,0.5,0.2,1.2,0.2c0.7,0,1.2-0.1,1.2-0.2
				c0-0.1-0.5-0.2-1.2-0.2C320.3,46.5,319.7,46.6,319.7,46.7z"/>
			<path marker-start="none" marker-end="none" class="st17" d="M319.5,46.7c0,0.1,0.6,0.3,1.4,0.3c0.8,0,1.4-0.1,1.4-0.3
				c0-0.2-0.6-0.3-1.4-0.3C320.1,46.4,319.5,46.6,319.5,46.7z"/>
			<path marker-start="none" marker-end="none" class="st17" d="M319.3,46.7c0,0.2,0.7,0.3,1.7,0.3c0.9,0,1.7-0.1,1.7-0.3
				c0-0.2-0.7-0.3-1.7-0.3C320,46.4,319.3,46.5,319.3,46.7z"/>
			<path marker-start="none" marker-end="none" class="st17" d="M319.1,46.7c0,0.2,0.8,0.4,1.9,0.4c1,0,1.9-0.2,1.9-0.4
				c0-0.2-0.8-0.4-1.9-0.4C319.9,46.4,319.1,46.5,319.1,46.7z"/>
			<path marker-start="none" marker-end="none" class="st17" d="M318.8,46.7c0,0.2,0.9,0.4,2.1,0.4c1.2,0,2.1-0.2,2.1-0.4
				c0-0.2-0.9-0.4-2.1-0.4C319.8,46.3,318.8,46.5,318.8,46.7z"/>
			<path marker-start="none" marker-end="none" class="st17" d="M318.6,46.7c0,0.2,1,0.4,2.3,0.4c1.3,0,2.3-0.2,2.3-0.4
				c0-0.2-1-0.4-2.3-0.4C319.6,46.3,318.6,46.5,318.6,46.7z"/>
			<path marker-start="none" marker-end="none" class="st17" d="M318.4,46.7c0,0.3,1.1,0.5,2.6,0.5c1.4,0,2.6-0.2,2.6-0.5
				c0-0.3-1.1-0.5-2.6-0.5C319.5,46.2,318.4,46.4,318.4,46.7z"/>
			<path marker-start="none" marker-end="none" class="st17" d="M318.1,46.7c0,0.3,1.2,0.5,2.8,0.5c1.5,0,2.8-0.2,2.8-0.5
				c0-0.3-1.2-0.5-2.8-0.5C319.4,46.2,318.1,46.4,318.1,46.7z"/>
			<path marker-start="none" marker-end="none" class="st17" d="M317.9,46.7c0,0.3,1.3,0.6,3,0.6c1.7,0,3-0.3,3-0.6s-1.3-0.6-3-0.6
				C319.3,46.1,317.9,46.4,317.9,46.7z"/>
			<path marker-start="none" marker-end="none" class="st17" d="M317.7,46.7c0,0.3,1.5,0.6,3.2,0.6c1.8,0,3.2-0.3,3.2-0.6
				c0-0.3-1.5-0.6-3.2-0.6C319.1,46.1,317.7,46.4,317.7,46.7z"/>
			<path marker-start="none" marker-end="none" class="st17" d="M317.5,46.7c0,0.4,1.6,0.7,3.5,0.7c1.9,0,3.5-0.3,3.5-0.7
				c0-0.4-1.6-0.7-3.5-0.7C319,46.1,317.5,46.4,317.5,46.7z"/>
			<path marker-start="none" marker-end="none" class="st17" d="M317.2,46.7c0,0.4,1.7,0.7,3.7,0.7c2,0,3.7-0.3,3.7-0.7
				c0-0.4-1.7-0.7-3.7-0.7C318.9,46,317.2,46.3,317.2,46.7z"/>
			<path marker-start="none" marker-end="none" class="st17" d="M317,46.7c0,0.4,1.8,0.7,3.9,0.7c2.2,0,3.9-0.3,3.9-0.7
				c0-0.4-1.8-0.7-3.9-0.7C318.8,46,317,46.3,317,46.7z"/>
			<path marker-start="none" marker-end="none" class="st17" d="M316.8,46.7c0,0.4,1.9,0.8,4.1,0.8c2.3,0,4.1-0.3,4.1-0.8
				c0-0.4-1.9-0.8-4.1-0.8C318.6,45.9,316.8,46.3,316.8,46.7z"/>
			<path marker-start="none" marker-end="none" class="st17" d="M316.6,46.7c0,0.5,2,0.8,4.4,0.8c2.4,0,4.4-0.4,4.4-0.8
				c0-0.5-2-0.8-4.4-0.8C318.5,45.9,316.6,46.3,316.6,46.7z"/>
			<path marker-start="none" marker-end="none" class="st17" d="M316.3,46.7c0,0.5,2.1,0.9,4.6,0.9c2.5,0,4.6-0.4,4.6-0.9
				c0-0.5-2.1-0.9-4.6-0.9C318.4,45.8,316.3,46.2,316.3,46.7z"/>
			<path marker-start="none" marker-end="none" class="st17" d="M316.1,46.7c0,0.5,2.2,0.9,4.8,0.9c2.7,0,4.8-0.4,4.8-0.9
				c0-0.5-2.2-0.9-4.8-0.9C318.3,45.8,316.1,46.2,316.1,46.7z"/>
			<path marker-start="none" marker-end="none" class="st17" d="M315.9,46.7c0,0.5,2.3,0.9,5,0.9c2.8,0,5-0.4,5-0.9c0-0.5-2.3-1-5-1
				C318.1,45.8,315.9,46.2,315.9,46.7z"/>
			<path marker-start="none" marker-end="none" class="st17" d="M315.7,46.7c0,0.5,2.4,1,5.3,1c2.9,0,5.3-0.4,5.3-1
				c0-0.5-2.4-1-5.3-1C318,45.7,315.7,46.2,315.7,46.7z"/>
			<path marker-start="none" marker-end="none" class="st17" d="M315.4,46.7c0,0.6,2.5,1,5.5,1c3,0,5.5-0.5,5.5-1c0-0.6-2.5-1-5.5-1
				C317.9,45.7,315.4,46.1,315.4,46.7z"/>
			<path marker-start="none" marker-end="none" class="st17" d="M315.2,46.7c0,0.6,2.6,1.1,5.7,1.1c3.2,0,5.7-0.5,5.7-1.1
				c0-0.6-2.6-1.1-5.7-1.1C317.8,45.6,315.2,46.1,315.2,46.7z"/>
			<path marker-start="none" marker-end="none" class="st17" d="M315,46.7c0,0.6,2.7,1.1,5.9,1.1c3.3,0,5.9-0.5,5.9-1.1
				c0-0.6-2.7-1.1-5.9-1.1C317.6,45.6,315,46.1,315,46.7z"/>
			<path marker-start="none" marker-end="none" class="st17" d="M314.8,46.7c0,0.6,2.8,1.2,6.2,1.2c3.4,0,6.2-0.5,6.2-1.2
				c0-0.6-2.8-1.2-6.2-1.2C317.5,45.5,314.8,46.1,314.8,46.7z"/>
			<path marker-start="none" marker-end="none" class="st17" d="M314.5,46.7c0,0.7,2.9,1.2,6.4,1.2c3.5,0,6.4-0.5,6.4-1.2
				s-2.9-1.2-6.4-1.2C317.4,45.5,314.5,46,314.5,46.7z"/>
			<path marker-start="none" marker-end="none" class="st17" d="M314.3,46.7c0,0.7,3,1.2,6.6,1.2c3.7,0,6.6-0.6,6.6-1.2
				c0-0.7-3-1.3-6.6-1.3C317.3,45.5,314.3,46,314.3,46.7z"/>
			<path marker-start="none" marker-end="none" class="st17" d="M314.1,46.7c0,0.7,3.1,1.3,6.9,1.3c3.8,0,6.9-0.6,6.9-1.3
				c0-0.7-3.1-1.3-6.9-1.3C317.2,45.4,314.1,46,314.1,46.7z"/>
			<path marker-start="none" marker-end="none" class="st17" d="M313.9,46.7c0,0.7,3.2,1.3,7.1,1.3c3.9,0,7.1-0.6,7.1-1.3
				c0-0.7-3.2-1.3-7.1-1.3C317,45.4,313.9,46,313.9,46.7z"/>
			<path marker-start="none" marker-end="none" class="st17" d="M313.6,46.7c0,0.8,3.3,1.4,7.3,1.4c4,0,7.3-0.6,7.3-1.4
				c0-0.8-3.3-1.4-7.3-1.4C316.9,45.3,313.6,46,313.6,46.7z"/>
			<path marker-start="none" marker-end="none" class="st17" d="M313.4,46.7c0,0.8,3.4,1.4,7.5,1.4c4.2,0,7.5-0.6,7.5-1.4
				c0-0.8-3.4-1.4-7.5-1.4C316.8,45.3,313.4,45.9,313.4,46.7z"/>
			<path marker-start="none" marker-end="none" class="st17" d="M313.2,46.7c0,0.8,3.5,1.5,7.8,1.5c4.3,0,7.8-0.7,7.8-1.5
				c0-0.8-3.5-1.5-7.8-1.5C316.7,45.3,313.2,45.9,313.2,46.7z"/>
			<path marker-start="none" marker-end="none" class="st17" d="M320.9,45.2c4.4,0,8,0.7,8,1.5c0,0.8-3.6,1.5-8,1.5
				c-4.4,0-8-0.7-8-1.5C312.9,45.9,316.5,45.2,320.9,45.2z"/>
		</g>
		
			<linearGradient id="SVGID_00000146469831788114500240000004610036003005700502_" gradientUnits="userSpaceOnUse" x1="-135.9853" y1="214.7068" x2="-126.6315" y2="214.7068" gradientTransform="matrix(-1 0 0 -1 188.3066 260.3517)">
			<stop  offset="0" style="stop-color:#E2E2E2"/>
			<stop  offset="4.875630e-02" style="stop-color:#D3D3D3"/>
			<stop  offset="0.2361" style="stop-color:#717171"/>
			<stop  offset="0.2671" style="stop-color:#717171"/>
			<stop  offset="0.4836" style="stop-color:#B0B0B0"/>
			<stop  offset="0.595" style="stop-color:#D3D3D3"/>
			<stop  offset="0.7559" style="stop-color:#FFFFFF"/>
			<stop  offset="0.9106" style="stop-color:#979797"/>
			<stop  offset="1" style="stop-color:#D3D3D3"/>
		</linearGradient>
		<path marker-start="none" marker-end="none" style="fill:url(#SVGID_00000146469831788114500240000004610036003005700502_);" d="
			M319.5,47.8c-1.3,0-2.6-0.1-3.8-0.4c-0.2-0.1-0.4-0.2-0.5-0.3c-0.1,0-0.1-2.7-0.1-3.5v0h0.2l0,0c0.1,0.1,0.3,0.2,0.4,0.2
			c2.2,0.6,5.4,0.5,7.4,0.1c0.2,0,0.4-0.1,0.5-0.3l0,0h0.2v0c0,0.9,0,3.5-0.1,3.5c-0.1,0.1-0.4,0.2-0.5,0.3
			C322.1,47.7,320.8,47.8,319.5,47.8z"/>
		
			<linearGradient id="SVGID_00000071533018062574216310000010894220391756874882_" gradientUnits="userSpaceOnUse" x1="-126.3454" y1="212.3228" x2="-115.4312" y2="212.3228" gradientTransform="matrix(-0.9992 4.120000e-02 -4.610000e-02 -0.9989 207.0937 260.6803)">
			<stop  offset="0" style="stop-color:#FFFFFF"/>
			<stop  offset="1" style="stop-color:#000000"/>
		</linearGradient>
		<path marker-start="none" marker-end="none" style="fill:url(#SVGID_00000071533018062574216310000010894220391756874882_);" d="
			M319.4,42.9c2.3,0,4.2,0.3,4.2,0.6c0,0.3-1.9,0.6-4.2,0.6s-4.2-0.3-4.2-0.6C315.2,43.2,317.1,42.9,319.4,42.9z"/>
		<path marker-start="none" marker-end="none" class="st16" d="M319.5,42.9c2.3,0,4.2,0.3,4.2,0.6c0,0.3-1.9,0.6-4.2,0.6
			c-2.3,0-4.2-0.3-4.2-0.6C315.3,43.2,317.2,42.9,319.5,42.9z"/>
		<path marker-start="none" marker-end="none" class="st20" d="M262,54.7c-2.3,0-4.3-0.1-5.9-0.3c-0.8-0.1-1.4-0.2-1.9-0.4
			c-0.1,0-0.2-0.1-0.3-0.1l-0.1,0l0-0.3l0-0.3l0,0c0,0,0,0,0.1,0c0.1,0.1,0.3,0.1,0.5,0.2c0.4,0.1,1.1,0.2,1.8,0.3
			c1.5,0.2,3.6,0.3,5.8,0.3c2.2,0,4.3-0.1,5.8-0.3c0.8-0.1,1.4-0.2,1.8-0.3c0.2-0.1,0.4-0.1,0.5-0.2c0,0,0.1,0,0.1,0l0,0l0,0.4
			l0,0.3l-0.1,0c-0.1,0-0.2,0.1-0.3,0.1c-0.5,0.1-1.2,0.3-1.9,0.4C266.3,54.6,264.2,54.7,262,54.7z"/>
	</g>
	
		<linearGradient id="SVGID_00000181791621300943586790000013028571328611671466_" gradientUnits="userSpaceOnUse" x1="78.443" y1="608.4641" x2="-53.6559" y2="622.527" gradientTransform="matrix(1 0 0 1 301.5576 -570.27)">
		<stop  offset="0" style="stop-color:#404040"/>
		<stop  offset="1" style="stop-color:#848484"/>
	</linearGradient>
	<path marker-start="none" marker-end="none" style="fill:url(#SVGID_00000181791621300943586790000013028571328611671466_);" d="
		M291.4,59.3c-18.4,0-35-1.2-47.1-3.1c-6-0.9-11-2.1-14.5-3.4c-3.1-1.2-6.1-2.8-6.1-5.2c0-2.5,2.9-4.1,6.1-5.2
		c3.5-1.3,8.4-2.4,14.5-3.4c12.1-1.9,28.8-3.1,47.1-3.1c18.4,0,35,1.2,47.1,3.1c6,0.9,11,2.1,14.5,3.4c3.1,1.2,6.1,2.8,6.1,5.2
		c0,2.5-2.9,4.1-6.1,5.2c-3.5,1.3-8.4,2.4-14.5,3.4C326.5,58.1,309.8,59.3,291.4,59.3z M291.4,56.7c18.3,0,34.8-1.2,46.7-3
		c6-0.9,10.7-2,14-3.2c1.6-0.6,2.8-1.2,3.5-1.8c0.8-0.6,0.8-1,0.8-1.1c0-0.1-0.1-0.5-0.8-1.1c-0.7-0.6-1.9-1.2-3.5-1.8
		c-3.2-1.2-8-2.3-14-3.2c-11.9-1.9-28.4-3-46.7-3c-18.3,0-34.8,1.2-46.7,3c-6,0.9-10.7,2-14,3.2c-1.6,0.6-2.8,1.2-3.5,1.8
		c-0.8,0.6-0.8,1-0.8,1.1c0,0.1,0.1,0.5,0.8,1.1c0.7,0.6,1.9,1.2,3.5,1.8c3.2,1.2,8,2.3,14,3.2C256.7,55.6,273.2,56.7,291.4,56.7z"
		/>
	
		<linearGradient id="SVGID_00000139973170395579666380000003573110004028019115_" gradientUnits="userSpaceOnUse" x1="33.0748" y1="653.1891" x2="33.5156" y2="703.2115" gradientTransform="matrix(1 0 0 1 258.3252 -534.8262)">
		<stop  offset="0" style="stop-color:#353535"/>
		<stop  offset="1" style="stop-color:#505050"/>
	</linearGradient>
	<path marker-start="none" marker-end="none" style="fill:url(#SVGID_00000139973170395579666380000003573110004028019115_);" d="
		M263.7,188.6c18.8,2.6,37.7,2.5,56.5,0.1c4.8-0.9,6.6-3.3,4.3-7.3l-9.8-17.2c-2.3-4.1-6.1-10.7-8.5-14.7l-9.8-17.2
		c-2.3-4.1-6.1-4.1-8.5,0l-9.9,17.1c-2.4,4-6.2,10.6-8.5,14.7l-9.9,17.1C257.1,185.3,259.4,188.1,263.7,188.6z"/>
	
		<linearGradient id="SVGID_00000043431203482211675350000006286439795038238394_" gradientUnits="userSpaceOnUse" x1="-11.4295" y1="667.1039" x2="93.8833" y2="681.5822" gradientTransform="matrix(1 0 0 1 221.4141 -516.165)">
		<stop  offset="0" style="stop-color:#FDFD00"/>
		<stop  offset="1" style="stop-color:#FDBD01"/>
	</linearGradient>
	<path marker-start="none" marker-end="none" style="fill:url(#SVGID_00000043431203482211675350000006286439795038238394_);" d="
		M263.7,189.9c18.8,2.6,37.7,2.5,56.5,0.1c4.8-0.9,6.6-3.3,4.3-7.3l-9.8-17.2c-2.3-4.1-6.1-10.7-8.5-14.7l-9.8-17.2
		c-2.3-4.1-6.1-4.1-8.5,0l-9.9,17.1c-2.4,4.1-6.2,10.6-8.5,14.7l-9.9,17.1C257.1,186.6,259.4,189.4,263.7,189.9z"/>
	<g id="Group_11_00000116934786265877403920000009259511455366810773_">
		<g id="Group_12_00000100355462365724546970000018267428377007558066_">
			<path marker-start="none" marker-end="none" class="st24" d="M272.1,177.4c0-3,0.7-5.4,2.1-7c1.4-1.6,3.4-2.5,6-2.5
				c1.4,0,2.6,0.2,3.6,0.7c1,0.5,1.9,1.1,2.5,1.9c0.7,0.8,1.2,1.8,1.5,3c0.3,1.2,0.5,2.5,0.5,3.9c0,3-0.7,5.4-2.1,7
				c-1.4,1.6-3.4,2.5-6,2.5c-1.4,0-2.6-0.2-3.6-0.7c-1-0.5-1.9-1.1-2.5-1.9c-0.7-0.8-1.2-1.8-1.5-3
				C272.3,180.1,272.1,178.8,272.1,177.4z M276.1,177.4c0,0.9,0.1,1.8,0.2,2.5c0.2,0.8,0.4,1.4,0.7,2c0.3,0.6,0.8,1,1.3,1.3
				c0.5,0.3,1.2,0.5,1.9,0.5c1.3,0,2.4-0.5,3.1-1.5c0.7-1,1.1-2.6,1.1-4.8c0-0.9-0.1-1.7-0.2-2.5c-0.2-0.8-0.4-1.4-0.7-2
				c-0.3-0.6-0.8-1-1.3-1.3c-0.5-0.3-1.2-0.5-1.9-0.5c-1.3,0-2.4,0.5-3.1,1.5C276.4,173.6,276.1,175.2,276.1,177.4z"/>
			<path marker-start="none" marker-end="none" class="st24" d="M291.4,168.2h3.7v18.3h-3.7V168.2z"/>
			<path marker-start="none" marker-end="none" class="st24" d="M310.9,186.5h-12.1v-18.3h3.7v15.1h8.3V186.5z"/>
		</g>
	</g>
	<path marker-start="none" marker-end="none" class="st24" d="M283.2,156.2c0-4.5,5-12.6,8.9-17.2c4.3,4.7,8.9,12.7,8.9,17.2
		c0,4.5-4,8.2-8.9,8.2C287.2,164.3,283.2,160.7,283.2,156.2z"/>
	<path marker-start="none" marker-end="none" class="st25" d="M289.6,161.7l-0.6-0.2c-2.5-1-4.3-3.3-4.3-6c0-3.6,3.9-10,7-13.6
		c-2.5,5-5.5,10-5.2,14.4c0,2,1,3.8,2.6,5L289.6,161.7z"/>
</g>
<g>
	
		<radialGradient id="SVGID_00000116934045363173873620000008395729783241963674_" cx="-100.8832" cy="-3461.7407" r="129.0406" gradientTransform="matrix(1 0 0 0.2104 260.292 1013.8774)" gradientUnits="userSpaceOnUse">
		<stop  offset="0" style="stop-color:#717171"/>
		<stop  offset="1" style="stop-color:#FFFFFF"/>
	</radialGradient>
	
		<path marker-start="none" marker-end="none" style="fill:url(#SVGID_00000116934045363173873620000008395729783241963674_);fill-opacity:0.8196;" d="
		M156.5,316.3c-72.3,0-131-13.5-131-30.1c0-16.6,58.7-30.1,131-30.1c72.3,0,131,13.5,131,30.1C287.5,302.8,228.8,316.3,156.5,316.3z
		"/>
	
		<linearGradient id="SVGID_00000076583294141424094030000018187891075694801560_" gradientUnits="userSpaceOnUse" x1="-50.5284" y1="664.983" x2="-216.8095" y2="664.983" gradientTransform="matrix(1 0 0 1 293.5918 -501.4849)">
		<stop  offset="0" style="stop-color:#E2E2E2"/>
		<stop  offset="4.875630e-02" style="stop-color:#5D5D5D"/>
		<stop  offset="0.2361" style="stop-color:#1D1D1D"/>
		<stop  offset="0.2671" style="stop-color:#1D1D1D"/>
		<stop  offset="0.4836" style="stop-color:#404040"/>
		<stop  offset="0.6143" style="stop-color:#5D5D5D"/>
		<stop  offset="0.7779" style="stop-color:#777777"/>
		<stop  offset="0.9233" style="stop-color:#3A3A3A"/>
		<stop  offset="1" style="stop-color:#5D5D5D"/>
	</linearGradient>
	<path marker-start="none" marker-end="none" style="fill:url(#SVGID_00000076583294141424094030000018187891075694801560_);" d="
		M79.5,34.1V274c0,4.1,6.6,9.8,11.7,11.8c40.7,16.3,93.6,14.2,133.4,0c5.2-1.9,11.7-7.3,11.7-11.8V34.1c0-2.4-5.2-4.4-11.7-4.4H91.2
		C84.8,29.8,79.5,31.7,79.5,34.1z"/>
	
		<linearGradient id="SVGID_00000083804085709430676210000012752867737521197198_" gradientUnits="userSpaceOnUse" x1="-37.7935" y1="75.7689" x2="132.7615" y2="75.7689" gradientTransform="matrix(-1 0 0 -1 207.457 361.9318)">
		<stop  offset="0" style="stop-color:#E2E2E2"/>
		<stop  offset="4.875630e-02" style="stop-color:#5D5D5D"/>
		<stop  offset="0.2361" style="stop-color:#1D1D1D"/>
		<stop  offset="0.2671" style="stop-color:#1D1D1D"/>
		<stop  offset="0.4836" style="stop-color:#404040"/>
		<stop  offset="0.595" style="stop-color:#5D5D5D"/>
		<stop  offset="0.7559" style="stop-color:#7F7F7F"/>
		<stop  offset="0.9106" style="stop-color:#3A3A3A"/>
		<stop  offset="1" style="stop-color:#5D5D5D"/>
	</linearGradient>
	<path marker-start="none" marker-end="none" style="fill:url(#SVGID_00000083804085709430676210000012752867737521197198_);" d="
		M158.3,302.6c-23.3,0-47.9-2.1-68.8-11.7c-5.2-2.4-12-8-12-12.1c-0.1-4.2,0.7-6.9,2-8.7c-0.1,6.2,5.3,9.8,10,11.8
		c40.2,16.8,97.9,15.4,135.3,1.5c4.8-1.8,11.5-7.2,11.3-13.6c1.4,2.3,2.2,5.2,2.3,9.1c0,4.7-6.9,9.7-12,12.1
		C206,300.7,181.3,302.6,158.3,302.6z"/>
	
		<linearGradient id="SVGID_00000105417422658804894930000011131711267786363523_" gradientUnits="userSpaceOnUse" x1="-35.1381" y1="749.4068" x2="-188.2468" y2="754.9456" gradientTransform="matrix(1 0 0 1 303.5488 -472.8901)">
		<stop  offset="0" style="stop-color:#7F7F7F"/>
		<stop  offset="1" style="stop-color:#424242"/>
	</linearGradient>
	
		<path marker-start="none" marker-end="none" style="fill:url(#SVGID_00000105417422658804894930000011131711267786363523_);fill-opacity:0.3373;" d="
		M158.2,294.5c-24.1,0-48.6-3.9-68.7-12.3c-4.7-2-10.1-5.5-10-11.8v-1.3c-0.1,6.2,5.3,9.8,10,11.8c40.2,16.8,97.9,15.4,135.3,1.5
		c4.8-1.8,11.5-7.2,11.3-13.6v1.3c0.2,6.4-6.5,11.8-11.3,13.6C206.1,290.7,182.4,294.5,158.2,294.5z"/>
	<path marker-start="none" marker-end="none" class="st5" d="M158.3,302.6c-23.3,0-47.9-2.1-68.8-11.7c-5.2-2.4-12-8-12-12.2
		c0-1,0-2,0.1-2.9l0,0l0.2,0.7c1.4,3.9,7.2,8.5,11.7,10.5c20.9,9.6,45.5,11.7,68.8,11.7c23,0,47.7-1.9,68.1-11.7
		c4.5-2.2,10.3-6.3,11.7-10.4l0.1-0.5l0.1,1.2c0,0.5,0.1,0.9,0.1,1.4c0,4.7-6.9,9.7-12,12.2C206,300.7,181.3,302.6,158.3,302.6z"/>
	
		<linearGradient id="SVGID_00000106853671429658181770000017514387029762218883_" gradientUnits="userSpaceOnUse" x1="-37.7935" y1="119.6174" x2="132.7598" y2="119.6174" gradientTransform="matrix(-1 0 0 -1 207.457 332.8185)">
		<stop  offset="0" style="stop-color:#E2E2E2"/>
		<stop  offset="4.875630e-02" style="stop-color:#5D5D5D"/>
		<stop  offset="0.2361" style="stop-color:#1D1D1D"/>
		<stop  offset="0.2671" style="stop-color:#1D1D1D"/>
		<stop  offset="0.4836" style="stop-color:#404040"/>
		<stop  offset="0.595" style="stop-color:#5D5D5D"/>
		<stop  offset="0.7559" style="stop-color:#7F7F7F"/>
		<stop  offset="0.9106" style="stop-color:#3A3A3A"/>
		<stop  offset="1" style="stop-color:#5D5D5D"/>
	</linearGradient>
	<path marker-start="none" marker-end="none" style="fill:url(#SVGID_00000106853671429658181770000017514387029762218883_);" d="
		M158.3,224c-23.1,0-47.9-1.4-68.8-7.7c-3.4-1-7.6-3-10-5c-1.2-1-1.9-3.3-1.9-4.2c0.1-2.5,0.7-3.1,1.8-4.5c-0.1,4.1,5.3,6.4,10,7.7
		c40.2,11,97.9,10.1,135.3,1c4.8-1.2,11.5-4.7,11.3-8.9c1.4,1.5,2,2,2.1,4.5c0,1-0.6,3.5-1.8,4.5c-2.4,2-6.6,3.8-9.9,4.8
		C206,222.7,181.1,224,158.3,224z"/>
	
		<linearGradient id="SVGID_00000096752874390162176260000013305309219261801384_" gradientUnits="userSpaceOnUse" x1="-147.6584" y1="696.9304" x2="-30.3094" y2="711.0329" gradientTransform="matrix(1 0 0 1 229.4697 -499.1768)">
		<stop  offset="0" style="stop-color:#1D1D1D"/>
		<stop  offset="1" style="stop-color:#797979"/>
	</linearGradient>
	
		<path marker-start="none" marker-end="none" style="fill:url(#SVGID_00000096752874390162176260000013305309219261801384_);fill-opacity:0.5647;" d="
		M158.2,219.1c-24.1,0-48.6-2.5-68.7-8.1c-4.7-1.3-10.1-4-10-8.1v-0.9c-0.1,4.1,5.3,6.4,10,7.7c40.2,11,97.9,10.1,135.3,1
		c4.8-1.2,11.5-4.7,11.3-8.9v0.9c0.2,4.2-6.5,8.2-11.3,9.4C206.1,216.6,182.4,219.1,158.2,219.1z"/>
	<path marker-start="none" marker-end="none" class="st8" d="M158.3,224c-2.9,0-5.8,0-8.8-0.1l-8.6-0.2l-0.1,0l-0.4,0l-8-0.4l-0.4,0
		c-11.8-0.8-23.5-2.2-34.4-4.8l-1.7-0.4l-2.4-0.6c-1.3-0.4-2.7-0.7-4-1.1l-1.8-0.6l-0.3-0.1l-1.9-0.8l-1.8-0.9l-0.3-0.2l-1.7-1l0,0
		l-0.9-0.6l-0.3-0.2l-0.6-0.4l-0.3-0.2l-0.4-0.4c-0.9-1.1-1.4-2.9-1.4-3.7l0-0.5l0.1,0.3c1.4,2.6,7.2,5.5,11.7,6.9
		c20.9,6.3,45.5,7.7,68.8,7.7c23,0,47.7-1.3,68.1-7.7c4.5-1.4,10.3-4.1,11.7-6.8l0.1-0.2l0,0.2c0,0.9-0.5,2.9-1.4,4.1l-0.4,0.4
		l-0.2,0.2l-0.6,0.4l-0.3,0.2l-1,0.6l-1.7,0.9l-0.4,0.2l-1.8,0.8l-1.9,0.7l-0.3,0.1l-1.8,0.6c-1.3,0.4-2.6,0.8-3.9,1.1l-3.1,0.8
		l-0.9,0.2c-10.7,2.6-22.3,4-34,4.8l-0.4,0l-8,0.4l-0.4,0l-0.1,0l-8.6,0.2C164.1,224,161.2,224,158.3,224z"/>
	
		<linearGradient id="SVGID_00000105415252856164707450000000079968977529586318_" gradientUnits="userSpaceOnUse" x1="-37.7935" y1="180.7477" x2="132.7598" y2="180.7477" gradientTransform="matrix(-1 0 0 -1 207.457 292.758)">
		<stop  offset="0" style="stop-color:#E2E2E2"/>
		<stop  offset="4.875630e-02" style="stop-color:#5D5D5D"/>
		<stop  offset="0.2361" style="stop-color:#1D1D1D"/>
		<stop  offset="0.2671" style="stop-color:#1D1D1D"/>
		<stop  offset="0.4836" style="stop-color:#404040"/>
		<stop  offset="0.595" style="stop-color:#5D5D5D"/>
		<stop  offset="0.7559" style="stop-color:#7F7F7F"/>
		<stop  offset="0.9106" style="stop-color:#3A3A3A"/>
		<stop  offset="1" style="stop-color:#5D5D5D"/>
	</linearGradient>
	<path marker-start="none" marker-end="none" style="fill:url(#SVGID_00000105415252856164707450000000079968977529586318_);" d="
		M158.3,121.7c-23.1,0-47.9-1.2-68.8-6.9c-3.4-0.9-7.6-2.7-10-4.5c-1.2-0.9-1.9-2.9-1.9-3.8c0.1-2.3,0.7-2.8,1.8-4
		c-0.1,3.7,5.3,5.8,10,6.9c40.2,9.9,97.9,9.1,135.3,0.9c4.8-1.1,11.5-4.2,11.3-8c1.4,1.3,2,1.8,2.1,4.1c0,0.9-0.6,3.2-1.8,4.1
		c-2.4,1.8-6.6,3.4-9.9,4.3C206,120.6,181.1,121.7,158.3,121.7z"/>
	
		<linearGradient id="SVGID_00000082357279478459304500000005069454819726190269_" gradientUnits="userSpaceOnUse" x1="-116.4994" y1="646.9138" x2="1.5326" y2="646.9138" gradientTransform="matrix(0.9942 0.1071 -0.1329 0.9915 283.6089 -530.7751)">
		<stop  offset="0" style="stop-color:#1D1D1D"/>
		<stop  offset="1" style="stop-color:#797979"/>
	</linearGradient>
	
		<path marker-start="none" marker-end="none" style="fill:url(#SVGID_00000082357279478459304500000005069454819726190269_);fill-opacity:0.5647;" d="
		M158.2,117.3c-24.1,0-48.6-2.3-68.7-7.2c-4.7-1.2-10.1-3.6-10-7.3V102c-0.1,3.7,5.3,5.8,10,6.9c40.2,9.9,97.9,9.1,135.3,0.9
		c4.8-1.1,11.5-4.2,11.3-8v0.8c0.2,3.8-6.5,7.3-11.3,8.4C206.1,115,182.4,117.3,158.2,117.3z"/>
	<path marker-start="none" marker-end="none" class="st8" d="M158.3,121.7c-2.9,0-5.8,0-8.8-0.1l-8.6-0.2l-0.1,0l-0.4,0l-8-0.4
		l-0.4,0c-11.8-0.7-23.5-2-34.4-4.3l-1.7-0.4l-2.4-0.5c-1.3-0.3-2.7-0.7-4-1l-1.8-0.6l-0.3-0.1l-1.9-0.7l-1.8-0.8l-0.3-0.2l-1.7-0.9
		l0,0l-0.9-0.5l-0.3-0.2l-0.6-0.4l-0.3-0.2l-0.4-0.3c-0.9-1-1.4-2.6-1.4-3.4l0-0.5l0.1,0.3c1.4,2.3,7.2,5,11.7,6.2
		c20.9,5.7,45.5,6.9,68.8,6.9c23,0,47.7-1.1,68.1-6.9c4.5-1.3,10.3-3.7,11.7-6.1l0.1-0.2l0,0.2c0,0.8-0.5,2.6-1.4,3.7l-0.4,0.3
		l-0.2,0.2l-0.6,0.4l-0.3,0.2l-1,0.5l-1.7,0.8l-0.4,0.2l-1.8,0.7l-1.9,0.7l-0.3,0.1l-1.8,0.6c-1.3,0.4-2.6,0.7-3.9,1l-3.1,0.7
		l-0.9,0.2c-10.7,2.3-22.3,3.6-34,4.3l-0.4,0l-8,0.4l-0.4,0l-0.1,0l-8.6,0.2C164.1,121.7,161.2,121.7,158.3,121.7z"/>
	<path marker-start="none" marker-end="none" class="st8" d="M158.3,224.2c-2.9,0-5.8,0-8.8-0.1l-8.6-0.2l-0.1,0l-0.4,0l-8-0.4
		l-0.4,0c-11.8-0.8-23.5-2.2-34.4-4.8l-1.7-0.4l-2.4-0.6c-1.3-0.4-2.7-0.7-4-1.1l-1.8-0.6l-0.3-0.1l-1.9-0.8l-1.8-0.9l-0.3-0.2
		l-1.7-1l0,0l-0.9-0.6l-0.3-0.2l-0.6-0.4l-0.3-0.2l-0.4-0.4c-0.9-1.1-1.4-2.9-1.4-3.7l0-0.5l0,0l0,0.2c0.2,0.9,0.6,2.1,1.3,3
		l0.4,0.4l0.3,0.2l0.6,0.4l0.3,0.2l0.9,0.6l0,0l1.7,1l0.3,0.2l1.8,0.9l1.9,0.8l0.3,0.1l1.8,0.6c1.3,0.4,2.6,0.8,4,1.1l2.4,0.6
		l1.7,0.4c10.9,2.6,22.6,4,34.4,4.8l0.4,0l8,0.4l0.4,0l0.1,0l8.6,0.2c2.9,0.1,5.9,0.1,8.8,0.1c2.9,0,5.8,0,8.7-0.1l8.6-0.2l0.1,0
		l0.4,0l8-0.4l0.4,0c11.7-0.7,23.3-2.2,34-4.8l0.9-0.2l3.1-0.8c1.3-0.4,2.6-0.7,3.9-1.1l1.8-0.6l0.3-0.1l1.9-0.8l1.8-0.8l0.4-0.2
		l1.7-0.9l1-0.6l0.3-0.2l0.6-0.4l0.2-0.2l0.4-0.4c0.6-0.7,1-1.8,1.2-2.7l0.1-0.3l0-0.1l0.1-0.2l0,0.2c0,0.9-0.5,2.9-1.4,4.1
		l-0.4,0.4l-0.2,0.2l-0.6,0.4l-0.3,0.2l-1,0.6l-1.7,0.9l-0.4,0.2l-1.8,0.8l-1.9,0.7l-0.3,0.1l-1.8,0.6c-1.3,0.4-2.6,0.8-3.9,1.1
		l-3.1,0.8l-0.9,0.2c-10.7,2.6-22.3,4-34,4.8l-0.4,0l-8,0.4l-0.4,0l-0.1,0l-8.6,0.2C164.1,224.2,161.2,224.2,158.3,224.2z"/>
	<path marker-start="none" marker-end="none" class="st8" d="M158.3,121.6c-2.9,0-5.8,0-8.8-0.1l-8.6-0.2l-0.1,0l-0.4,0l-8-0.4
		l-0.4,0c-11.8-0.7-23.5-2-34.4-4.4l-1.7-0.4l-2.4-0.6c-1.3-0.3-2.7-0.7-4-1l-1.8-0.6l-0.3-0.1l-1.9-0.7l-1.8-0.8l-0.3-0.2l-1.7-0.9
		l0,0l-0.9-0.5l-0.3-0.2l-0.6-0.4l-0.3-0.2l-0.4-0.3c-0.9-1-1.4-2.7-1.4-3.5l0-0.5l0,0l0,0.2c0.2,0.8,0.6,2,1.3,2.8l0.4,0.3l0.3,0.2
		l0.6,0.4l0.3,0.2l0.9,0.5l0,0l1.7,0.9l0.3,0.2l1.8,0.8l1.9,0.7l0.3,0.1l1.8,0.6c1.3,0.4,2.6,0.7,4,1l2.4,0.6l1.7,0.4
		c10.9,2.4,22.6,3.7,34.4,4.4l0.4,0l8,0.4l0.4,0l0.1,0l8.6,0.2c2.9,0,5.9,0.1,8.8,0.1c2.9,0,5.8,0,8.7-0.1l8.6-0.2h0.1l0.4,0l8-0.4
		l0.4,0c11.7-0.7,23.3-2,34-4.4l0.9-0.2l3.1-0.7c1.3-0.3,2.6-0.7,3.9-1.1l1.8-0.6l0.3-0.1l1.9-0.7l1.8-0.8l0.4-0.2l1.7-0.9l1-0.6
		l0.3-0.2l0.6-0.4l0.2-0.2l0.4-0.4c0.6-0.7,1-1.7,1.2-2.5l0.1-0.2l0-0.1l0.1-0.2l0,0.2c0,0.8-0.5,2.7-1.4,3.8l-0.4,0.4l-0.2,0.2
		l-0.6,0.4l-0.3,0.2l-1,0.6l-1.7,0.8l-0.4,0.2l-1.8,0.8l-1.9,0.7l-0.3,0.1l-1.8,0.6c-1.3,0.4-2.6,0.7-3.9,1.1l-3.1,0.7l-0.9,0.2
		c-10.7,2.4-22.3,3.7-34,4.4l-0.4,0l-8,0.4l-0.4,0h-0.1l-8.6,0.2C164.1,121.6,161.2,121.6,158.3,121.6z"/>
	
		<radialGradient id="SVGID_00000044157269398326915170000011723728902240087988_" cx="12.5804" cy="-672.8027" r="100.5452" gradientTransform="matrix(-1 0 0 -0.1727 174.5137 -80.334)" gradientUnits="userSpaceOnUse">
		<stop  offset="0" style="stop-color:#777777"/>
		<stop  offset="1" style="stop-color:#3A3A3A"/>
	</radialGradient>
	<path marker-start="none" marker-end="none" style="fill:url(#SVGID_00000044157269398326915170000011723728902240087988_);" d="
		M158,19.6c43.3,0,78.4,6.3,78.4,14c0,7.7-35.1,14-78.4,14c-43.3,0-78.4-6.3-78.4-14C79.6,25.8,114.7,19.6,158,19.6z"/>
	
		<linearGradient id="SVGID_00000021840484683328917080000010924164606554922410_" gradientUnits="userSpaceOnUse" x1="-154.2819" y1="599.2516" x2="14.9769" y2="599.2516" gradientTransform="matrix(1 0 0 1 225.7407 -569.5571)">
		<stop  offset="0" style="stop-color:#E2E2E2"/>
		<stop  offset="4.875630e-02" style="stop-color:#5D5D5D"/>
		<stop  offset="0.2361" style="stop-color:#1D1D1D"/>
		<stop  offset="0.2671" style="stop-color:#1D1D1D"/>
		<stop  offset="0.4836" style="stop-color:#404040"/>
		<stop  offset="0.595" style="stop-color:#5D5D5D"/>
		<stop  offset="0.7559" style="stop-color:#7F7F7F"/>
		<stop  offset="0.9106" style="stop-color:#3A3A3A"/>
		<stop  offset="1" style="stop-color:#5D5D5D"/>
	</linearGradient>
	<path marker-start="none" marker-end="none" style="fill:url(#SVGID_00000021840484683328917080000010924164606554922410_);" d="
		M157.8,20.1c22.9,0,47.5,1.1,68.2,5.9c3.4,0.8,7.3,2.7,9.9,3.8c1.8,0.8,2,8.4,0.4,9.4c0.1-3.1-5.7-6.3-10.4-7.3
		c-39.9-8.4-97.2-7.8-134.2-0.7c-4.8,0.9-12.4,4.3-12.2,7.5c-1.8-1.1-0.8-8.2,0.8-9c2.6-1.3,6.5-2.9,9.9-3.7
		C110.5,21.1,135.1,20.1,157.8,20.1z"/>
	
		<linearGradient id="SVGID_00000137112948300005496430000016431486986609559691_" gradientUnits="userSpaceOnUse" x1="-37.8283" y1="224.6113" x2="132.8432" y2="224.6113" gradientTransform="matrix(-1 0 0 -1 207.4795 265.0646)">
		<stop  offset="0" style="stop-color:#E2E2E2"/>
		<stop  offset="4.875630e-02" style="stop-color:#5D5D5D"/>
		<stop  offset="0.2361" style="stop-color:#1D1D1D"/>
		<stop  offset="0.2671" style="stop-color:#1D1D1D"/>
		<stop  offset="0.4836" style="stop-color:#404040"/>
		<stop  offset="0.595" style="stop-color:#5D5D5D"/>
		<stop  offset="0.7559" style="stop-color:#7F7F7F"/>
		<stop  offset="0.9106" style="stop-color:#3A3A3A"/>
		<stop  offset="1" style="stop-color:#5D5D5D"/>
	</linearGradient>
	<path marker-start="none" marker-end="none" style="fill:url(#SVGID_00000137112948300005496430000016431486986609559691_);" d="
		M158.3,51.7c-23.1,0-47.9-1.2-68.8-6.9c-3.4-0.9-7.3-3.1-10-4.5c-1.8-0.9-2.1-9.8-0.4-11c-0.1,3.7,5.7,7.4,10.5,8.6
		c40.2,9.9,98,9.1,135.4,0.9c4.8-1.1,12.5-5,12.3-8.8c1.8,1.3,0.9,9.6-0.8,10.6c-2.6,1.5-6.6,3.4-10,4.3
		C206,50.5,181.1,51.7,158.3,51.7z"/>
	<path marker-start="none" marker-end="none" class="st8" d="M158.3,51.7l-8.7-0.1l-0.1,0l-8.5-0.2l-0.1,0l-0.4,0l-8-0.4l-0.4,0
		c-11.8-0.7-23.5-2-34.4-4.3l-1.7-0.4l-2.4-0.5c-1.3-0.3-2.7-0.7-4-1l-1.5-0.4l-1.2-0.5c-2.2-0.9-4.5-2.1-6.3-3l-0.9-0.4l-0.2-0.2
		l-0.4-0.3l-0.3-0.4l-0.1-0.3c-0.2-0.5-0.3-1.2-0.4-1.9l0-0.4l0.3,0.4c2.1,2.1,7,4.3,11,5.3c20.9,5.7,45.5,6.9,68.8,6.9
		c23,0,47.7-1.1,68.1-6.9c3.9-1.1,8.9-3.1,11-5.2l0.2-0.2l0,0.2c-0.1,1-0.3,1.9-0.6,2.5l-0.2,0.2l-0.4,0.3l-0.2,0.2l-0.1,0l-0.7,0.4
		c-1.8,1-4.1,2.1-6.3,2.9l-1.1,0.4l-1.6,0.5c-1.3,0.4-2.6,0.7-3.9,1l-3.1,0.7l-0.9,0.2c-9.4,2-19.4,3.3-29.7,4l-4.4,0.3l-0.1,0
		l-0.3,0l-8,0.4l-0.5,0h-0.1h-0.1l-8.6,0.2C164.1,51.6,161.2,51.7,158.3,51.7z"/>
	<path marker-start="none" marker-end="none" class="st8" d="M158.3,51.6c-2.9,0-5.8,0-8.8-0.1l-8.6-0.2l-0.1,0l-0.4,0l-8-0.4
		l-0.4,0c-11.8-0.7-23.5-2-34.4-4.4l-1.7-0.4l-2.4-0.6c-1.3-0.3-2.7-0.7-4-1l-1.8-0.6l-0.3-0.1l-1.9-0.7l-1.8-0.8l-0.3-0.2l-1.7-0.9
		l0,0l-0.9-0.5l-0.3-0.2L79.7,40l-0.3-0.2l-0.4-0.3c-0.2-0.3-0.4-0.6-0.6-0.9l0,0l-0.1-0.6c0-0.2-0.1-0.5-0.1-0.7l0-0.1l0.4,0.7
		c0.1,0.2,0.3,0.4,0.5,0.6l0.4,0.3l0.3,0.2l0.6,0.4l0.3,0.2l0.9,0.5l0,0l1.7,0.9l0.3,0.2l1.8,0.8l1.9,0.7l0.3,0.1l1.8,0.6
		c1.3,0.4,2.6,0.7,4,1l2.4,0.5l1.7,0.4c10.9,2.4,22.6,3.7,34.4,4.4l0.4,0l8,0.4l0.4,0l0.1,0l8.6,0.2c2.9,0,5.9,0.1,8.8,0.1
		c2.9,0,5.8,0,8.7-0.1l8.6-0.2l0.1,0l0.4,0l8-0.4l0.4,0c11.7-0.7,23.3-2,34-4.4l0.9-0.2l3.1-0.7c1.3-0.3,2.6-0.7,3.9-1.1l1.8-0.6
		l0.3-0.1l1.9-0.7l1.8-0.8l0.4-0.2l1.7-0.9l1-0.6l0.3-0.2l0.6-0.4l0.2-0.2l0.4-0.4c0.2-0.2,0.3-0.4,0.4-0.6l0.3-0.6l-0.1,0.5
		c0,0.2-0.1,0.5-0.1,0.7l-0.1,0.3l-0.1,0.2c-0.1,0.2-0.2,0.3-0.3,0.4l-0.4,0.4l-0.2,0.2l-0.6,0.4l-0.3,0.2l-1,0.6l-1.7,0.9l-0.4,0.2
		l-1.8,0.8l-1.9,0.7l-0.3,0.1l-1.8,0.6c-1.3,0.4-2.6,0.7-3.9,1.1l-3.1,0.7l-0.9,0.2c-10.7,2.4-22.3,3.7-34,4.4l-0.4,0l-8,0.4l-0.4,0
		l-0.1,0l-8.6,0.2C164.1,51.6,161.2,51.6,158.3,51.6z"/>
	<g id="Group_9">
		
			<linearGradient id="SVGID_00000149339943280736514450000012712618360534909334_" gradientUnits="userSpaceOnUse" x1="29.5942" y1="226.1162" x2="50.3661" y2="226.1162" gradientTransform="matrix(-1 0 0 -1 163.3877 264.8127)">
			<stop  offset="0" style="stop-color:#E2E2E2"/>
			<stop  offset="4.875630e-02" style="stop-color:#D3D3D3"/>
			<stop  offset="0.2361" style="stop-color:#717171"/>
			<stop  offset="0.2671" style="stop-color:#717171"/>
			<stop  offset="0.4836" style="stop-color:#B0B0B0"/>
			<stop  offset="0.595" style="stop-color:#D3D3D3"/>
			<stop  offset="0.7559" style="stop-color:#FFFFFF"/>
			<stop  offset="0.9106" style="stop-color:#979797"/>
			<stop  offset="1" style="stop-color:#D3D3D3"/>
		</linearGradient>
		<path marker-start="none" marker-end="none" style="fill:url(#SVGID_00000149339943280736514450000012712618360534909334_);" d="
			M123.2,43.7c-2.8,0-5.8-0.2-8.4-1c-0.4-0.1-0.9-0.4-1.2-0.6c-0.2-0.1-0.2-6.3-0.1-8.3v0h0.4l0,0c0.3,0.3,0.6,0.5,0.9,0.5
			c4.9,1.4,11.9,1.3,16.5,0.1c0.4-0.1,0.9-0.3,1.2-0.6l0,0h0.4l0,0.1c0.1,2,0,8.1-0.2,8.2c-0.3,0.2-0.8,0.5-1.2,0.6
			C129,43.5,126,43.7,123.2,43.7z"/>
		
			<linearGradient id="SVGID_00000089546681389893862660000003186381462918004617_" gradientUnits="userSpaceOnUse" x1="-117.5963" y1="600.4281" x2="-141.8228" y2="601.4852" gradientTransform="matrix(1 0 0 1 249.7441 -567.0259)">
			<stop  offset="0" style="stop-color:#FFFFFF"/>
			<stop  offset="1" style="stop-color:#000000"/>
		</linearGradient>
		<path marker-start="none" marker-end="none" style="fill:url(#SVGID_00000089546681389893862660000003186381462918004617_);" d="
			M123,32.3c5.2,0,9.4,0.7,9.4,1.5c0,0.8-4.2,1.5-9.4,1.5c-5.2,0-9.4-0.7-9.4-1.5C113.6,33,117.8,32.3,123,32.3z"/>
		<path marker-start="none" marker-end="none" class="st39" d="M123.2,32.3c5.2,0,9.4,0.7,9.4,1.5c0,0.8-4.2,1.5-9.4,1.5
			c-5.2,0-9.4-0.7-9.4-1.5C113.8,33,118,32.3,123.2,32.3z"/>
		<g id="Group_10">
			<path marker-start="none" marker-end="none" class="st17" d="M192.8,30.8c0.6,0,1.2-0.1,1.2-0.2c0-0.1-0.5-0.2-1.2-0.2
				c-0.6,0-1.2,0.1-1.2,0.2C191.7,30.7,192.2,30.8,192.8,30.8z"/>
			<path marker-start="none" marker-end="none" class="st17" d="M191.4,30.5c0,0.1,0.6,0.3,1.4,0.3c0.8,0,1.4-0.1,1.4-0.3
				c0-0.2-0.6-0.3-1.4-0.3C192.1,30.3,191.4,30.4,191.4,30.5z"/>
			<path marker-start="none" marker-end="none" class="st17" d="M191.2,30.5c0,0.2,0.8,0.3,1.7,0.3c0.9,0,1.7-0.1,1.7-0.3
				c0-0.2-0.8-0.3-1.7-0.3C191.9,30.2,191.2,30.4,191.2,30.5z"/>
			<path marker-start="none" marker-end="none" class="st17" d="M190.9,30.5c0,0.2,0.9,0.4,2,0.4c1.1,0,2-0.2,2-0.4
				c0-0.2-0.9-0.4-2-0.4C191.8,30.2,190.9,30.3,190.9,30.5z"/>
			<path marker-start="none" marker-end="none" class="st17" d="M190.6,30.5c0,0.2,1,0.4,2.2,0.4c1.2,0,2.2-0.2,2.2-0.4
				c0-0.2-1-0.4-2.2-0.4C191.6,30.1,190.6,30.3,190.6,30.5z"/>
			<path marker-start="none" marker-end="none" class="st17" d="M190.4,30.5c0,0.3,1.1,0.5,2.5,0.5c1.4,0,2.5-0.2,2.5-0.5
				c0-0.3-1.1-0.5-2.5-0.5C191.5,30.1,190.4,30.3,190.4,30.5z"/>
			<path marker-start="none" marker-end="none" class="st17" d="M190.1,30.5c0,0.3,1.2,0.5,2.8,0.5c1.5,0,2.8-0.2,2.8-0.5
				c0-0.3-1.2-0.5-2.8-0.5C191.3,30,190.1,30.3,190.1,30.5z"/>
			<path marker-start="none" marker-end="none" class="st17" d="M189.8,30.5c0,0.3,1.4,0.6,3,0.6c1.7,0,3-0.3,3-0.6
				c0-0.3-1.4-0.6-3-0.6C191.2,30,189.8,30.2,189.8,30.5z"/>
			<path marker-start="none" marker-end="none" class="st17" d="M189.6,30.5c0,0.3,1.5,0.6,3.3,0.6c1.8,0,3.3-0.3,3.3-0.6
				c0-0.3-1.5-0.6-3.3-0.6C191,29.9,189.6,30.2,189.6,30.5z"/>
			<path marker-start="none" marker-end="none" class="st17" d="M189.3,30.5c0,0.4,1.6,0.7,3.6,0.7c2,0,3.6-0.3,3.6-0.7
				c0-0.4-1.6-0.7-3.6-0.7C190.9,29.9,189.3,30.2,189.3,30.5z"/>
			<path marker-start="none" marker-end="none" class="st17" d="M189,30.5c0,0.4,1.7,0.7,3.8,0.7c2.1,0,3.8-0.3,3.8-0.7
				c0-0.4-1.7-0.7-3.8-0.7C190.7,29.8,189,30.1,189,30.5z"/>
			<path marker-start="none" marker-end="none" class="st17" d="M188.8,30.5c0,0.4,1.8,0.8,4.1,0.8c2.3,0,4.1-0.3,4.1-0.8
				c0-0.4-1.8-0.8-4.1-0.8C190.6,29.8,188.8,30.1,188.8,30.5z"/>
			<path marker-start="none" marker-end="none" class="st17" d="M188.5,30.5c0,0.5,2,0.8,4.4,0.8c2.4,0,4.4-0.4,4.4-0.8
				c0-0.5-2-0.8-4.4-0.8C190.4,29.7,188.5,30.1,188.5,30.5z"/>
			<path marker-start="none" marker-end="none" class="st17" d="M188.2,30.5c0,0.5,2.1,0.9,4.6,0.9c2.6,0,4.6-0.4,4.6-0.9
				c0-0.5-2.1-0.9-4.6-0.9C190.3,29.7,188.2,30.1,188.2,30.5z"/>
			<path marker-start="none" marker-end="none" class="st17" d="M188,30.5c0,0.5,2.2,0.9,4.9,0.9c2.7,0,4.9-0.4,4.9-0.9
				c0-0.5-2.2-0.9-4.9-0.9C190.1,29.6,188,30,188,30.5z"/>
			<path marker-start="none" marker-end="none" class="st17" d="M187.7,30.5c0,0.5,2.3,1,5.2,1c2.9,0,5.2-0.4,5.2-1
				c0-0.5-2.3-1-5.2-1C190,29.6,187.7,30,187.7,30.5z"/>
			<path marker-start="none" marker-end="none" class="st17" d="M187.4,30.5c0,0.6,2.4,1,5.4,1c3,0,5.4-0.5,5.4-1c0-0.6-2.4-1-5.4-1
				C189.8,29.5,187.4,30,187.4,30.5z"/>
			<path marker-start="none" marker-end="none" class="st17" d="M187.2,30.5c0,0.6,2.6,1.1,5.7,1.1c3.1,0,5.7-0.5,5.7-1.1
				c0-0.6-2.6-1.1-5.7-1.1C189.7,29.5,187.2,30,187.2,30.5z"/>
			<path marker-start="none" marker-end="none" class="st17" d="M186.9,30.5c0,0.6,2.7,1.1,6,1.1c3.3,0,6-0.5,6-1.1
				c0-0.6-2.7-1.1-6-1.1C189.6,29.4,186.9,29.9,186.9,30.5z"/>
			<path marker-start="none" marker-end="none" class="st17" d="M186.6,30.5c0,0.6,2.8,1.2,6.2,1.2c3.4,0,6.2-0.5,6.2-1.2
				c0-0.6-2.8-1.2-6.2-1.2C189.4,29.4,186.6,29.9,186.6,30.5z"/>
			<path marker-start="none" marker-end="none" class="st17" d="M186.3,30.5c0,0.7,2.9,1.2,6.5,1.2s6.5-0.5,6.5-1.2
				c0-0.7-2.9-1.2-6.5-1.2S186.3,29.9,186.3,30.5z"/>
			<path marker-start="none" marker-end="none" class="st17" d="M186.1,30.5c0,0.7,3,1.3,6.8,1.3c3.7,0,6.8-0.6,6.8-1.3
				c0-0.7-3-1.3-6.8-1.3C189.1,29.3,186.1,29.8,186.1,30.5z"/>
			<path marker-start="none" marker-end="none" class="st17" d="M185.8,30.5c0,0.7,3.1,1.3,7,1.3c3.9,0,7-0.6,7-1.3
				c0-0.7-3.2-1.3-7-1.3C189,29.2,185.8,29.8,185.8,30.5z"/>
			<path marker-start="none" marker-end="none" class="st17" d="M185.5,30.5c0,0.8,3.3,1.4,7.3,1.4c4,0,7.3-0.6,7.3-1.4
				c0-0.8-3.3-1.4-7.3-1.4C188.8,29.2,185.5,29.8,185.5,30.5z"/>
			<path marker-start="none" marker-end="none" class="st17" d="M185.3,30.5c0,0.8,3.4,1.4,7.6,1.4c4.2,0,7.6-0.6,7.6-1.4
				c0-0.8-3.4-1.4-7.6-1.4C188.7,29.1,185.3,29.8,185.3,30.5z"/>
			<path marker-start="none" marker-end="none" class="st17" d="M185,30.5c0,0.8,3.5,1.5,7.8,1.5c4.3,0,7.8-0.7,7.8-1.5
				c0-0.8-3.5-1.5-7.8-1.5C188.5,29.1,185,29.7,185,30.5z"/>
			<path marker-start="none" marker-end="none" class="st17" d="M184.7,30.5c0,0.8,3.6,1.5,8.1,1.5c4.5,0,8.1-0.7,8.1-1.5
				c0-0.8-3.6-1.5-8.1-1.5S184.7,29.7,184.7,30.5z"/>
			<path marker-start="none" marker-end="none" class="st17" d="M184.5,30.5c0,0.9,3.7,1.6,8.4,1.6c4.6,0,8.4-0.7,8.4-1.6
				c0-0.9-3.7-1.6-8.4-1.6C188.2,29,184.5,29.7,184.5,30.5z"/>
			<path marker-start="none" marker-end="none" class="st17" d="M184.2,30.5c0,0.9,3.9,1.6,8.6,1.6c4.8,0,8.6-0.7,8.6-1.6
				c0-0.9-3.9-1.6-8.6-1.6C188.1,28.9,184.2,29.7,184.2,30.5z"/>
			<path marker-start="none" marker-end="none" class="st17" d="M183.9,30.5c0,0.9,4,1.7,8.9,1.7c4.9,0,8.9-0.8,8.9-1.7
				c0-0.9-4-1.7-8.9-1.7C187.9,28.9,183.9,29.6,183.9,30.5z"/>
			<path marker-start="none" marker-end="none" class="st17" d="M183.7,30.5c0,1,4.1,1.7,9.2,1.7s9.2-0.8,9.2-1.7
				c0-1-4.1-1.7-9.2-1.7S183.7,29.6,183.7,30.5z"/>
			<path marker-start="none" marker-end="none" class="st17" d="M192.8,28.8c5.2,0,9.4,0.8,9.4,1.8c0,1-4.2,1.8-9.4,1.8
				c-5.2,0-9.4-0.8-9.4-1.8C183.4,29.6,187.6,28.8,192.8,28.8z"/>
		</g>
		
			<linearGradient id="SVGID_00000052798978932824048970000017555352205635020690_" gradientUnits="userSpaceOnUse" x1="-8.5104" y1="231.066" x2="2.5451" y2="231.066" gradientTransform="matrix(-1 0 0 -1 188.3066 260.3517)">
			<stop  offset="0" style="stop-color:#E2E2E2"/>
			<stop  offset="4.875630e-02" style="stop-color:#D3D3D3"/>
			<stop  offset="0.2361" style="stop-color:#717171"/>
			<stop  offset="0.2671" style="stop-color:#717171"/>
			<stop  offset="0.4836" style="stop-color:#B0B0B0"/>
			<stop  offset="0.595" style="stop-color:#D3D3D3"/>
			<stop  offset="0.7559" style="stop-color:#FFFFFF"/>
			<stop  offset="0.9106" style="stop-color:#979797"/>
			<stop  offset="1" style="stop-color:#D3D3D3"/>
		</linearGradient>
		<path marker-start="none" marker-end="none" style="fill:url(#SVGID_00000052798978932824048970000017555352205635020690_);" d="
			M191.2,31.8c-1.5,0-3.1-0.1-4.5-0.5c-0.2-0.1-0.5-0.2-0.6-0.3c-0.1-0.1-0.1-3.2-0.1-4.2v0h0.2l0,0c0.1,0.1,0.3,0.2,0.5,0.3
			c2.6,0.7,6.4,0.6,8.8,0.1c0.2,0,0.5-0.2,0.6-0.3l0,0h0.2v0c0.1,1,0,4.1-0.1,4.2c-0.2,0.1-0.4,0.2-0.6,0.3
			C194.3,31.7,192.7,31.8,191.2,31.8z"/>
		
			<linearGradient id="SVGID_00000140702596272162234100000004272274496837193874_" gradientUnits="userSpaceOnUse" x1="0.351" y1="234.3372" x2="13.2508" y2="234.3372" gradientTransform="matrix(-0.9992 4.120000e-02 -4.610000e-02 -0.9989 207.0937 260.6803)">
			<stop  offset="0" style="stop-color:#FFFFFF"/>
			<stop  offset="1" style="stop-color:#000000"/>
		</linearGradient>
		<path marker-start="none" marker-end="none" style="fill:url(#SVGID_00000140702596272162234100000004272274496837193874_);" d="
			M191.1,26.1c2.8,0,5,0.3,5,0.7c0,0.4-2.2,0.7-5,0.7c-2.8,0-5-0.3-5-0.7C186.1,26.4,188.3,26.1,191.1,26.1z"/>
		<path marker-start="none" marker-end="none" class="st39" d="M191.2,26.1c2.8,0,5,0.3,5,0.7c0,0.4-2.2,0.7-5,0.7
			c-2.8,0-5-0.3-5-0.7C186.2,26.4,188.4,26.1,191.2,26.1z"/>
		<path marker-start="none" marker-end="none" class="st20" d="M123.2,40c-2.7,0-5.1-0.1-7-0.4c-0.9-0.1-1.7-0.3-2.3-0.4
			c-0.1,0-0.3-0.1-0.4-0.1l-0.1,0l0-0.4l0-0.4l0,0c0,0,0.1,0,0.1,0.1c0.1,0.1,0.3,0.1,0.6,0.2c0.5,0.2,1.3,0.3,2.2,0.4
			c1.8,0.2,4.2,0.4,6.9,0.4c2.7,0,5.1-0.1,6.9-0.4c0.9-0.1,1.6-0.3,2.2-0.4c0.3-0.1,0.5-0.2,0.6-0.2c0,0,0.1,0,0.1-0.1l0,0l0,0.4
			l0,0.3l-0.1,0.1c-0.1,0-0.3,0.1-0.4,0.1c-0.6,0.2-1.4,0.3-2.3,0.4C128.3,39.8,125.8,40,123.2,40z"/>
	</g>
	
		<linearGradient id="SVGID_00000145773613404072628590000017452270052220463756_" gradientUnits="userSpaceOnUse" x1="-38.8972" y1="590.7493" x2="-195.028" y2="607.3706" gradientTransform="matrix(1 0 0 1 301.5576 -570.27)">
		<stop  offset="0" style="stop-color:#404040"/>
		<stop  offset="1" style="stop-color:#848484"/>
	</linearGradient>
	<path marker-start="none" marker-end="none" style="fill:url(#SVGID_00000145773613404072628590000017452270052220463756_);" d="
		M158,45.4c-21.7,0-41.4-1.4-55.7-3.6c-7.1-1.1-13-2.5-17.1-4c-3.7-1.4-7.2-3.3-7.2-6.2c0-2.9,3.5-4.8,7.2-6.2
		c4.1-1.5,10-2.9,17.1-4c14.3-2.2,34-3.6,55.7-3.6c21.7,0,41.4,1.4,55.7,3.6c7.1,1.1,13,2.5,17.1,4c3.7,1.4,7.2,3.3,7.2,6.2
		c0,2.9-3.5,4.8-7.2,6.2c-4.1,1.5-10,2.9-17.1,4C199.4,44,179.7,45.4,158,45.4z M158,42.4c21.6,0,41.1-1.4,55.2-3.6
		c7.1-1.1,12.7-2.4,16.5-3.8c1.9-0.7,3.3-1.4,4.2-2.1c0.9-0.7,1-1.1,1-1.3c0-0.1-0.1-0.6-1-1.3c-0.9-0.7-2.3-1.4-4.2-2.1
		c-3.8-1.4-9.5-2.7-16.5-3.8c-14.1-2.2-33.6-3.6-55.2-3.6c-21.6,0-41.1,1.4-55.2,3.6c-7.1,1.1-12.7,2.4-16.5,3.8
		c-1.9,0.7-3.3,1.4-4.2,2.1c-0.9,0.7-1,1.1-1,1.3c0,0.1,0.1,0.6,1,1.3c0.9,0.7,2.3,1.4,4.2,2.1c3.8,1.4,9.5,2.7,16.5,3.8
		C116.9,41,136.4,42.4,158,42.4z"/>
	
		<linearGradient id="SVGID_00000065055632130946189460000008643935034481813170_" gradientUnits="userSpaceOnUse" x1="-100.3839" y1="650.059" x2="-99.8629" y2="709.1816" gradientTransform="matrix(1 0 0 1 258.3252 -534.8262)">
		<stop  offset="0" style="stop-color:#353535"/>
		<stop  offset="1" style="stop-color:#505050"/>
	</linearGradient>
	<path marker-start="none" marker-end="none" style="fill:url(#SVGID_00000065055632130946189460000008643935034481813170_);" d="
		M125.2,198.2c22.3,3.1,44.5,2.9,66.8,0.2c5.6-1,7.8-3.9,5-8.7l-11.6-20.3c-2.8-4.8-7.2-12.6-10-17.4l-11.6-20.3
		c-2.8-4.8-7.3-4.8-10,0L142,152c-2.8,4.8-7.3,12.6-10.1,17.3l-11.7,20.2C117.4,194.3,120.1,197.7,125.2,198.2z"/>
	
		<linearGradient id="SVGID_00000114759929242618945310000001071370970522213538_" gradientUnits="userSpaceOnUse" x1="-159.6996" y1="669.9001" x2="-35.228" y2="687.0122" gradientTransform="matrix(1 0 0 1 221.4141 -516.165)">
		<stop  offset="0" style="stop-color:#FDFD00"/>
		<stop  offset="1" style="stop-color:#FDBD01"/>
	</linearGradient>
	<path marker-start="none" marker-end="none" style="fill:url(#SVGID_00000114759929242618945310000001071370970522213538_);" d="
		M125.2,199.8c22.3,3.1,44.5,2.9,66.8,0.2c5.6-1,7.8-3.9,5-8.7L185.4,171c-2.8-4.8-7.2-12.6-10-17.4l-11.6-20.3
		c-2.8-4.8-7.3-4.8-10,0L142,153.6c-2.8,4.8-7.3,12.6-10.1,17.3l-11.7,20.2C117.4,195.9,120.1,199.3,125.2,199.8z"/>
	<g id="Group_11">
		<g id="Group_12">
			<path marker-start="none" marker-end="none" class="st24" d="M135.2,185c0-3.6,0.8-6.4,2.5-8.3c1.7-1.9,4-2.9,7.1-2.9
				c1.6,0,3,0.3,4.2,0.8c1.2,0.5,2.2,1.3,3,2.3c0.8,1,1.4,2.2,1.8,3.6c0.4,1.4,0.6,2.9,0.6,4.6c0,3.6-0.8,6.4-2.5,8.3
				c-1.7,1.9-4,2.9-7.1,2.9c-1.6,0-3.1-0.3-4.3-0.8c-1.2-0.5-2.2-1.3-3-2.3c-0.8-1-1.4-2.2-1.8-3.6
				C135.4,188.2,135.2,186.7,135.2,185z M139.8,185c0,1.1,0.1,2.1,0.3,3c0.2,0.9,0.5,1.7,0.9,2.4c0.4,0.7,0.9,1.2,1.5,1.5
				c0.6,0.4,1.4,0.6,2.2,0.6c1.6,0,2.8-0.6,3.6-1.8c0.9-1.2,1.3-3.1,1.3-5.7c0-1-0.1-2-0.3-2.9c-0.2-0.9-0.5-1.7-0.9-2.4
				c-0.4-0.7-0.9-1.2-1.5-1.6c-0.6-0.4-1.4-0.6-2.3-0.6c-1.6,0-2.8,0.6-3.6,1.8C140.2,180.5,139.8,182.4,139.8,185z"/>
			<path marker-start="none" marker-end="none" class="st24" d="M157.9,174.2h4.4v21.6h-4.4V174.2z"/>
			<path marker-start="none" marker-end="none" class="st24" d="M180.9,195.8h-14.3v-21.6h4.4V192h9.9V195.8z"/>
		</g>
	</g>
	<path marker-start="none" marker-end="none" class="st24" d="M148.2,159.9c0-5.3,5.9-14.9,10.6-20.3c5.1,5.5,10.6,15,10.6,20.3
		c0,5.3-4.7,9.7-10.6,9.7C153,169.6,148.2,165.2,148.2,159.9z"/>
	<path marker-start="none" marker-end="none" class="st25" d="M155.9,166.4l-0.7-0.2c-3-1.2-5.1-3.9-5.1-7c0-4.2,4.6-11.8,8.3-16.1
		c-3,5.9-6.5,11.8-6.2,17c0,2.4,1.2,4.5,3,5.9L155.9,166.4z"/>
</g>
</svg>
