<?xml version="1.0" encoding="utf-8"?>
<!-- Generator: Adobe Illustrator 26.0.0, SVG Export Plug-In . SVG Version: 6.00 Build 0)  -->
<svg version="1.1" id="Layer_1" xmlns="http://www.w3.org/2000/svg" xmlns:xlink="http://www.w3.org/1999/xlink" x="0px" y="0px"
	 viewBox="0 0 600 419" style="enable-background:new 0 0 600 419;" xml:space="preserve">
<style type="text/css">
	.st0{clip-path:url(#SVGID_00000179634198238856670830000014388906643007644314_);}
	.st1{fill:#3C8C3F;}
</style>
<g>
	<defs>
		<rect id="SVGID_1_" x="0" y="0.3" width="600" height="418.5"/>
	</defs>
	<clipPath id="SVGID_00000090278155492645594780000015475869105778162604_">
		<use xlink:href="#SVGID_1_"  style="overflow:visible;"/>
	</clipPath>
	<g style="clip-path:url(#SVGID_00000090278155492645594780000015475869105778162604_);">
		<path class="st1" d="M285.5,328.1H150.9c-1.5,0-2.9,0.7-3.7,2c-5.1,8.4-11.7,20.3-18,35.1c-10.1,23.4-15,35.4-11,47.7
			c0.7,2.2,2.7,7.3,8.1,13c8.3,8.7,20,13.2,32,13.2l127.3,0c2.4,0,4.3-1.9,4.3-4.3V332.4C289.8,330,287.9,328.1,285.5,328.1z"/>
		<path class="st1" d="M187.5,144.4l26.7,126.3c0.8,3.7-3.3,6.6-6.5,4.5L184.3,260c-0.9-0.6-2-0.8-3-0.7c0,0-1.4,0.2-2.7,1.5
			c-16.1,16.8-53.1,90.9-53.1,90.9c-3.3,6.7-11,21.7-16.5,43.1c-0.6,2.3-1,4-1,4c-0.4,1.6-1.3,0.7-2-0.1c-30-33.7-52-58.9-62.5-92.2
			c-4.9-15.5-5.4-24.2-3.9-28.4c3.4-9.4,8.3-19.8,14.2-32.3c8.7-18.6,19-33.1,27.7-43.6c1.6-2,1.2-4.9-0.9-6.3
			c-7.4-5-14.8-10-22.1-15c-3.1-2.1-2.3-6.8,1.3-7.7c40.8-10.7,81.5-21.5,122.3-32.2C184.5,140.5,187,142,187.5,144.4z"/>
		<path class="st1" d="M242.7,148.3L310,31.7c0.8-1.3,0.8-2.9,0.1-4.2c-4.7-8.6-11.8-20.2-21.4-33.2c-15.3-20.5-23.2-30.7-35.8-33.4
			c-2.2-0.5-7.7-1.4-15.3,0.5c-11.7,2.8-21.4,10.8-27.4,21.1L146.5,92.8c-1.2,2.1-0.5,4.7,1.6,5.9l88.7,51.2
			C238.9,151.1,241.5,150.4,242.7,148.3z"/>
		<path class="st1" d="M450.9,155.3l-122.8-40c-3.6-1.2-4-6.2-0.6-7.9l24.9-12.7c1-0.5,1.7-1.3,2.1-2.3c0,0,0.5-1.3,0-3.1
			C347.8,67,302.2-2.1,302.2-2.1c-4.1-6.2-13.2-20.4-29.1-35.9c-1.7-1.6-3-2.9-3-2.9c-1.2-1.2,0-1.5,1-1.7c44.2-9.1,77.1-15.6,111-8
			c15.9,3.5,23.7,7.4,26.5,10.8c6.4,7.7,13,17.1,20.9,28.5c11.7,16.9,19.2,33,23.9,45.8c0.9,2.4,3.6,3.5,5.9,2.4
			c8-3.9,16-7.8,24-11.7c3.3-1.6,7,1.4,6,5c-11.1,40.7-22.2,81.4-33.2,122C455.7,154.7,453.2,156.1,450.9,155.3z"/>
		<path class="st1" d="M423.1,204.6l67.3,116.6c0.8,1.3,2.1,2.1,3.6,2.2c9.8,0.2,23.4-0.1,39.5-1.9c25.3-3,38.2-4.7,46.8-14.3
			c1.5-1.7,5-6,7.2-13.5c3.4-11.5,1.4-23.9-4.6-34.3l-63.6-110.2c-1.2-2.1-3.8-2.8-5.9-1.6l-88.7,51.2
			C422.6,199.9,421.9,202.6,423.1,204.6z"/>
		<path class="st1" d="M313,381.4l96-86.3c2.8-2.6,7.4-0.4,7.2,3.4l-1.5,27.9c-0.1,1.1,0.3,2.1,0.9,2.9c0,0,0.9,1.1,2.7,1.5
			c22.6,5.5,105.2,0.6,105.2,0.6c7.4-0.4,24.3-1.3,45.6-7.3c2.2-0.6,4-1.2,4-1.2c1.6-0.4,1.3,0.7,0.9,1.7
			c-14.2,42.9-25,74.5-48.6,100.2c-11,12-18.2,16.8-22.7,17.6c-9.8,1.7-21.3,2.7-35.1,3.8c-20.5,1.7-38.1,0.1-51.6-2.1
			c-2.5-0.4-4.9,1.4-5,3.9c-0.6,8.9-1.3,17.8-1.9,26.7c-0.3,3.7-4.7,5.3-7.3,2.7c-29.7-29.9-59.4-59.9-89.1-89.8
			C311.1,385.8,311.2,383,313,381.4z"/>
	</g>
</g>
</svg>
