<?xml version="1.0" encoding="utf-8"?>
<!-- Generator: Adobe Illustrator 26.0.0, SVG Export Plug-In . SVG Version: 6.00 Build 0)  -->
<svg version="1.1" id="Layer_1" xmlns="http://www.w3.org/2000/svg" xmlns:xlink="http://www.w3.org/1999/xlink" x="0px" y="0px"
	 viewBox="0 0 43.7 43.7" style="enable-background:new 0 0 43.7 43.7;" xml:space="preserve">
<style type="text/css">
	.st0{fill:#FFFFFF;}
	.st1{fill-rule:evenodd;clip-rule:evenodd;fill:#03F5ED;}
	.st2{fill-rule:evenodd;clip-rule:evenodd;}
	.st3{fill-rule:evenodd;clip-rule:evenodd;fill:#FD024F;}
</style>
<g>
	<path class="st0" d="M40.5,0H3.2C1.4,0,0,1.4,0,3.2v37.4c0,1.7,1.4,3.2,3.2,3.2h37.3c1.8,0,3.2-1.4,3.2-3.2V3.2
		C43.7,1.4,42.3,0,40.5,0z"/>
	<g>
		<path class="st1" d="M10.9,34.6C4.1,28.6,8.5,15.4,19,17v1.2C10.2,17.9,6.2,28.5,10.9,34.6z M30.1,11.6c1.1,0.9,2.6,1.5,4.6,1.6
			v1.2C32.5,14,31.1,12.9,30.1,11.6z M27.3,5.3c0,0.4,0.1,0.9,0.1,1.4h-4.2v20.9c0,1-0.1,1.8-0.3,2.6c-1.7,3.8-6.5,3.3-7.9,0.7
			c2,1.2,5.3,0.9,6.6-2c0.2-0.8,0.3-1.6,0.3-2.6V5.3H27.3z"/>
		<path class="st2" d="M28.6,6.6L28.6,6.6c0,0.5,0.1,7.5,7.5,7.9c0,6.5,0,0,0,5.4c-0.6,0-4.8-0.3-7.5-2.7l0,10.5
			c0.1,4.8-2.6,9.4-7.6,10.4c-1.4,0.3-2.6,0.3-4.7-0.2c-12.1-3.6-8.1-21.6,4.1-19.7c0,5.8,0,0,0,5.8c-5-0.7-6.7,3.4-5.4,6.4
			c1.2,2.7,6.2,3.3,8-0.5c0.2-0.8,0.3-1.6,0.3-2.6V6.6H28.6z"/>
		<path class="st3" d="M19,18.3c0.4,0,0.8,0.1,1.3,0.1c0,5.8,0,0,0,5.8c-5-0.7-6.7,3.4-5.4,6.4c0,0.1,0.1,0.1,0.1,0.2
			c-0.6-0.4-1.1-0.9-1.4-1.5c-1.3-3,0.3-7.2,5.4-6.4C19,17.5,19,22,19,18.3z M34.8,14.4c0.4,0.1,0.8,0.1,1.3,0.2c0,6.5,0,0,0,5.4
			c-0.6,0-4.8-0.3-7.5-2.7l0,10.5c0.1,4.8-2.6,9.4-7.6,10.4c-1.4,0.3-2.6,0.3-4.7-0.2c-2.4-0.7-4.1-2-5.3-3.5c1.1,0.9,2.4,1.7,4,2.2
			c2.1,0.5,3.4,0.4,4.7,0.2c5-0.9,7.6-5.6,7.6-10.4l0-10.5c2.7,2.4,6.9,2.7,7.5,2.7C34.8,13.6,34.8,18.9,34.8,14.4z M28.6,6.6
			L28.6,6.6c0,0.3,0.1,2.8,1.6,5c-1.8-1.5-2.5-3.6-2.7-5H28.6z"/>
	</g>
</g>
</svg>
