<?xml version="1.0" encoding="utf-8"?>
<!-- Generator: Adobe Illustrator 26.0.0, SVG Export Plug-In . SVG Version: 6.00 Build 0)  -->
<svg version="1.1" id="Layer_1" xmlns="http://www.w3.org/2000/svg" xmlns:xlink="http://www.w3.org/1999/xlink" x="0px" y="0px"
	 viewBox="0 0 42 42" style="enable-background:new 0 0 42 42;" xml:space="preserve">
<style type="text/css">
	.st0{fill:#48AC4D;}
</style>
<g>
	<g>
		<g>
			<g>
				<path class="st0" d="M21,41.9C9.5,41.9,0.1,32.5,0.1,21C0.1,9.5,9.5,0.1,21,0.1c11.5,0,20.9,9.4,20.9,20.9
					C41.9,32.5,32.5,41.9,21,41.9z M21,2.1C10.6,2.1,2.1,10.6,2.1,21c0,10.4,8.5,18.9,18.9,18.9c10.4,0,18.9-8.5,18.9-18.9
					C39.9,10.6,31.4,2.1,21,2.1z"/>
			</g>
		</g>
	</g>
	<g>
		<polygon class="st0" points="16.3,29 8.9,21.8 10.5,20.1 16.3,25.7 31.5,11.8 33.1,13.6 		"/>
	</g>
</g>
</svg>
